{
.appVersion = "3198";
.formatVersion = 3;
axes = (
{
name = Weight;
tag = wght;
},
{
name = Italic;
tag = ital;
},
{
name = Grade;
tag = GRAD;
}
);
classes = (
{
automatic = 1;
code = "A B C D E F G H I J K L M N O P Q R S T U V W X Y Z Aacute Acircumflex Adieresis Agrave Aring Atilde AE AEacute Cacute Ccedilla Ccircumflex Eth Eacute Ecircumflex Edieresis Egrave Iacute Icircumflex Idieresis Igrave Ntilde Oacute Ocircumflex Odieresis Ograve Omacron Oslash Otilde OE Thorn Uacute Ucircumflex Udieresis Ugrave Yacute";
name = Uppercase;
}
);
customParameters = (
{
name = fsType;
value = (
);
},
{
name = "Use Typo Metrics";
value = 1;
},
{
name = glyphOrder;
value = (
.notdef,
CR,
NULL,
space,
enspace,
emspace,
figurespace,
hairspace,
punctuationspace,
nbspace,
thinspace,
zerowidthspace,
A,
B,
C,
D,
E,
F,
G,
H,
I,
J,
K,
L,
M,
N,
O,
P,
Q,
Q.ss02,
R,
S,
T,
U,
V,
W,
X,
Y,
Z,
a,
b,
c,
d,
e,
f,
g,
h,
i,
j,
k,
l,
m,
n,
o,
p,
q,
r,
s,
t,
u,
v,
w,
x,
y,
z,
quotesingle,
quotedbl,
numbersign,
ampersand,
asterisk,
comma,
period,
colon,
semicolon,
question,
exclam,
questiondown,
exclamdown,
at,
at.case,
parenleft,
parenright,
bracketleft,
bracketright,
braceleft,
braceright,
"leftanglebracket-math",
"rightanglebracket-math",
backslash,
slash,
brokenbar,
bar,
underscore,
periodcentered,
hyphen,
softhyphen,
hyphentwo,
endash,
emdash,
horizontalbar,
section,
copyright,
registered,
trademark,
numero,
numero.lf,
ordfeminine,
ordmasculine,
ordfeminine.lf,
ordmasculine.lf,
guilsinglleft,
guilsinglright,
guillemetleft,
guillemetright,
quoteleft,
quoteright,
quotesinglbase,
quotedblleft,
quotedblright,
quotedblbase,
dagger,
daggerdbl,
ellipsis,
paragraph,
slash.case,
backslash.case,
parenleft.case,
parenright.case,
braceleft.case,
braceright.case,
bracketleft.case,
bracketright.case,
"leftanglebracket-math.case",
"rightanglebracket-math.case",
periodcentered.case,
hyphen.case,
endash.case,
emdash.case,
guilsinglleft.case,
guilsinglright.case,
guillemetleft.case,
guillemetright.case,

glyphs = (
{
glyphname = .notdef;
kernLeft = H;
kernRight = H;
lastChange = "2023-06-05 08:18:04 +0000";
layers = (
{
layerId = "60A08B03-D3FB-4CD5-9797-EA57F0A37C3C";
shapes = (
{
closed = 1;
nodes = (
(906,0,ls),
(966,0,o),
(1009,35,o),
(1021,96,cs),
(1249,1274,ls),
(1261,1335,o),
(1232,1370,o),
(1172,1370,cs),
(445,1370,ls),
(385,1370,o),
(342,1335,o),
(330,1274,cs),
(102,96,ls),
(90,35,o),
(119,0,o),
(179,0,cs)
);
},
{
closed = 1;
nodes = (
(677,608,l),
(738,664,l),
(1028,1017,o),
(1052,1050,o),
(1112,1147,c),
(1195,1127,l),
(1155,1343,l),
(686,768,l),
(625,712,l),
(336,359,o),
(311,326,o),
(252,229,c),
(168,249,l),
(195,17,l)
);
},
{
closed = 1;
nodes = (
(1032,247,l),
(930,227,l),
(909,324,o),
(897,352,o),
(729,736,cs),
(461,1346,l),
(328,1127,l),
(429,1147,l),
(451,1050,o),
(463,1022,o),
(631,638,cs),
(898,28,l)
);
},
{
closed = 1;
nodes = (
(267,304,o),
(283,368,o),
(344,680,cs),
(404,987,o),
(416,1069,o),
(432,1262,c),
(515,1257,o),
(598,1250,o),
(788,1250,cs),
(978,1250,o),
(1069,1257,o),
(1153,1262,c),
(1094,1067,o),
(1075,986,o),
(1015,680,cs),
(955,369,o),
(946,306,o),
(929,108,c),
(847,117,o),
(758,120,o),
(568,120,cs),
(378,120,o),
(294,117,o),
(208,108,c)
);
}
);
width = 1275.6;
},
{
layerId = "6BF21B58-DCB1-4E7D-A305-B9EC5092F295";
shapes = (
{
closed = 1;
nodes = (
(866,0,ls),
(926,0,o),
(969,35,o),
(981,96,cs),
(1209,1274,ls),
(1221,1335,o),
(1192,1370,o),
(1132,1370,cs),
(405,1370,ls),
(345,1370,o),
(302,1335,o),
(290,1274,cs),
(62,96,ls),
(50,35,o),
(79,0,o),
(139,0,cs)
);
},
{
closed = 1;
nodes = (
(637,608,l),
(698,664,l),
(988,1017,o),
(1012,1050,o),
(1072,1147,c),
(1155,1127,l),
(1115,1343,l),
(646,768,l),
(585,712,l),
(296,359,o),
(271,326,o),
(212,229,c),
(128,249,l),
(155,17,l)
);
},
{
closed = 1;
nodes = (
(992,247,l),
(890,227,l),
(869,324,o),
(857,352,o),
(689,736,cs),
(421,1346,l),
(288,1127,l),
(389,1147,l),
(411,1050,o),
(423,1022,o),
(591,638,cs),
(858,28,l)
);
},
{
closed = 1;
nodes = (
(227,304,o),
(243,368,o),
(304,680,cs),
(364,987,o),
(376,1069,o),
(392,1262,c),
(475,1257,o),
(558,1250,o),
(748,1250,cs),
(938,1250,o),
(1029,1257,o),
(1113,1262,c),
(1054,1067,o),
(1035,986,o),
(975,680,cs),
(915,369,o),
(906,306,o),
(889,108,c),
(807,117,o),
(718,120,o),
(528,120,cs),
(338,120,o),
(254,117,o),
(168,108,c)
);
}
);
width = 1199.04;
},
{
layerId = "62135F79-58D5-4DC2-8CB3-F8AE7229E95A";
shapes = (
{
closed = 1;
nodes = (
(909,0,ls),
(969,0,o),
(1012,35,o),
(1024,96,cs),
(1252,1274,ls),
(1264,1335,o),
(1235,1370,o),
(1175,1370,cs),
(448,1370,ls),
(388,1370,o),
(345,1335,o),
(333,1274,cs),
(105,96,ls),
(93,35,o),
(122,0,o),
(182,0,cs)
);
},
{
closed = 1;
nodes = (
(680,608,l),
(741,664,l),
(1031,1017,o),
(1055,1050,o),
(1115,1147,c),
(1198,1127,l),
(1158,1343,l),
(689,768,l),
(628,712,l),
(339,359,o),
(314,326,o),
(255,229,c),
(171,249,l),
(198,17,l)
);
},
{
closed = 1;
nodes = (
(1035,247,l),
(933,227,l),
(912,324,o),
(900,352,o),
(732,736,cs),
(464,1346,l),
(331,1127,l),
(432,1147,l),
(454,1050,o),
(466,1022,o),
(634,638,cs),
(901,28,l)
);
},
{
closed = 1;
nodes = (
(270,304,o),
(286,368,o),
(347,680,cs),
(407,987,o),
(419,1069,o),
(435,1262,c),
(518,1257,o),
(601,1250,o),
(791,1250,cs),
(981,1250,o),
(1072,1257,o),
(1156,1262,c),
(1097,1067,o),
(1078,986,o),
(1018,680,cs),
(958,369,o),
(949,306,o),
(932,108,c),
(850,117,o),
(761,120,o),
(571,120,cs),
(381,120,o),
(297,117,o),
(211,108,c)
);
}
);
width = 1281.32;
},
{
layerId = "E595FEC6-42D0-4CBC-9ED1-F9D07DC361C2";
shapes = (
{
closed = 1;
nodes = (
(870,0,ls),
(930,0,o),
(973,35,o),
(985,96,cs),
(1213,1274,ls),
(1225,1335,o),
(1196,1370,o),
(1136,1370,cs),
(409,1370,ls),
(349,1370,o),
(306,1335,o),
(294,1274,cs),
(66,96,ls),
(54,35,o),
(83,0,o),
(143,0,cs)
);
},
{
closed = 1;
nodes = (
(641,608,l),
(702,664,l),
(992,1017,o),
(1016,1050,o),
(1076,1147,c),
(1159,1127,l),
(1119,1343,l),
(650,768,l),
(589,712,l),
(300,359,o),
(275,326,o),
(216,229,c),
(132,249,l),
(159,17,l)
);
},
{
closed = 1;
nodes = (
(996,247,l),
(894,227,l),
(873,324,o),
(861,352,o),
(693,736,cs),
(425,1346,l),
(292,1127,l),
(393,1147,l),
(415,1050,o),
(427,1022,o),
(595,638,cs),
(862,28,l)
);
},
{
closed = 1;
nodes = (
(231,304,o),
(247,368,o),
(308,680,cs),
(368,987,o),
(380,1069,o),
(396,1262,c),
(479,1257,o),
(562,1250,o),
(752,1250,cs),
(942,1250,o),
(1033,1257,o),
(1117,1262,c),
(1058,1067,o),
(1039,986,o),
(979,680,cs),
(919,369,o),
(910,306,o),
(893,108,c),
(811,117,o),
(722,120,o),
(532,120,cs),
(342,120,o),
(258,117,o),
(172,108,c)
);
}
);
width = 1205.816;
}
);
metricLeft = H;
metricRight = H;
},
{
color = 5;
glyphname = A;
kernLeft = A;
kernRight = A;
lastChange = "2023-06-05 08:18:04 +0000";
layers = (
{
anchors = (
{
name = bottom;
pos = (465,0);
},
{
name = ogonek;
pos = (958,9);
},
{
name = top;
pos = (743,1464);
}
);
layerId = "60A08B03-D3FB-4CD5-9797-EA57F0A37C3C";
shapes = (
{
closed = 1;
nodes = (
(909,-12,o),
(939,-6,o),
(963,4,c),
(818,1366,l),
(804,1368,o),
(763,1372,o),
(724,1372,cs),
(696,1372,o),
(650,1370,o),
(633,1366,c),
(-41,9,l),
(-38,2,l),
(-21,-3,o),
(11,-6,o),
(44,-6,cs),
(71,-6,o),
(93,-4,o),
(107,-2,c),
(578,954,ls),
(613,1026,o),
(647,1102,o),
(690,1205,c),
(699,1205,l),
(705,1086,o),
(713,999,o),
(726,867,cs),
(805,79,ls),
(811,22,o),
(822,-12,o),
(883,-12,cs)
);
},
{
closed = 1;
nodes = (
(650,354,ls),
(671,354,o),
(765,356,o),
(789,356,cs),
(844,356,l),
(830,487,l),
(780,487,ls),
(757,487,o),
(680,489,o),
(659,489,cs),
(453,489,ls),
(433,489,o),
(359,487,o),
(337,487,cs),
(287,487,l),
(218,356,l),
(274,356,ls),
(296,356,o),
(388,354,o),
(410,354,cs)
);
}
);
width = 1110.05;
},
{
anchors = (
{
name = bottom;
pos = (536,0);
},
{
name = ogonek;
pos = (1151,21);
},
{
name = top;
pos = (821,1464);
}
);
layerId = "6BF21B58-DCB1-4E7D-A305-B9EC5092F295";
shapes = (
{
closed = 1;
nodes = (
(1016,-17,o),
(1082,-4,o),
(1128,16,c),
(997,1364,l),
(943,1373,o),
(858,1377,o),
(801,1377,cs),
(742,1377,o),
(659,1374,o),
(607,1366,c),
(-64,25,l),
(-55,7,l),
(-23,-6,o),
(38,-13,o),
(104,-13,cs),
(152,-13,o),
(199,-9,o),
(237,-2,c),
(562,681,ls),
(610,784,o),
(673,916,o),
(744,1080,c),
(756,1080,l),
(761,914,o),
(768,799,o),
(775,669,cs),
(802,175,ls),
(807,71,o),
(818,-17,o),
(956,-17,cs)
);
},
{
closed = 1;
nodes = (
(699,286,ls),
(729,286,o),
(772,288,o),
(802,288,cs),
(979,288,l),
(950,537,l),
(788,537,ls),
(759,537,o),
(718,538,o),
(688,538,cs),
(581,538,ls),
(554,538,o),
(517,537,o),
(489,537,cs),
(344,537,l),
(193,288,l),
(370,288,ls),
(399,288,o),
(441,286,o),
(470,286,cs)
);
}
);
width = 1250.12;
},
{
anchors = (
{
name = bottom;
pos = (460,0);
},
{
name = ogonek;
pos = (944,8);
},
{
name = top;
pos = (737,1464);
}
);
layerId = "62135F79-58D5-4DC2-8CB3-F8AE7229E95A";
shapes = (
{
closed = 1;
nodes = (
(901,-12,o),
(928,-6,o),
(950,3,c),
(805,1366,l),
(794,1368,o),
(756,1372,o),
(718,1372,cs),
(692,1372,o),
(649,1370,o),
(635,1366,c),
(-39,8,l),
(-37,2,l),
(-21,-3,o),
(9,-6,o),
(40,-6,cs),
(65,-6,o),
(85,-4,o),
(97,-2,c),
(579,975,ls),
(613,1044,o),
(645,1116,o),
(686,1214,c),
(695,1214,l),
(701,1099,o),
(709,1014,o),
(722,882,cs),
(805,72,ls),
(811,18,o),
(822,-12,o),
(878,-12,cs)
);
},
{
closed = 1;
nodes = (
(646,359,ls),
(667,359,o),
(765,361,o),
(788,361,cs),
(834,361,l),
(821,483,l),
(779,483,ls),
(757,483,o),
(677,485,o),
(657,485,cs),
(444,485,ls),
(424,485,o),
(347,483,o),
(326,483,cs),
(283,483,l),
(220,361,l),
(267,361,ls),
(288,361,o),
(384,359,o),
(405,359,cs)
);
}
);
width = 1099.585;
},
{
anchors = (
{
name = bottom;
pos = (530,0);
},
{
name = ogonek;
pos = (1134,20);
},
{
name = top;
pos = (814,1464);
}
);
layerId = "E595FEC6-42D0-4CBC-9ED1-F9D07DC361C2";
shapes = (
{
closed = 1;
nodes = (
(1006,-17,o),
(1069,-4,o),
(1113,15,c),
(981,1364,l),
(931,1373,o),
(850,1377,o),
(794,1377,cs),
(738,1377,o),
(658,1374,o),
(610,1366,c),
(-61,24,l),
(-54,7,l),
(-23,-6,o),
(36,-13,o),
(99,-13,cs),
(145,-13,o),
(189,-9,o),
(226,-2,c),
(563,705,ls),
(610,805,o),
(670,932,o),
(739,1091,c),
(751,1091,l),
(756,929,o),
(763,817,o),
(770,687,cs),
(802,167,ls),
(807,66,o),
(818,-17,o),
(950,-17,cs)
);
},
{
closed = 1;
nodes = (
(694,292,ls),
(724,292,o),
(772,294,o),
(801,294,cs),
(967,294,l),
(939,532,l),
(787,532,ls),
(759,532,o),
(714,533,o),
(686,533,cs),
(570,533,ls),
(543,533,o),
(503,532,o),
(476,532,cs),
(339,532,l),
(196,294,l),
(362,294,ls),
(390,294,o),
(436,292,o),
(465,292,cs)
);
}
);
width = 1237.723;
}
);
metricRight = "=|";
unicode = 65;
},
{
color = 5;
glyphname = B;
kernLeft = H;
kernRight = B;
lastChange = "2023-06-05 08:18:04 +0000";
layers = (
{
anchors = (
{
name = bottom;
pos = (437,0);
},
{
name = top;
pos = (690,1464);
}
);
layerId = "60A08B03-D3FB-4CD5-9797-EA57F0A37C3C";
shapes = (
{
closed = 1;
nodes = (
(818,-6,o),
(1000,187,o),
(1000,443,cs),
(1000,610,o),
(879,726,o),
(731,729,c),
(727,706,l),
(914,720,o),
(1056,882,o),
(1056,1079,cs),
(1056,1245,o),
(953,1371,o),
(689,1371,cs),
(594,1371,o),
(488,1368,o),
(360,1366,c),
(346,1354,l),
(85,12,l),
(94,0,l),
(206,-2,o),
(298,-6,o),
(474,-6,cs)
);
},
{
closed = 1;
nodes = (
(476,1246,l),
(530,1245,o),
(614,1245,o),
(664,1245,cs),
(849,1245,o),
(899,1163,o),
(899,1064,cs),
(899,918,o),
(801,783,o),
(596,783,cs),
(328,783,l),
(304,653,l),
(570,653,ls),
(765,653,o),
(841,568,o),
(841,438,cs),
(841,258,o),
(716,121,o),
(484,121,cs),
(407,121,o),
(333,121,o),
(257,120,c)
);
}
);
width = 1112.95;
},
{
anchors = (
{
name = bottom;
pos = (455,0);
},
{
name = top;
pos = (721,1464);
}
);
layerId = "6BF21B58-DCB1-4E7D-A305-B9EC5092F295";
shapes = (
{
closed = 1;
nodes = (
(883,-11,o),
(1087,176,o),
(1087,450,cs),
(1087,623,o),
(971,741,o),
(810,737,c),
(804,711,l),
(991,720,o),
(1147,871,o),
(1147,1067,cs),
(1147,1240,o),
(1035,1377,o),
(739,1377,cs),
(599,1377,o),
(443,1374,o),
(323,1370,c),
(307,1356,l),
(45,10,l),
(56,-4,l),
(159,-7,o),
(273,-11,o),
(533,-11,cs)
);
},
{
closed = 1;
nodes = (
(574,1152,l),
(614,1151,o),
(662,1151,o),
(697,1151,cs),
(799,1151,o),
(835,1093,o),
(835,1023,cs),
(835,919,o),
(771,830,o),
(641,830,cs),
(399,830,l),
(354,603,l),
(597,603,ls),
(731,603,o),
(771,530,o),
(771,444,cs),
(771,308,o),
(684,213,o),
(537,213,cs),
(482,213,o),
(437,213,o),
(392,212,c)
);
}
);
width = 1164.28;
},
{
anchors = (
{
name = bottom;
pos = (436,0);
},
{
name = top;
pos = (688,1464);
}
);
layerId = "62135F79-58D5-4DC2-8CB3-F8AE7229E95A";
shapes = (
{
closed = 1;
nodes = (
(813,-6,o),
(994,188,o),
(994,443,cs),
(994,609,o),
(872,725,o),
(725,728,c),
(721,706,l),
(908,720,o),
(1049,883,o),
(1049,1080,cs),
(1049,1245,o),
(947,1371,o),
(685,1371,cs),
(594,1371,o),
(492,1368,o),
(363,1366,c),
(349,1354,l),
(88,12,l),
(97,0,l),
(210,-2,o),
(300,-6,o),
(470,-6,cs)
);
},
{
closed = 1;
nodes = (
(468,1253,l),
(524,1252,o),
(610,1252,o),
(661,1252,cs),
(853,1252,o),
(904,1168,o),
(904,1067,cs),
(904,918,o),
(803,779,o),
(592,779,cs),
(323,779,l),
(300,657,l),
(568,657,ls),
(768,657,o),
(846,571,o),
(846,438,cs),
(846,254,o),
(718,114,o),
(480,114,cs),
(402,114,o),
(325,114,o),
(247,113,c)
);
}
);
width = 1109.115;
},
{
anchors = (
{
name = bottom;
pos = (454,0);
},
{
name = top;
pos = (719,1464);
}
);
layerId = "E595FEC6-42D0-4CBC-9ED1-F9D07DC361C2";
shapes = (
{
closed = 1;
nodes = (
(877,-11,o),
(1080,177,o),
(1080,450,cs),
(1080,622,o),
(962,740,o),
(803,736,c),
(797,711,l),
(984,720,o),
(1139,872,o),
(1139,1068,cs),
(1139,1240,o),
(1028,1377,o),
(734,1377,cs),
(599,1377,o),
(447,1374,o),
(327,1370,c),
(311,1356,l),
(49,10,l),
(60,-4,l),
(163,-7,o),
(276,-11,o),
(528,-11,cs)
);
},
{
closed = 1;
nodes = (
(565,1161,l),
(607,1160,o),
(658,1160,o),
(694,1160,cs),
(804,1160,o),
(841,1099,o),
(841,1027,cs),
(841,919,o),
(773,826,o),
(637,826,cs),
(393,826,l),
(349,608,l),
(595,608,ls),
(734,608,o),
(777,534,o),
(777,444,cs),
(777,303,o),
(686,204,o),
(532,204,cs),
(476,204,o),
(428,204,o),
(380,203,c)
);
}
);
width = 1159.737;
}
);
metricLeft = H;
unicode = 66;
},
{
color = 5;
glyphname = C;
kernLeft = C;
kernRight = C;
lastChange = "2023-06-05 08:18:04 +0000";
layers = (
{
anchors = (
{
name = bottom;
pos = (500,0);
},
{
name = top;
pos = (793,1466);
}
);
layerId = "60A08B03-D3FB-4CD5-9797-EA57F0A37C3C";
shapes = (
{
closed = 1;
nodes = (
(709,-24,o),
(878,57,o),
(973,158,c),
(965,196,o),
(931,244,o),
(890,267,c),
(795,175,o),
(664,112,o),
(544,112,cs),
(368,112,o),
(273,246,o),
(273,489,cs),
(273,818,o),
(446,1261,o),
(757,1261,cs),
(897,1261,o),
(978,1171,o),
(978,1015,cs),
(978,981,o),
(974,953,o),
(970,927,c),
(988,920,o),
(1011,915,o),
(1034,915,cs),
(1103,915,o),
(1132,968,o),
(1132,1064,cs),
(1132,1237,o),
(1004,1390,o),
(769,1390,cs),
(339,1390,o),
(113,880,o),
(113,478,cs),
(113,149,o),
(266,-24,o),
(530,-24,cs)
);
}
);
width = 1114.2;
},
{
anchors = (
{
name = bottom;
pos = (523,0);
},
{
name = top;
pos = (816,1466);
}
);
layerId = "6BF21B58-DCB1-4E7D-A305-B9EC5092F295";
shapes = (
{
closed = 1;
nodes = (
(764,-29,o),
(958,65,o),
(1052,182,c),
(1037,256,o),
(969,349,o),
(902,386,c),
(813,292,o),
(700,241,o),
(608,241,cs),
(476,241,o),
(409,342,o),
(409,513,cs),
(409,739,o),
(527,1143,o),
(752,1143,cs),
(843,1143,o),
(891,1079,o),
(891,954,cs),
(891,904,o),
(883,861,o),
(878,824,c),
(904,813,o),
(950,799,o),
(1002,799,cs),
(1140,799,o),
(1196,898,o),
(1196,1033,cs),
(1196,1249,o),
(1037,1395,o),
(784,1395,cs),
(297,1395,o),
(83,877,o),
(83,496,cs),
(83,105,o),
(309,-29,o),
(557,-29,cs)
);
}
);
width = 1152.48;
},
{
anchors = (
{
name = bottom;
pos = (498,0);
},
{
name = top;
pos = (791,1466);
}
);
layerId = "62135F79-58D5-4DC2-8CB3-F8AE7229E95A";
shapes = (
{
closed = 1;
nodes = (
(705,-24,o),
(872,56,o),
(967,156,c),
(960,192,o),
(928,236,o),
(889,258,c),
(794,166,o),
(661,103,o),
(539,103,cs),
(360,103,o),
(263,239,o),
(263,487,cs),
(263,824,o),
(440,1270,o),
(757,1270,cs),
(901,1270,o),
(985,1178,o),
(985,1020,cs),
(985,987,o),
(981,960,o),
(977,935,c),
(994,928,o),
(1015,924,o),
(1036,924,cs),
(1100,924,o),
(1127,973,o),
(1127,1066,cs),
(1127,1236,o),
(1001,1390,o),
(768,1390,cs),
(342,1390,o),
(115,880,o),
(115,477,cs),
(115,153,o),
(263,-24,o),
(528,-24,cs)
);
}
);
width = 1111.34;
},
{
anchors = (
{
name = bottom;
pos = (520,0);
},
{
name = top;
pos = (813,1466);
}
);
layerId = "E595FEC6-42D0-4CBC-9ED1-F9D07DC361C2";
shapes = (
{
closed = 1;
nodes = (
(759,-29,o),
(951,64,o),
(1045,179,c),
(1031,251,o),
(965,340,o),
(901,376,c),
(812,282,o),
(696,230,o),
(602,230,cs),
(466,230,o),
(397,334,o),
(397,510,cs),
(397,746,o),
(520,1153,o),
(752,1153,cs),
(848,1153,o),
(899,1088,o),
(899,959,cs),
(899,911,o),
(891,870,o),
(887,833,c),
(911,823,o),
(955,809,o),
(1004,809,cs),
(1136,809,o),
(1190,904,o),
(1190,1035,cs),
(1190,1248,o),
(1034,1395,o),
(783,1395,cs),
(301,1395,o),
(85,877,o),
(85,495,cs),
(85,109,o),
(306,-29,o),
(555,-29,cs)
);
}
);
width = 1149.092;
}
);
metricLeft = O;
unicode = 67;
},
{
color = 5;
glyphname = D;
kernLeft = H;
kernRight = D;
lastChange = "2023-06-05 08:18:04 +0000";
layers = (
{
anchors = (
{
name = bottom;
pos = (475,0);
},
{
name = top;
pos = (759,1464);
}
);
layerId = "60A08B03-D3FB-4CD5-9797-EA57F0A37C3C";
shapes = (
{
closed = 1;
nodes = (
(618,-8,o),
(754,31,o),
(882,148,cs),
(1042,294,o),
(1146,563,o),
(1146,877,cs),
(1146,1030,o),
(1112,1151,o),
(1035,1237,cs),
(959,1322,o),
(833,1371,o),
(633,1371,cs),
(528,1371,o),
(446,1370,o),
(360,1366,c),
(346,1354,l),
(86,12,l),
(95,0,l),
(223,-4,o),
(339,-8,o),
(403,-8,cs)
);
},
{
closed = 1;
nodes = (
(477,1244,l),
(519,1243,o),
(573,1243,o),
(615,1243,cs),
(906,1243,o),
(987,1113,o),
(987,868,cs),
(987,530,o),
(843,121,o),
(467,121,cs),
(391,121,o),
(305,123,o),
(258,123,c)
);
}
);
width = 1191;
},
{
anchors = (
{
name = bottom;
pos = (494,0);
},
{
name = top;
pos = (786,1464);
}
);
layerId = "6BF21B58-DCB1-4E7D-A305-B9EC5092F295";
shapes = (
{
closed = 1;
nodes = (
(660,-12,o),
(792,13,o),
(927,110,cs),
(1120,248,o),
(1249,557,o),
(1249,887,cs),
(1249,1057,o),
(1198,1186,o),
(1111,1266,cs),
(1032,1338,o),
(926,1377,o),
(711,1377,cs),
(626,1377,o),
(443,1375,o),
(322,1370,c),
(306,1356,l),
(45,10,l),
(57,-4,l),
(100,-5,o),
(360,-12,o),
(462,-12,cs)
);
},
{
closed = 1;
nodes = (
(575,1130,l),
(627,1129,o),
(674,1129,o),
(737,1129,cs),
(890,1129,o),
(926,1012,o),
(926,874,cs),
(926,579,o),
(806,237,o),
(563,237,cs),
(497,237,o),
(452,237,o),
(402,236,c)
);
}
);
width = 1260.6;
},
{
anchors = (
{
name = bottom;
pos = (474,0);
},
{
name = top;
pos = (757,1464);
}
);
layerId = "62135F79-58D5-4DC2-8CB3-F8AE7229E95A";
shapes = (
{
closed = 1;
nodes = (
(615,-8,o),
(751,32,o),
(878,151,cs),
(1036,298,o),
(1138,563,o),
(1138,876,cs),
(1138,1028,o),
(1106,1148,o),
(1030,1235,cs),
(954,1321,o),
(826,1371,o),
(627,1371,cs),
(520,1371,o),
(446,1370,o),
(363,1366,c),
(349,1354,l),
(89,12,l),
(98,0,l),
(232,-4,o),
(338,-8,o),
(399,-8,cs)
);
},
{
closed = 1;
nodes = (
(469,1253,l),
(511,1252,o),
(565,1252,o),
(606,1252,cs),
(907,1252,o),
(991,1121,o),
(991,868,cs),
(991,526,o),
(846,112,o),
(460,112,cs),
(383,112,o),
(294,114,o),
(247,114,c)
);
}
);
width = 1185.8;
},
{
anchors = (
{
name = bottom;
pos = (493,0);
},
{
name = top;
pos = (784,1464);
}
);
layerId = "E595FEC6-42D0-4CBC-9ED1-F9D07DC361C2";
shapes = (
{
closed = 1;
nodes = (
(656,-12,o),
(788,14,o),
(923,114,cs),
(1112,252,o),
(1240,557,o),
(1240,886,cs),
(1240,1055,o),
(1191,1183,o),
(1105,1264,cs),
(1026,1337,o),
(917,1377,o),
(704,1377,cs),
(617,1377,o),
(443,1375,o),
(326,1370,c),
(310,1356,l),
(49,10,l),
(61,-4,l),
(111,-5,o),
(359,-12,o),
(457,-12,cs)
);
},
{
closed = 1;
nodes = (
(566,1140,l),
(617,1139,o),
(665,1139,o),
(726,1139,cs),
(891,1139,o),
(931,1021,o),
(931,874,cs),
(931,574,o),
(810,227,o),
(555,227,cs),
(487,227,o),
(439,227,o),
(389,226,c)
);
}
);
width = 1254.44;
}
);
metricLeft = H;
unicode = 68;
},
{
color = 5;
glyphname = E;
kernLeft = E;
kernRight = E;
lastChange = "2023-06-05 08:18:04 +0000";
layers = (
{
anchors = (
{
name = bottom;
pos = (463,0);
},
{
name = ogonek;
pos = (736,0);
},
{
name = top;
pos = (726,1464);
}
);
layerId = "60A08B03-D3FB-4CD5-9797-EA57F0A37C3C";
shapes = (
{
closed = 1;
nodes = (
(229,0,l),
(255,130,ls),
(267,189,o),
(273,215,o),
(281,257,cs),
(444,1101,ls),
(453,1145,o),
(460,1194,o),
(470,1240,cs),
(494,1366,l),
(360,1366,l),
(346,1354,l),
(110,134,ls),
(105,110,o),
(102,93,o),
(102,79,cs),
(102,24,o),
(136,0,o),
(189,0,cs)
);
},
{
closed = 1;
nodes = (
(725,0,ls),
(816,0,o),
(852,17,o),
(864,133,c),
(414,133,ls),
(341,133,o),
(228,133,o),
(168,119,c),
(190,0,l)
);
},
{
closed = 1;
nodes = (
(832,626,l),
(852,667,o),
(861,715,o),
(860,757,c),
(485,757,ls),
(446,757,o),
(382,755,o),
(329,755,c),
(305,628,l),
(357,628,o),
(420,626,o),
(460,626,cs)
);
},
{
closed = 1;
nodes = (
(1040,1234,l),
(1061,1276,o),
(1069,1323,o),
(1069,1366,c),
(448,1366,l),
(421,1236,l),
(474,1234,o),
(538,1234,o),
(577,1234,cs)
);
}
);
width = 1026.15;
},
{
anchors = (
{
name = bottom;
pos = (509,0);
},
{
name = ogonek;
pos = (814,0);
},
{
name = top;
pos = (738,1464);
}
);
layerId = "6BF21B58-DCB1-4E7D-A305-B9EC5092F295";
shapes = (
{
closed = 1;
nodes = (
(351,-5,l),
(402,260,ls),
(413,316,o),
(423,355,o),
(433,408,cs),
(538,954,ls),
(548,1007,o),
(553,1047,o),
(565,1103,cs),
(619,1366,l),
(319,1366,l),
(302,1352,l),
(83,222,ls),
(78,198,o),
(71,153,o),
(71,130,cs),
(71,46,o),
(120,-5,o),
(226,-5,cs)
);
},
{
closed = 1;
nodes = (
(720,-5,ls),
(883,-5,o),
(943,55,o),
(964,262,c),
(552,262,ls),
(455,262,o),
(376,257,o),
(289,252,c),
(247,-5,l)
);
},
{
closed = 1;
nodes = (
(873,556,l),
(910,640,o),
(928,749,o),
(924,817,c),
(645,817,ls),
(596,817,o),
(464,815,o),
(400,813,c),
(352,560,l),
(414,558,o),
(546,556,o),
(595,556,cs)
);
},
{
closed = 1;
nodes = (
(1083,1098,l),
(1120,1185,o),
(1139,1295,o),
(1134,1366,c),
(511,1366,l),
(457,1102,l),
(520,1100,o),
(652,1098,o),
(701,1098,cs)
);
}
);
width = 1080.96;
},
{
anchors = (
{
name = bottom;
pos = (459,0);
},
{
name = ogonek;
pos = (730,0);
},
{
name = top;
pos = (725,1464);
}
);
layerId = "62135F79-58D5-4DC2-8CB3-F8AE7229E95A";
shapes = (
{
closed = 1;
nodes = (
(220,0,l),
(244,121,ls),
(256,180,o),
(262,205,o),
(270,246,cs),
(437,1112,ls),
(446,1155,o),
(453,1205,o),
(463,1250,cs),
(485,1366,l),
(363,1366,l),
(349,1354,l),
(112,127,ls),
(107,103,o),
(104,88,o),
(104,75,cs),
(104,22,o),
(137,0,o),
(186,0,cs)
);
},
{
closed = 1;
nodes = (
(725,0,ls),
(811,0,o),
(845,14,o),
(856,124,c),
(404,124,ls),
(332,124,o),
(217,124,o),
(159,109,c),
(186,0,l)
);
},
{
closed = 1;
nodes = (
(829,631,l),
(848,669,o),
(856,712,o),
(855,753,c),
(473,753,ls),
(435,753,o),
(376,751,o),
(324,751,c),
(301,633,l),
(353,633,o),
(411,631,o),
(450,631,cs)
);
},
{
closed = 1;
nodes = (
(1037,1244,l),
(1057,1283,o),
(1064,1325,o),
(1064.009,1366,c),
(443,1366,l),
(418,1246,l),
(470,1244,o),
(529,1244,o),
(568,1244,cs)
);
}
);
width = 1022.055;
},
{
anchors = (
{
name = bottom;
pos = (505,0);
},
{
name = ogonek;
pos = (807,0);
},
{
name = top;
pos = (737,1464);
}
);
layerId = "E595FEC6-42D0-4CBC-9ED1-F9D07DC361C2";
shapes = (
{
closed = 1;
nodes = (
(340,-5,l),
(389,249,ls),
(400,305,o),
(410,343,o),
(420,395,cs),
(529,967,ls),
(539,1019,o),
(544,1060,o),
(557,1115,cs),
(608,1366,l),
(323,1366,l),
(306,1352,l),
(86,214,ls),
(81,190,o),
(73,148,o),
(73,125,cs),
(73,43,o),
(121,-5,o),
(222,-5,cs)
);
},
{
closed = 1;
nodes = (
(720,-5,ls),
(877,-5,o),
(935,51,o),
(955,251,c),
(540,251,ls),
(445,251,o),
(363,246,o),
(278,240,c),
(242,-5,l)
);
},
{
closed = 1;
nodes = (
(869,562,l),
(905,643,o),
(922,746,o),
(918,812,c),
(631,812,ls),
(583,812,o),
(457,810,o),
(394,808,c),
(348,566,l),
(409,564,o),
(535,562,o),
(583,562,cs)
);
},
{
closed = 1;
nodes = (
(1079,1110,l),
(1115,1193,o),
(1133,1297,o),
(1128,1366,c),
(505,1366,l),
(453,1114,l),
(516,1112,o),
(642,1110,o),
(690,1110,cs)
);
}
);
width = 1076.109;
}
);
unicode = 69;
},
{
color = 5;
glyphname = F;
kernLeft = H;
kernRight = F;
lastChange = "2023-06-05 08:18:04 +0000";
layers = (
{
anchors = (
{
name = top;
pos = (742,1464);
}
);
layerId = "60A08B03-D3FB-4CD5-9797-EA57F0A37C3C";
shapes = (
{
closed = 1;
nodes = (
(185,-6,o),
(213,-4,o),
(234,0,c),
(420,957,ls),
(439,1056,o),
(456,1157,o),
(475,1255,cs),
(497,1366,l),
(359,1366,l),
(346,1354,l),
(83,0,l),
(104,-4,o),
(133,-6,o),
(159,-6,cs)
);
},
{
closed = 1;
nodes = (
(827,625,l),
(847,667,o),
(855,716,o),
(852,756,c),
(479,756,ls),
(439,756,o),
(379,754,o),
(328,754,c),
(302,627,l),
(353,627,o),
(414,625,o),
(454,625,cs)
);
},
{
closed = 1;
nodes = (
(959,1232,ls),
(1040,1232,o),
(1062,1282,o),
(1066,1366,c),
(446,1366,l),
(421,1240,l),
(491,1233,o),
(584,1232,o),
(668,1232,cs)
);
}
);
width = 941.75;
},
{
anchors = (
{
name = top;
pos = (763,1464);
}
);
layerId = "6BF21B58-DCB1-4E7D-A305-B9EC5092F295";
shapes = (
{
closed = 1;
nodes = (
(245,-11,o),
(302,-9,o),
(358,0,c),
(540,938,ls),
(564,1059,o),
(585,1175,o),
(601,1271,cs),
(618,1366,l),
(321,1366,l),
(306,1354,l),
(43,0,l),
(95,-9,o),
(159,-11,o),
(202,-11,cs)
);
},
{
closed = 1;
nodes = (
(862,539,l),
(898,623,o),
(916,731,o),
(912,799,c),
(550,799,ls),
(493,799,o),
(428,797,o),
(389,795,c),
(340,543,l),
(379,541,o),
(442,539,o),
(498,539,cs)
);
},
{
closed = 1;
nodes = (
(927,1095,ls),
(1078,1095,o),
(1122,1173,o),
(1138,1366,c),
(489,1366,l),
(437,1097,l),
(526,1097,o),
(611,1095,o),
(708,1095,cs)
);
}
);
width = 1007;
},
{
anchors = (
{
name = top;
pos = (741,1464);
}
);
layerId = "62135F79-58D5-4DC2-8CB3-F8AE7229E95A";
shapes = (
{
closed = 1;
nodes = (
(181,-6,o),
(206,-4,o),
(225,0,c),
(411,958,ls),
(430,1056,o),
(447,1156,o),
(466,1254,cs),
(488,1366,l),
(362,1366,l),
(349,1354,l),
(86,0,l),
(104,-4,o),
(131,-6,o),
(156,-6,cs)
);
},
{
closed = 1;
nodes = (
(824,631,l),
(843,670,o),
(850,715,o),
(848,753,c),
(474,753,ls),
(435,753,o),
(375,751,o),
(323,751,c),
(299,633,l),
(351,633,o),
(412,631,o),
(450,631,cs)
);
},
{
closed = 1;
nodes = (
(961,1242,ls),
(1037,1242,o),
(1058,1290,o),
(1061,1366,c),
(443,1366,l),
(420,1251,l),
(488,1243,o),
(582,1242,o),
(665,1242,cs)
);
}
);
width = 936.875;
},
{
anchors = (
{
name = top;
pos = (762,1464);
}
);
layerId = "E595FEC6-42D0-4CBC-9ED1-F9D07DC361C2";
shapes = (
{
closed = 1;
nodes = (
(240,-11,o),
(294,-9,o),
(347,0,c),
(529,939,ls),
(553,1059,o),
(574,1174,o),
(590,1270,cs),
(607,1366,l),
(325,1366,l),
(310,1354,l),
(47,0,l),
(96,-9,o),
(156,-11,o),
(198,-11,cs)
);
},
{
closed = 1;
nodes = (
(859,546,l),
(893,627,o),
(911,730,o),
(907,795,c),
(544,795,ls),
(488,795,o),
(423,793,o),
(384,791,c),
(336,550,l),
(376,548,o),
(440,546,o),
(494,546,cs)
);
},
{
closed = 1;
nodes = (
(929,1107,ls),
(1074,1107,o),
(1117,1183,o),
(1132,1366,c),
(486,1366,l),
(436,1110,l),
(523,1109,o),
(609,1107,o),
(704,1107,cs)
);
}
);
width = 1001.225;
}
);
metricLeft = H;
unicode = 70;
},
{
color = 5;
glyphname = G;
kernLeft = C;
kernRight = G;
lastChange = "2023-06-05 08:18:04 +0000";
layers = (
{
anchors = (
{
name = bottom;
pos = (503,-2);
},
{
name = top;
pos = (796,1464);
}
);
layerId = "60A08B03-D3FB-4CD5-9797-EA57F0A37C3C";
shapes = (
{
closed = 1;
nodes = (
(724,-24,o),
(859,5,o),
(981,59,c),
(921,182,l),
(846,139,o),
(729,109,o),
(623,109,cs),
(397,109,o),
(276,241,o),
(276,505,cs),
(276,843,o),
(465,1253,o),
(814,1253,cs),
(933,1253,o),
(1034,1205,o),
(1104,1136,c),
(1150,1155,o),
(1192,1202,o),
(1200,1252,c),
(1114,1342,o),
(975,1391,o),
(826,1391,cs),
(362,1391,o),
(116,918,o),
(116,492,cs),
(116,157,o),
(281,-24,o),
(598,-24,cs)
);
},
{
closed = 1;
nodes = (
(981,59,l),
(1076,544,ls),
(1081,571,o),
(1086,595,o),
(1086,617,cs),
(1086,667,o),
(1058,695,o),
(994,695,cs),
(664,695,l),
(652,673,o),
(641,644,o),
(641,615,cs),
(641,580,o),
(661,558,o),
(703,558,cs),
(980,558,l),
(951,600,l),
(929,542,o),
(919,490,o),
(909,438,cs),
(834,59,l)
);
}
);
width = 1201.45;
},
{
anchors = (
{
name = bottom;
pos = (530,-37);
},
{
name = top;
pos = (832,1464);
}
);
layerId = "6BF21B58-DCB1-4E7D-A305-B9EC5092F295";
shapes = (
{
closed = 1;
nodes = (
(773,-29,o),
(946,11,o),
(1059,59,c),
(894,278,l),
(819,241,o),
(745,217,o),
(676,217,cs),
(493,217,o),
(411,312,o),
(411,521,cs),
(411,768,o),
(526,1139,o),
(817,1139,cs),
(923,1139,o),
(1017,1091,o),
(1086,1021,c),
(1166,1058,o),
(1248,1149,o),
(1269,1233,c),
(1173,1337,o),
(1007,1401,o),
(827,1401,cs),
(324,1401,o),
(86,926,o),
(86,505,cs),
(86,148,o),
(265,-29,o),
(625,-29,cs)
);
},
{
closed = 1;
nodes = (
(1059,59,l),
(1147,510,ls),
(1155,555,o),
(1162,607,o),
(1162,633,cs),
(1162,737,o),
(1104,785,o),
(985,785,cs),
(691,785,l),
(659,735,o),
(638,671,o),
(638,620,cs),
(638,548,o),
(679,514,o),
(756,514,cs),
(923,514,l),
(883,591,l),
(852,498,o),
(844,454,o),
(833,397,cs),
(767,59,l)
);
}
);
width = 1244.08;
},
{
anchors = (
{
name = bottom;
pos = (501,1);
},
{
name = top;
pos = (793,1464);
}
);
layerId = "62135F79-58D5-4DC2-8CB3-F8AE7229E95A";
shapes = (
{
closed = 1;
nodes = (
(720,-24,o),
(853,5,o),
(975,59,c),
(923,175,l),
(848,131,o),
(728,101,o),
(619,101,cs),
(390,101,o),
(266,236,o),
(266,504,cs),
(266,848,o),
(460,1262,o),
(814,1262,cs),
(934,1262,o),
(1035,1214,o),
(1105,1145,c),
(1149,1162,o),
(1188,1206,o),
(1195,1253,c),
(1110,1342,o),
(973,1390,o),
(826,1390,cs),
(365,1390,o),
(118,918,o),
(118,491,cs),
(118,157,o),
(282,-24,o),
(596,-24,cs)
);
},
{
closed = 1;
nodes = (
(975,59,l),
(1071,547,ls),
(1076,572,o),
(1081,594,o),
(1081,616,cs),
(1081,662,o),
(1054,688,o),
(994,688,cs),
(662,688,l),
(652,668,o),
(641,642,o),
(641,615,cs),
(641,582,o),
(660,561,o),
(699,561,cs),
(984,561,l),
(956,600,l),
(935,546,o),
(924,493,o),
(914,441,cs),
(839,59,l)
);
}
);
width = 1198.265;
},
{
anchors = (
{
name = bottom;
pos = (528,-34);
},
{
name = top;
pos = (828,1464);
}
);
layerId = "E595FEC6-42D0-4CBC-9ED1-F9D07DC361C2";
shapes = (
{
closed = 1;
nodes = (
(768,-29,o),
(939,11,o),
(1052,59,c),
(896,270,l),
(821,232,o),
(744,207,o),
(671,207,cs),
(485,207,o),
(399,306,o),
(399,520,cs),
(399,774,o),
(521,1149,o),
(817,1149,cs),
(924,1149,o),
(1018,1101,o),
(1087,1031,c),
(1165,1066,o),
(1243,1154,o),
(1263,1234,c),
(1168,1337,o),
(1005,1400,o),
(827,1400,cs),
(328,1400,o),
(88,925,o),
(88,504,cs),
(88,149,o),
(266,-29,o),
(623,-29,cs)
);
},
{
closed = 1;
nodes = (
(1052,59,l),
(1141,513,ls),
(1149,556,o),
(1156,606,o),
(1156,632,cs),
(1156,731,o),
(1100,777,o),
(986,777,cs),
(689,777,l),
(659,730,o),
(638,669,o),
(638,620,cs),
(638,550,o),
(678,518,o),
(751,518,cs),
(928,518,l),
(889,592,l),
(859,502,o),
(850,458,o),
(839,401,cs),
(773,59,l)
);
}
);
width = 1240.307;
}
);
metricLeft = O;
unicode = 71;
},
{
color = 5;
glyphname = H;
kernLeft = H;
kernRight = H;
lastChange = "2023-06-05 08:18:04 +0000";
layers = (
{
anchors = (
{
name = bottom;
pos = (530,0);
},
{
name = top;
pos = (813,1464);
}
);
layerId = "60A08B03-D3FB-4CD5-9797-EA57F0A37C3C";
shapes = (
{
closed = 1;
nodes = (
(834,638,l),
(847,638,o),
(928,640,o),
(947,640,cs),
(969,640,o),
(999,638,o),
(1025,638,c),
(1051,774,l),
(1025,774,o),
(993,772,o),
(972,772,cs),
(952,772,o),
(874,774,o),
(861,774,cs),
(491,774,ls),
(478,774,o),
(397,772,o),
(378,772,cs),
(358,772,o),
(325,774,o),
(300,774,c),
(273,638,l),
(298,638,o),
(333,640,o),
(354,640,cs),
(372,640,o),
(452,638,o),
(465,638,cs)
);
},
{
closed = 1;
nodes = (
(329,490,ls),
(340,546,o),
(346,592,o),
(356,640,cs),
(383,772,ls),
(394,826,o),
(402,864,o),
(413,920,cs),
(499,1366,l),
(478,1370,o),
(449,1372,o),
(424,1372,cs),
(397,1372,o),
(369,1370,o),
(348,1366,c),
(83,0,l),
(103,-4,o),
(134,-6,o),
(159,-6,cs),
(185,-6,o),
(213,-4,o),
(234,0,c)
);
},
{
closed = 1;
nodes = (
(818,0,l),
(839,-4,o),
(868,-6,o),
(895,-6,cs),
(921,-6,o),
(949,-4,o),
(970,0,c),
(1235,1366,l),
(1214,1370,o),
(1184,1372,o),
(1159,1372,cs),
(1132,1372,o),
(1104,1370,o),
(1083,1366,c),
(997,920,ls),
(986,864,o),
(981,826,o),
(970,772,cs),
(944,640,ls),
(916,502,o),
(923,534,o),
(914,489,cs)
);
}
);
width = 1242.7;
},
{
anchors = (
{
name = bottom;
pos = (626,0);
},
{
name = top;
pos = (910,1466);
}
);
layerId = "6BF21B58-DCB1-4E7D-A305-B9EC5092F295";
shapes = (
{
closed = 1;
nodes = (
(769,570,ls),
(798,570,o),
(839,572,o),
(868,572,cs),
(931,572,o),
(997,570,o),
(1060,570,c),
(1111,838,l),
(1049,838,o),
(982,836,o),
(920,836,cs),
(891,836,o),
(849,838,o),
(821,838,cs),
(617,838,ls),
(589,838,o),
(547,836,o),
(518,836,cs),
(456,836,o),
(389,838,o),
(327,838,c),
(275,570,l),
(337,570,o),
(404,572,o),
(467,572,cs),
(496,572,o),
(537,570,o),
(566,570,cs)
);
},
{
closed = 1;
nodes = (
(440,424,ls),
(451,480,o),
(456,519,o),
(467,572,cs),
(519,836,ls),
(530,890,o),
(538,928,o),
(549,984,cs),
(623,1366,l),
(572,1375,o),
(509,1377,o),
(468,1377,cs),
(431,1377,o),
(360,1375,o),
(308,1366,c),
(44,0,l),
(92,-9,o),
(161,-11,o),
(198,-11,cs),
(240,-11,o),
(305,-9,o),
(359,0,c)
);
},
{
closed = 1;
nodes = (
(756,0,l),
(808,-9,o),
(871,-11,o),
(914,-11,cs),
(958,-11,o),
(1015,-9,o),
(1071,0,c),
(1335,1366,l),
(1286,1375,o),
(1218,1377,o),
(1180,1377,cs),
(1139,1377,o),
(1074,1375,o),
(1020,1366,c),
(946,984,ls),
(935,928,o),
(931,890,o),
(920,836,cs),
(868,572,ls),
(856,511,o),
(848,479,o),
(837,424,cs)
);
}
);
width = 1307.08;
},
{
anchors = (
{
name = bottom;
pos = (523,0);
},
{
name = top;
pos = (806,1464);
}
);
layerId = "62135F79-58D5-4DC2-8CB3-F8AE7229E95A";
shapes = (
{
closed = 1;
nodes = (
(839,643,l),
(851,643,o),
(935,645,o),
(953,645,cs),
(972,645,o),
(999,643,o),
(1022,643,c),
(1047,769,l),
(1023,769,o),
(994,767,o),
(976,767,cs),
(957,767,o),
(876,769,o),
(864,769,cs),
(482,769,ls),
(470,769,o),
(386,767,o),
(368,767,cs),
(350,767,o),
(320,769,o),
(298,769,c),
(273,643,l),
(295,643,o),
(328,645,o),
(345,645,cs),
(363,645,o),
(446,643,o),
(457,643,cs)
);
},
{
closed = 1;
nodes = (
(321,495,ls),
(332,551,o),
(338,597,o),
(348,645,cs),
(373,767,ls),
(384,821,o),
(392,859,o),
(403,915,cs),
(490,1366,l),
(471,1370,o),
(444,1372,o),
(420,1372,cs),
(394,1372,o),
(369,1370,o),
(351,1366,c),
(86,0,l),
(104,-4,o),
(132,-6,o),
(156,-6,cs),
(181,-6,o),
(206,-4,o),
(225,0,c)
);
},
{
closed = 1;
nodes = (
(823,0,l),
(841,-4,o),
(868,-6,o),
(894,-6,cs),
(918,-6,o),
(944,-4,o),
(962,0,c),
(1227,1366,l),
(1209,1370,o),
(1181,1372,o),
(1158,1372,cs),
(1132,1372,o),
(1106,1370,o),
(1088,1366,c),
(1001,915,ls),
(990,859,o),
(985,821,o),
(974,767,cs),
(949,645,ls),
(920,501,o),
(928,538,o),
(920,494,cs)
);
}
);
width = 1237.89;
},
{
anchors = (
{
name = bottom;
pos = (618,0);
},
{
name = top;
pos = (902,1466);
}
);
layerId = "E595FEC6-42D0-4CBC-9ED1-F9D07DC361C2";
shapes = (
{
closed = 1;
nodes = (
(775,576,l),
(803,576,o),
(847,578,o),
(875,578,cs),
(935,578,o),
(997,576,o),
(1057,576,c),
(1106,832,l),
(1046,832,o),
(983,830,o),
(925,830,cs),
(896,830,o),
(852,832,o),
(825,832,cs),
(606,832,ls),
(579,832,o),
(534,830,o),
(506,830,cs),
(447,830,o),
(383,832,o),
(325,832,c),
(275,576,l),
(333,576,o),
(398,578,o),
(457,578,cs),
(485,578,o),
(530,576,o),
(557,576,cs)
);
},
{
closed = 1;
nodes = (
(430,430,ls),
(441,486,o),
(446,525,o),
(457,578,cs),
(507,830,ls),
(518,884,o),
(526,922,o),
(537,978,cs),
(612,1366,l),
(563,1375,o),
(504,1377,o),
(464,1377,cs),
(428,1377,o),
(361,1375,o),
(312,1366,c),
(48,0,l),
(93,-9,o),
(159,-11,o),
(194,-11,cs),
(235,-11,o),
(296,-9,o),
(348,0,c)
);
},
{
closed = 1;
nodes = (
(761,0,l),
(810,-9,o),
(871,-11,o),
(913,-11,cs),
(954,-11,o),
(1009,-9,o),
(1062,0,c),
(1326,1366,l),
(1280,1375,o),
(1215,1377,o),
(1179,1377,cs),
(1139,1377,o),
(1076,1375,o),
(1026,1366,c),
(951,978,ls),
(940,922,o),
(936,884,o),
(925,830,cs),
(874,578,ls),
(861,510,o),
(854,484,o),
(844,430,cs)
);
}
);
width = 1301.382;
}
);
metricRight = "=|";
unicode = 72;
},
{
color = 5;
glyphname = I;
kernLeft = H;
kernRight = H;
lastChange = "2023-06-05 08:18:04 +0000";
layers = (
{
anchors = (
{
name = bottom;
pos = (161,0);
},
{
name = ogonek;
pos = (238,0);
},
{
name = top;
pos = (448,1464);
}
);
layerId = "60A08B03-D3FB-4CD5-9797-EA57F0A37C3C";
shapes = (
{
closed = 1;
nodes = (
(87,0,l),
(107,-4,o),
(138,-6,o),
(163,-6,cs),
(189,-6,o),
(217,-4,o),
(238,0,c),
(503,1366,l),
(483,1370,o),
(452,1372,o),
(427,1372,cs),
(400,1372,o),
(373,1370,o),
(352,1366,c)
);
}
);
width = 515.25;
},
{
anchors = (
{
name = bottom;
pos = (207,0);
},
{
name = ogonek;
pos = (364,0);
},
{
name = top;
pos = (492,1466);
}
);
layerId = "6BF21B58-DCB1-4E7D-A305-B9EC5092F295";
shapes = (
{
closed = 1;
nodes = (
(49,0,l),
(98,-9,o),
(166,-11,o),
(204,-11,cs),
(245,-11,o),
(310,-9,o),
(364,0,c),
(628,1366,l),
(578,1375,o),
(515,1377,o),
(474,1377,cs),
(437,1377,o),
(366,1375,o),
(314,1366,c)
);
}
);
width = 606.6;
},
{
anchors = (
{
name = bottom;
pos = (157,0);
},
{
name = ogonek;
pos = (229,0);
},
{
name = top;
pos = (444,1464);
}
);
layerId = "62135F79-58D5-4DC2-8CB3-F8AE7229E95A";
shapes = (
{
closed = 1;
nodes = (
(90,0,l),
(108,-4,o),
(136,-6,o),
(160,-6,cs),
(185,-6,o),
(210,-4,o),
(229,0,c),
(494,1366,l),
(476,1370,o),
(447,1372,o),
(423,1372,cs),
(397,1372,o),
(373,1370,o),
(355,1366,c)
);
}
);
width = 508.425;
},
{
anchors = (
{
name = bottom;
pos = (203,0);
},
{
name = ogonek;
pos = (353,0);
},
{
name = top;
pos = (488,1466);
}
);
layerId = "E595FEC6-42D0-4CBC-9ED1-F9D07DC361C2";
shapes = (
{
closed = 1;
nodes = (
(53,0,l),
(99,-9,o),
(164,-11,o),
(200,-11,cs),
(240,-11,o),
(301,-9,o),
(353,0,c),
(617,1366,l),
(570,1375,o),
(509,1377,o),
(470,1377,cs),
(433,1377,o),
(366,1375,o),
(318,1366,c)
);
}
);
width = 598.515;
}
);
metricRight = "=|";
unicode = 73;
},
{
color = 5;
glyphname = J;
kernLeft = J;
kernRight = U;
lastChange = "2023-06-05 08:18:04 +0000";
layers = (
{
anchors = (
{
name = top;
pos = (775,1464);
}
);
layerId = "60A08B03-D3FB-4CD5-9797-EA57F0A37C3C";
shapes = (
{
closed = 1;
nodes = (
(-23,149,o),
(-51,106,o),
(-63,58,c),
(-3,15,o),
(93,-20,o),
(205,-20,cs),
(548,-20,o),
(624,268,o),
(662,464,cs),
(837,1366,l),
(816,1370,o),
(787,1372,o),
(761,1372,cs),
(735,1372,o),
(707,1370,o),
(686,1366,c),
(514,482,ls),
(487,344,o),
(433,114,o),
(211,114,cs),
(128,114,o),
(58,145,o),
(13,177,c)
);
}
);
width = 830.85;
},
{
anchors = (
{
name = top;
pos = (859,1464);
}
);
layerId = "6BF21B58-DCB1-4E7D-A305-B9EC5092F295";
shapes = (
{
closed = 1;
nodes = (
(15,240,o),
(-35,137,o),
(-49,56,c),
(29,5,o),
(136,-20,o),
(250,-20,cs),
(676,-20,o),
(757,326,o),
(796,528,cs),
(958,1366,l),
(909,1375,o),
(837,1377,o),
(799,1377,cs),
(757,1377,o),
(698,1375,o),
(643,1366,c),
(480,523,ls),
(459,411,o),
(420,245,o),
(241,245,cs),
(182,245,o),
(120,265,o),
(73,294,c)
);
}
);
width = 915.24;
},
{
anchors = (
{
name = top;
pos = (769,1464);
}
);
layerId = "62135F79-58D5-4DC2-8CB3-F8AE7229E95A";
shapes = (
{
closed = 1;
nodes = (
(-26,142,o),
(-52,104,o),
(-64,58,c),
(-5,16,o),
(90,-20,o),
(201,-20,cs),
(539,-20,o),
(614,264,o),
(652,459,cs),
(828,1366,l),
(809,1370,o),
(783,1372,o),
(758,1372,cs),
(733,1372,o),
(707,1370,o),
(689,1366,c),
(517,479,ls),
(489,339,o),
(434,104,o),
(209,104,cs),
(124,104,o),
(53,136,o),
(8,168,c)
);
}
);
width = 824.545;
},
{
anchors = (
{
name = top;
pos = (852,1464);
}
);
layerId = "E595FEC6-42D0-4CBC-9ED1-F9D07DC361C2";
shapes = (
{
closed = 1;
nodes = (
(11,232,o),
(-36,135,o),
(-50,56,c),
(27,6,o),
(132,-20,o),
(246,-20,cs),
(665,-20,o),
(745,321,o),
(784,522,cs),
(947,1366,l),
(900,1375,o),
(832,1377,o),
(795,1377,cs),
(754,1377,o),
(699,1375,o),
(647,1366,c),
(483,519,ls),
(461,405,o),
(421,234,o),
(239,234,cs),
(177,234,o),
(115,254,o),
(68,284,c)
);
}
);
width = 907.771;
}
);
unicode = 74;
},
{
color = 5;
glyphname = K;
kernLeft = H;
kernRight = K;
lastChange = "2023-06-05 08:18:04 +0000";
layers = (
{
anchors = (
{
name = bottom;
pos = (469,0);
},
{
name = top;
pos = (747,1464);
}
);
layerId = "60A08B03-D3FB-4CD5-9797-EA57F0A37C3C";
shapes = (
{
closed = 1;
nodes = (
(901,-14,o),
(946,9,o),
(968,40,c),
(931,74,o),
(916,111,o),
(903,190,cs),
(854,484,ls),
(819,691,o),
(721,743,o),
(531,741,cs),
(293,737,l),
(272,631,l),
(337,632,o),
(419,635,o),
(479,636,cs),
(675,639,o),
(691,541,o),
(709,432,cs),
(763,105,ls),
(770,58,o),
(780,-14,o),
(856,-14,cs)
);
},
{
closed = 1;
nodes = (
(185,-6,o),
(213,-4,o),
(234,0,c),
(499,1366,l),
(479,1370,o),
(448,1372,o),
(424,1372,cs),
(397,1372,o),
(369,1370,o),
(348,1366,c),
(83,0,l),
(103,-4,o),
(134,-6,o),
(159,-6,cs)
);
},
{
closed = 1;
nodes = (
(524,692,ls),
(649,694,o),
(703,722,o),
(760,800,cs),
(1160,1350,l),
(1151,1366,l),
(1120,1368,o),
(1084,1370,o),
(1063,1370,cs),
(996,1370,o),
(976,1347,o),
(939,1296,cs),
(604,834,ls),
(568,786,o),
(562,774,o),
(500,772,cs),
(426,769,o),
(365,768,o),
(304,766,c),
(287,688,l)
);
}
);
width = 1088.7;
},
{
anchors = (
{
name = bottom;
pos = (543,0);
},
{
name = top;
pos = (819,1464);
}
);
layerId = "6BF21B58-DCB1-4E7D-A305-B9EC5092F295";
shapes = (
{
closed = 1;
nodes = (
(971,-22,o),
(1062,14,o),
(1103,68,c),
(1050,123,o),
(1036,180,o),
(1023,262,cs),
(987,491,ls),
(957,678,o),
(868,751,o),
(690,749,cs),
(342,745,l),
(309,566,l),
(397,568,o),
(477,574,o),
(529,574,cs),
(628,574,o),
(665,532,o),
(683,412,cs),
(723,151,ls),
(732,83,o),
(751,-22,o),
(887,-22,cs)
);
},
{
closed = 1;
nodes = (
(239,-11,o),
(304,-9,o),
(358,0,c),
(623,1366,l),
(574,1375,o),
(506,1377,o),
(468,1377,cs),
(427,1377,o),
(362,1375,o),
(308,1366,c),
(43,0,l),
(91,-9,o),
(160,-11,o),
(197,-11,cs)
);
},
{
closed = 1;
nodes = (
(687,703,ls),
(861,705,o),
(926,796,o),
(977,873,cs),
(1289,1344,l),
(1276,1368,l),
(1216,1373,o),
(1140,1377,o),
(1081,1377,cs),
(973,1377,o),
(941,1339,o),
(895,1267,cs),
(665,909,ls),
(627,848,o),
(611,843,o),
(557,840,cs),
(492,836,o),
(430,833,o),
(364,832,c),
(337,699,l)
);
}
);
width = 1187.88;
},
{
anchors = (
{
name = bottom;
pos = (464,0);
},
{
name = top;
pos = (742,1464);
}
);
layerId = "62135F79-58D5-4DC2-8CB3-F8AE7229E95A";
shapes = (
{
closed = 1;
nodes = (
(896,-14,o),
(937,9,o),
(958,38,c),
(922,70,o),
(907,106,o),
(894,185,cs),
(844,484,ls),
(809,692,o),
(710,743,o),
(519,740,cs),
(289,736,l),
(269,636,l),
(333,637,o),
(415,640,o),
(475,641,cs),
(679,644,o),
(693,541,o),
(711,433,cs),
(766,101,ls),
(773,56,o),
(782,-14,o),
(854,-14,cs)
);
},
{
closed = 1;
nodes = (
(181,-6,o),
(206,-4,o),
(225,0,c),
(490,1366,l),
(472,1370,o),
(444,1372,o),
(420,1372,cs),
(395,1372,o),
(369,1370,o),
(351,1366,c),
(86,0,l),
(104,-4,o),
(132,-6,o),
(156,-6,cs)
);
},
{
closed = 1;
nodes = (
(512.009,690.991,ls),
(633,693,o),
(686,717,o),
(744,795,cs),
(1151,1350,l),
(1142,1366,l),
(1113,1368,o),
(1080,1370,o),
(1062,1370,cs),
(998,1370,o),
(979,1347,o),
(943,1298,cs),
(599,829,ls),
(564,781,o),
(558,769,o),
(496,767,cs),
(421,764,o),
(360.009,763.009,o),
(299,761,c),
(283,687,l)
);
}
);
width = 1081.29;
},
{
anchors = (
{
name = bottom;
pos = (537,0);
},
{
name = top;
pos = (813,1464);
}
);
layerId = "E595FEC6-42D0-4CBC-9ED1-F9D07DC361C2";
shapes = (
{
closed = 1;
nodes = (
(965,-21,o),
(1052,14,o),
(1091,66,c),
(1040,118,o),
(1025,174,o),
(1012,256,cs),
(975,491,ls),
(945,679,o),
(855,750,o),
(676,748,cs),
(337,744,l),
(305,572,l),
(392,574,o),
(472,579,o),
(524,579,cs),
(632,580,o),
(668,533,o),
(686,413,cs),
(727,147,ls),
(736,80,o),
(753,-21,o),
(885,-21,cs)
);
},
{
closed = 1;
nodes = (
(234,-11,o),
(296,-9,o),
(347,0,c),
(612,1366,l),
(566,1375,o),
(501,1377,o),
(464,1377,cs),
(425,1377,o),
(362,1375,o),
(312,1366,c),
(47,0,l),
(92,-9,o),
(158,-11,o),
(193,-11,cs)
);
},
{
closed = 1;
nodes = (
(672,702,ls),
(842,704,o),
(906,790,o),
(958,867,cs),
(1278,1344,l),
(1265,1368,l),
(1208,1373,o),
(1135,1377,o),
(1080,1377,cs),
(976,1377,o),
(944,1340,o),
(899,1269,cs),
(660,903,ls),
(622,843,o),
(606,837,o),
(552,834,cs),
(486,830,o),
(424,827,o),
(359,826,c),
(332,698,l)
);
}
);
width = 1179.102;
}
);
metricLeft = H;
unicode = 75;
},
{
color = 5;
glyphname = L;
kernLeft = E;
kernRight = L;
lastChange = "2023-06-05 08:18:04 +0000";
layers = (
{
anchors = (
{
name = bottom;
pos = (426,0);
},
{
name = periodcentered;
pos = (967,786);
},
{
name = top;
pos = (434,1464);
},
{
name = topright;
pos = (489,871);
}
);
layerId = "60A08B03-D3FB-4CD5-9797-EA57F0A37C3C";
shapes = (
{
closed = 1;
nodes = (
(235,0,l),
(482,1272,ls),
(485,1288,o),
(488,1305,o),
(488,1320,cs),
(488,1357,o),
(463,1372,o),
(419,1372,cs),
(361,1372,l),
(347,1360,l),
(109,134,ls),
(104,108,o),
(101,92,o),
(101,79,cs),
(101,24,o),
(135,0,o),
(188,0,cs)
);
},
{
closed = 1;
nodes = (
(672,0,ls),
(759,0,o),
(800,13,o),
(812,136,c),
(429,136,ls),
(356,136,o),
(241,135,o),
(180,121,c),
(204,0,l)
);
}
);
width = 931.3;
},
{
anchors = (
{
name = bottom;
pos = (422,0);
},
{
name = periodcentered;
pos = (1005,786);
},
{
name = top;
pos = (472,1455);
},
{
name = topright;
pos = (549,896);
}
);
layerId = "6BF21B58-DCB1-4E7D-A305-B9EC5092F295";
shapes = (
{
closed = 1;
nodes = (
(354,-5,l),
(578,1155,ls),
(583,1178,o),
(590,1223,o),
(590,1246,cs),
(590,1329,o),
(541,1379,o),
(437,1379,cs),
(322,1379,l),
(304,1365,l),
(82,222,ls),
(77,198,o),
(70,153,o),
(70,130,cs),
(70,46,o),
(119,-5,o),
(225,-5,cs)
);
},
{
closed = 1;
nodes = (
(645,-5,ls),
(808,-5,o),
(867,56,o),
(890,270,c),
(588,270,ls),
(498,270,o),
(382,264,o),
(293,252,c),
(247,-5,l)
);
}
);
width = 971.32;
},
{
anchors = (
{
name = bottom;
pos = (426,0);
},
{
name = periodcentered;
pos = (964,786);
},
{
name = top;
pos = (431,1464);
},
{
name = topright;
pos = (485,869);
}
);
layerId = "62135F79-58D5-4DC2-8CB3-F8AE7229E95A";
shapes = (
{
closed = 1;
nodes = (
(226,0,l),
(475,1281,ls),
(477,1296,o),
(480,1311,o),
(480,1325,cs),
(480,1359,o),
(457,1372,o),
(418,1372,cs),
(364,1372,l),
(350,1360,l),
(111,127,ls),
(106,101,o),
(103,87,o),
(103,75,cs),
(103,22,o),
(136,0,o),
(185,0,cs)
);
},
{
closed = 1;
nodes = (
(674,0,ls),
(755,0,o),
(795,10,o),
(806,126,c),
(417,126,ls),
(345,126,o),
(231,126,o),
(171,111,c),
(201,0,l)
);
}
);
width = 928.31;
},
{
anchors = (
{
name = bottom;
pos = (422,0);
},
{
name = periodcentered;
pos = (1001,786);
},
{
name = top;
pos = (468,1456);
},
{
name = topright;
pos = (544,893);
}
);
layerId = "E595FEC6-42D0-4CBC-9ED1-F9D07DC361C2";
shapes = (
{
closed = 1;
nodes = (
(344,-5,l),
(570,1165,ls),
(574,1188,o),
(581,1230,o),
(581,1252,cs),
(581,1331,o),
(534,1379,o),
(436,1379,cs),
(326,1379,l),
(308,1365,l),
(85,214,ls),
(80,190,o),
(72,148,o),
(72,125,cs),
(72,43,o),
(120,-5,o),
(221,-5,cs)
);
},
{
closed = 1;
nodes = (
(647,-5,ls),
(803,-5,o),
(861,52,o),
(883,258,c),
(574,258,ls),
(485,258,o),
(370,253,o),
(283,241,c),
(244,-5,l)
);
}
);
width = 967.778;
}
);
metricLeft = E;
unicode = 76;
},
{
color = 5;
glyphname = M;
kernLeft = M;
kernRight = M;
lastChange = "2023-06-05 08:18:04 +0000";
layers = (
{
anchors = (
{
name = bottom;
pos = (636,0);
},
{
name = top;
pos = (919,1464);
}
);
layerId = "60A08B03-D3FB-4CD5-9797-EA57F0A37C3C";
shapes = (
{
closed = 1;
nodes = (
(153,-7,o),
(182,-4,o),
(197,0,c),
(407,806,ls),
(444,947,o),
(471,1058,o),
(503,1195,c),
(513,1195,l),
(606,212,l),
(623,208,o),
(652,206,o),
(683,206,cs),
(713,206,o),
(741,208,o),
(758,212,c),
(1231,1195,l),
(1242,1195,l),
(1215,1030,o),
(1201,920,o),
(1185,793,cs),
(1083,0,l),
(1097,-4,o),
(1125,-7,o),
(1150,-7,cs),
(1178,-7,o),
(1209,-5,o),
(1227,0,c),
(1390,1366,l),
(1362,1370,o),
(1327,1372,o),
(1285,1372,cs),
(1241,1372,o),
(1203,1370,o),
(1177,1366,c),
(848,675,ls),
(805,583,o),
(758,482,o),
(717,383,c),
(707,383,l),
(700,492,o),
(693,588,o),
(684,686,cs),
(622,1366,l),
(593,1370,o),
(561,1372,o),
(521,1372,cs),
(479,1372,o),
(441,1370,o),
(415,1366,c),
(50,0,l),
(67,-4,o),
(101,-7,o),
(128,-7,cs)
);
}
);
width = 1463.5;
},
{
anchors = (
{
name = bottom;
pos = (674,0);
},
{
name = top;
pos = (953,1464);
}
);
layerId = "6BF21B58-DCB1-4E7D-A305-B9EC5092F295";
shapes = (
{
closed = 1;
nodes = (
(216,-12,o),
(276,-8,o),
(311,0,c),
(443,553,ls),
(482,720,o),
(512,852,o),
(548,1024,c),
(562,1024,l),
(577,185,l),
(614,176,o),
(674,171,o),
(745,171,cs),
(816,171,o),
(882,176,o),
(921,185,c),
(1256,1024,l),
(1269,1024,l),
(1244,857,o),
(1221,718,o),
(1195,543,cs),
(1115,0,l),
(1154,-9,o),
(1210,-12,o),
(1256,-12,cs),
(1313,-12,o),
(1369,-8,o),
(1408,0,c),
(1570,1364,l),
(1510,1375,o),
(1426,1379,o),
(1351,1379,cs),
(1283,1379,o),
(1203,1375,o),
(1139,1364,c),
(945,857,ls),
(902,742,o),
(849,598,o),
(802,466,c),
(789,466,l),
(790,605,o),
(791,752,o),
(790,866,cs),
(787,1364,l),
(718,1375,o),
(636,1379,o),
(566,1379,cs),
(507,1379,o),
(425,1375,o),
(366,1364,c),
(13,0,l),
(55,-9,o),
(117,-12,o),
(159,-12,cs)
);
}
);
width = 1611.4;
},
{
anchors = (
{
name = bottom;
pos = (633,0);
},
{
name = top;
pos = (916,1464);
}
);
layerId = "62135F79-58D5-4DC2-8CB3-F8AE7229E95A";
shapes = (
{
closed = 1;
nodes = (
(148,-7,o),
(175,-4,o),
(188,0,c),
(404,825,ls),
(441,964,o),
(468,1073,o),
(499,1208,c),
(509,1208,l),
(608,214,l),
(623,210,o),
(650,209,o),
(678,209,cs),
(705,209,o),
(731,210,o),
(746,214,c),
(1229,1208,l),
(1240,1208,l),
(1213,1043,o),
(1200,935,o),
(1184,811,cs),
(1081,0,l),
(1093,-4,o),
(1119,-7,o),
(1142,-7,cs),
(1168,-7,o),
(1197,-5,o),
(1214,0,c),
(1377,1366,l),
(1351,1370,o),
(1319,1372,o),
(1280,1372,cs),
(1238,1372,o),
(1203,1370,o),
(1180,1366,c),
(841,661,ls),
(798,571,o),
(751,473,o),
(711,377,c),
(701,377,l),
(693,484,o),
(685,576,o),
(676,673,cs),
(609,1366,l),
(584,1370,o),
(556,1372,o),
(517,1372,cs),
(477,1372,o),
(442,1370,o),
(419,1366,c),
(53,0,l),
(68,-4,o),
(100,-7,o),
(126,-7,cs)
);
}
);
width = 1452.45;
},
{
anchors = (
{
name = bottom;
pos = (670,0);
},
{
name = top;
pos = (950,1464);
}
);
layerId = "E595FEC6-42D0-4CBC-9ED1-F9D07DC361C2";
shapes = (
{
closed = 1;
nodes = (
(210,-12,o),
(267,-8,o),
(301,0,c),
(439,576,ls),
(478,740,o),
(508,870,o),
(544,1039,c),
(557,1039,l),
(579,187,l),
(615,178,o),
(671,174,o),
(740,174,cs),
(807,174,o),
(870,178,o),
(906,187,c),
(1253,1039,l),
(1267,1039,l),
(1242,872,o),
(1220,735,o),
(1194,565,cs),
(1113,0,l),
(1149,-9,o),
(1203,-12,o),
(1246,-12,cs),
(1301,-12,o),
(1355,-8,o),
(1392,0,c),
(1554,1364,l),
(1497,1375,o),
(1417,1379,o),
(1345,1379,cs),
(1279,1379,o),
(1203,1375,o),
(1143,1364,c),
(937,841,ls),
(894,728,o),
(841,588,o),
(795,459,c),
(782,459,l),
(782,595,o),
(782,737,o),
(780,850,cs),
(772,1364,l),
(707,1375,o),
(630,1379,o),
(562,1379,cs),
(505,1379,o),
(426,1375,o),
(371,1364,c),
(17,0,l),
(56,-9,o),
(116,-12,o),
(157,-12,cs)
);
}
);
width = 1598.31;
}
);
unicode = 77;
},
{
color = 5;
glyphname = N;
kernLeft = H;
kernRight = H;
lastChange = "2023-06-05 08:18:04 +0000";
layers = (
{
anchors = (
{
name = bottom;
pos = (517,0);
},
{
name = top;
pos = (811,1464);
}
);
layerId = "60A08B03-D3FB-4CD5-9797-EA57F0A37C3C";
shapes = (
{
closed = 1;
nodes = (
(914,-6,o),
(955,-4,o),
(978,0,c),
(1243,1362,l),
(1234,1372,l),
(1177,1372,ls),
(1112,1372,o),
(1096,1335,o),
(1085,1274,cs),
(961,637,ls),
(934,497,o),
(899,317,o),
(879,172,c),
(867,172,l),
(790,0,l),
(815,-4,o),
(850,-6,o),
(882,-6,cs)
);
},
{
closed = 1;
nodes = (
(178,-6,o),
(204,-4,o),
(223,0,c),
(369,750,ls),
(397,893,o),
(422,1037,o),
(447,1187,c),
(460,1188,l),
(534,1366,l),
(511,1370,o),
(472,1372,o),
(444,1372,cs),
(416,1372,o),
(374,1370,o),
(348,1366,c),
(83,0,l),
(100,-4,o),
(132,-6,o),
(155,-6,cs)
);
},
{
closed = 1;
nodes = (
(932,103,l),
(874,172,l),
(849,275,o),
(823,370,o),
(797,458,cs),
(534,1366,l),
(393,1274,l),
(453,1188,l),
(478,1084,o),
(502,998,o),
(529,904,cs),
(790,0,l)
);
}
);
width = 1251.95;
},
{
anchors = (
{
name = bottom;
pos = (565,0);
},
{
name = top;
pos = (843,1464);
}
);
layerId = "6BF21B58-DCB1-4E7D-A305-B9EC5092F295";
shapes = (
{
closed = 1;
nodes = (
(957,-11,o),
(1033,-8,o),
(1084,1,c),
(1349,1366,l),
(1338,1379,l),
(1224,1379,ls),
(1088,1379,o),
(1050,1312,o),
(1030,1208,cs),
(978,942,ls),
(947,781,o),
(909,576,o),
(885,341,c),
(862,337,l),
(708,0,l),
(766,-9,o),
(841,-11,o),
(890,-11,cs)
);
},
{
closed = 1;
nodes = (
(224,-11,o),
(282,-9,o),
(333,0,c),
(410,398,ls),
(444,572,o),
(480,775,o),
(506,1003,c),
(527,1009,l),
(681,1366,l),
(623,1375,o),
(549,1377,o),
(501,1377,cs),
(434,1377,o),
(358,1372,o),
(307,1361,c),
(43,0,l),
(82,-9,o),
(140,-11,o),
(185,-11,cs)
);
},
{
closed = 1;
nodes = (
(1004,173,l),
(877,341,l),
(858,487,o),
(835,604,o),
(819,681,cs),
(681,1366,l),
(399,1170,l),
(514,1005,l),
(535,848,o),
(552,771,o),
(575,657,cs),
(708,0,l)
);
}
);
width = 1320.68;
},
{
anchors = (
{
name = bottom;
pos = (513,0);
},
{
name = top;
pos = (809,1464);
}
);
layerId = "62135F79-58D5-4DC2-8CB3-F8AE7229E95A";
shapes = (
{
closed = 1;
nodes = (
(911,-6,o),
(949,-4,o),
(970,0,c),
(1235,1362,l),
(1226,1372,l),
(1173,1372,ls),
(1114,1372,o),
(1100,1337,o),
(1089,1279,cs),
(960,614,ls),
(933,476,o),
(898,298,o),
(879,159,c),
(867,159,l),
(796,0,l),
(819,-4,o),
(851,-6,o),
(882,-6,cs)
);
},
{
closed = 1;
nodes = (
(174,-6,o),
(198,-4,o),
(215,0,c),
(366,776,ls),
(393,917,o),
(418,1057,o),
(443,1201,c),
(455,1201,l),
(523,1366,l),
(503,1370,o),
(466,1372,o),
(440,1372,cs),
(415,1372,o),
(375,1370,o),
(351,1366,c),
(86,0,l),
(101,-4,o),
(131,-6,o),
(153,-6,cs)
);
},
{
closed = 1;
nodes = (
(927,98,l),
(874,159,l),
(848,259,o),
(822,352,o),
(795,441,cs),
(523,1366,l),
(393,1282,l),
(448,1201,l),
(474,1102,o),
(498,1015,o),
(525,922,cs),
(796,0,l)
);
}
);
width = 1246.815;
},
{
anchors = (
{
name = bottom;
pos = (561,0);
},
{
name = top;
pos = (841,1464);
}
);
layerId = "E595FEC6-42D0-4CBC-9ED1-F9D07DC361C2";
shapes = (
{
closed = 1;
nodes = (
(954,-11,o),
(1026,-8,o),
(1074,1,c),
(1339,1366,l),
(1329,1379,l),
(1220,1379,ls),
(1091,1379,o),
(1054,1315,o),
(1035,1214,cs),
(977,915,ls),
(946,756,o),
(908,554,o),
(885,326,c),
(862,322,l),
(715,0,l),
(771,-9,o),
(842,-11,o),
(889,-11,cs)
);
},
{
closed = 1;
nodes = (
(220,-11,o),
(274,-9,o),
(323,0,c),
(406,429,ls),
(440,601,o),
(475,799,o),
(501,1019,c),
(521,1025,l),
(668,1366,l),
(613,1375,o),
(542,1377,o),
(496,1377,cs),
(433,1377,o),
(359,1372,o),
(311,1361,c),
(47,0,l),
(83,-9,o),
(139,-11,o),
(183,-11,cs)
);
},
{
closed = 1;
nodes = (
(998,167,l),
(877,326,l),
(857,468,o),
(834,583,o),
(816,661,cs),
(668,1366,l),
(399,1179,l),
(509,1021,l),
(530,869,o),
(547,791,o),
(571,679,cs),
(715,0,l)
);
}
);
width = 1314.597;
}
);
metricLeft = H;
metricRight = H;
unicode = 78;
},
{
color = 5;
glyphname = O;
kernLeft = C;
kernRight = O;
lastChange = "2023-06-05 08:18:04 +0000";
layers = (
{
anchors = (
{
name = bottom;
pos = (507,0);
},
{
name = ogonek;
pos = (676,8);
},
{
name = top;
pos = (794,1464);
},
{
name = topright;
pos = (1082,1346);
}
);
layerId = "60A08B03-D3FB-4CD5-9797-EA57F0A37C3C";
shapes = (
{
closed = 1;
nodes = (
(958,-24,o),
(1169,495,o),
(1169,890,cs),
(1169,1210,o),
(1023,1390,o),
(765,1390,cs),
(325,1390,o),
(114,868,o),
(114,475,cs),
(114,156,o),
(261,-24,o),
(518,-24,cs)
);
},
{
closed = 1;
nodes = (
(353,104,o),
(274,256,o),
(274,484,cs),
(274,803,o),
(428,1263,o),
(748,1263,cs),
(918,1263,o),
(1010,1128,o),
(1010,883,cs),
(1010,565,o),
(856,103,o),
(536,103,cs)
);
}
);
width = 1208.65;
},
{
anchors = (
{
name = bottom;
pos = (531,0);
},
{
name = ogonek;
pos = (720,1);
},
{
name = top;
pos = (814,1464);
},
{
name = topright;
pos = (1191,1337);
}
);
layerId = "6BF21B58-DCB1-4E7D-A305-B9EC5092F295";
shapes = (
{
closed = 1;
nodes = (
(1040,-29,o),
(1244,486,o),
(1244,888,cs),
(1244,1207,o),
(1089,1395,o),
(788,1395,cs),
(284,1395,o),
(81,873,o),
(81,475,cs),
(81,156,o),
(238,-29,o),
(537,-29,cs)
);
},
{
closed = 1;
nodes = (
(443,217,o),
(408,347,o),
(408,471,cs),
(408,693,o),
(506,1150,o),
(743,1150,cs),
(880,1150,o),
(918,1025,o),
(918,896,cs),
(918,678,o),
(821,214,o),
(581,216,cs)
);
}
);
width = 1254.76;
},
{
anchors = (
{
name = bottom;
pos = (505,0);
},
{
name = ogonek;
pos = (672,8);
},
{
name = top;
pos = (793,1464);
},
{
name = topright;
pos = (1074,1346);
}
);
layerId = "62135F79-58D5-4DC2-8CB3-F8AE7229E95A";
shapes = (
{
closed = 1;
nodes = (
(952,-24,o),
(1164,495,o),
(1164,890,cs),
(1164,1210,o),
(1018,1390,o),
(763,1390,cs),
(328,1390,o),
(117,868,o),
(117,475,cs),
(117,156,o),
(263,-24,o),
(517,-24,cs)
);
},
{
closed = 1;
nodes = (
(346,95,o),
(264,249,o),
(264,485,cs),
(264,811,o),
(422,1271,o),
(748,1271,cs),
(921,1271,o),
(1017,1136,o),
(1017,882,cs),
(1017,556,o),
(859,95,o),
(532,95,cs)
);
}
);
width = 1205.205;
},
{
anchors = (
{
name = bottom;
pos = (528,0);
},
{
name = ogonek;
pos = (716,1);
},
{
name = top;
pos = (813,1464);
},
{
name = topright;
pos = (1181,1338);
}
);
layerId = "E595FEC6-42D0-4CBC-9ED1-F9D07DC361C2";
shapes = (
{
closed = 1;
nodes = (
(1033,-29,o),
(1238,487,o),
(1238,888,cs),
(1238,1207,o),
(1083,1395,o),
(785,1395,cs),
(288,1395,o),
(84,873,o),
(84,475,cs),
(84,156,o),
(241,-29,o),
(536,-29,cs)
);
},
{
closed = 1;
nodes = (
(435,207,o),
(396,339,o),
(396,472,cs),
(396,703,o),
(498,1160,o),
(743,1160,cs),
(884,1160,o),
(927,1034,o),
(927,895,cs),
(927,668,o),
(824,204,o),
(577,206,cs)
);
}
);
width = 1250.679;
}
);
metricRight = "=|";
unicode = 79;
},
{
color = 5;
glyphname = P;
kernLeft = H;
kernRight = P;
lastChange = "2023-06-05 08:18:04 +0000";
layers = (
{
anchors = (
{
name = top;
pos = (726,1464);
}
);
layerId = "60A08B03-D3FB-4CD5-9797-EA57F0A37C3C";
shapes = (
{
closed = 1;
nodes = (
(185,-6,o),
(213,-4,o),
(234,0,c),
(476,1246,l),
(538,1244,o),
(628,1244,o),
(687,1244,cs),
(850,1244,o),
(907,1156,o),
(907,1030,cs),
(907,824,o),
(784,641,o),
(561,641,cs),
(470,641,o),
(398,639,o),
(304,639,c),
(280,513,l),
(545,513,ls),
(876,513,o),
(1063,751,o),
(1063,1036,cs),
(1063,1266,o),
(916,1372,o),
(694,1372,cs),
(606,1372,o),
(405,1367,o),
(359,1366,c),
(346,1354,l),
(83,0,l),
(104,-4,o),
(134,-6,o),
(159,-6,cs)
);
}
);
width = 1008.45;
},
{
anchors = (
{
name = top;
pos = (810,1464);
}
);
layerId = "6BF21B58-DCB1-4E7D-A305-B9EC5092F295";
shapes = (
{
closed = 1;
nodes = (
(245,-11,o),
(302,-9,o),
(358,0,c),
(579,1137,l),
(616,1135,o),
(642,1135,o),
(681,1135,cs),
(788,1135,o),
(831,1083,o),
(831,975,cs),
(831,824,o),
(761,658,o),
(612,658,cs),
(550,658,o),
(470,658,o),
(410,656,c),
(365,419,l),
(586,419,ls),
(968,419,o),
(1153,690,o),
(1153,993,cs),
(1153,1267,o),
(976,1377,o),
(743,1377,cs),
(579,1377,o),
(397,1372,o),
(321,1370,c),
(306,1356,l),
(43,0,l),
(95,-9,o),
(159,-11,o),
(202,-11,cs)
);
}
);
width = 1103.28;
},
{
anchors = (
{
name = top;
pos = (720,1464);
}
);
layerId = "62135F79-58D5-4DC2-8CB3-F8AE7229E95A";
shapes = (
{
closed = 1;
nodes = (
(181,-6,o),
(206,-4,o),
(225,0,c),
(468,1254,l),
(532,1252,o),
(627,1252,o),
(687,1252,cs),
(855,1252,o),
(912,1161,o),
(912,1034,cs),
(912,824,o),
(786,640,o),
(557,640,cs),
(464,640,o),
(393,638,o),
(296,638,c),
(274,520,l),
(542,520,ls),
(869,520,o),
(1056,755,o),
(1056,1039,cs),
(1056,1266,o),
(911,1372,o),
(690,1372,cs),
(608,1372,o),
(405,1367,o),
(362,1366,c),
(349,1354,l),
(86,0,l),
(104,-4,o),
(132,-6,o),
(156,-6,cs)
);
}
);
width = 1001.365;
},
{
anchors = (
{
name = top;
pos = (803,1464);
}
);
layerId = "E595FEC6-42D0-4CBC-9ED1-F9D07DC361C2";
shapes = (
{
closed = 1;
nodes = (
(240,-11,o),
(294,-9,o),
(347,0,c),
(570,1147,l),
(609,1145,o),
(641,1145,o),
(681,1145,cs),
(793,1145,o),
(837,1089,o),
(837,980,cs),
(837,824,o),
(764,657,o),
(607,657,cs),
(543,657,o),
(464,657,o),
(400,655,c),
(358,428,l),
(582,428,ls),
(959,428,o),
(1145,695,o),
(1145,997,cs),
(1145,1267,o),
(971,1377,o),
(738,1377,cs),
(582,1377,o),
(398,1372,o),
(325,1370,c),
(310,1356,l),
(47,0,l),
(96,-9,o),
(156,-11,o),
(198,-11,cs)
);
}
);
width = 1094.887;
}
);
metricLeft = H;
unicode = 80;
},
{
color = 5;
glyphname = Q;
kernLeft = C;
kernRight = O;
lastChange = "2023-06-05 08:18:04 +0000";
layers = (
{
layerId = "60A08B03-D3FB-4CD5-9797-EA57F0A37C3C";
shapes = (
{
closed = 1;
nodes = (
(563,-24,o),
(605,-14,o),
(646,1,c),
(977,60,o),
(1171,516,o),
(1169,890,cs),
(1167,1210,o),
(1023,1390,o),
(765,1390,cs),
(325,1390,o),
(114,868,o),
(114,475,cs),
(114,156,o),
(261,-24,o),
(518,-24,cs)
);
},
{
closed = 1;
nodes = (
(353,104,o),
(274,256,o),
(274,484,cs),
(274,803,o),
(428,1263,o),
(748,1263,cs),
(918,1263,o),
(1010,1128,o),
(1010,883,cs),
(1010,565,o),
(856,104,o),
(536,103,cs)
);
},
{
closed = 1;
nodes = (
(930,-235,o),
(979,-192,o),
(994,-119,c),
(950,-116,o),
(905,-104,o),
(845,-62,cs),
(773,-12,o),
(737,15,o),
(669,43,c),
(502,-22,l),
(585,-39,o),
(657,-108,o),
(736,-170,cs),
(792,-213,o),
(826,-235,o),
(873,-235,cs)
);
}
);
width = 1208.25;
},
{
layerId = "6BF21B58-DCB1-4E7D-A305-B9EC5092F295";
shapes = (
{
closed = 1;
nodes = (
(608,-29,o),
(672,-19,o),
(724,27,c),
(1074,84,o),
(1244,540,o),
(1244,888,cs),
(1244,1203,o),
(1089,1395,o),
(788,1395,cs),
(284,1395,o),
(81,873,o),
(81,475,cs),
(81,161,o),
(238,-29,o),
(537,-29,cs)
);
},
{
closed = 1;
nodes = (
(441,217,o),
(408,347,o),
(408,471,cs),
(408,693,o),
(506,1149,o),
(743,1150,cs),
(881,1150,o),
(918,1025,o),
(918,896,cs),
(918,678,o),
(821,217,o),
(581,216,cs)
);
},
{
closed = 1;
nodes = (
(1012,-285,o),
(1098,-213,o),
(1117,-68,c),
(1048,-64,o),
(996,-54,o),
(929,-10,cs),
(879,23,o),
(837,62,o),
(760,80,c),
(473,-15,l),
(571,-62,o),
(643,-146,o),
(708,-200,cs),
(768,-251,o),
(827,-285,o),
(902,-285,cs)
);
}
);
width = 1247.4;
},
{
layerId = "62135F79-58D5-4DC2-8CB3-F8AE7229E95A";
shapes = (
{
closed = 1;
nodes = (
(559,-24,o),
(600,-14,o),
(640,-1,c),
(970,58,o),
(1166,514,o),
(1164,890,cs),
(1161,1210,o),
(1018,1390,o),
(763,1390,cs),
(328,1390,o),
(117,868,o),
(117,475,cs),
(117,156,o),
(263,-24,o),
(517,-24,cs)
);
},
{
closed = 1;
nodes = (
(346,95,o),
(264,249,o),
(264,485,cs),
(264,811,o),
(422,1271,o),
(748,1271,cs),
(921,1271,o),
(1017,1136,o),
(1017,882,cs),
(1017,556,o),
(859,95,o),
(532,95,cs)
);
},
{
closed = 1;
nodes = (
(924,-231,o),
(970,-191,o),
(985,-123,c),
(942,-120,o),
(898,-108,o),
(839,-66,cs),
(765,-15,o),
(729,11,o),
(662,40,c),
(504,-22,l),
(586,-37,o),
(658,-105,o),
(738,-168,cs),
(794,-210,o),
(826,-231,o),
(871,-231,cs)
);
}
);
width = 1205.325;
},
{
layerId = "E595FEC6-42D0-4CBC-9ED1-F9D07DC361C2";
shapes = (
{
closed = 1;
nodes = (
(604,-29,o),
(666,-19,o),
(717,24,c),
(1066,81,o),
(1238,537,o),
(1238,888,cs),
(1237,1203,o),
(1083,1395,o),
(785,1395,cs),
(288,1395,o),
(84,873,o),
(84,475,cs),
(84,161,o),
(241,-29,o),
(536,-29,cs)
);
},
{
closed = 1;
nodes = (
(433,207,o),
(396,339,o),
(396,472,cs),
(396,703,o),
(498,1159,o),
(743,1160,cs),
(885,1160,o),
(927,1034,o),
(927,895,cs),
(927,668,o),
(824,207,o),
(577,206,cs)
);
},
{
closed = 1;
nodes = (
(1005,-280,o),
(1088,-212,o),
(1106,-73,c),
(1039,-69,o),
(988,-59,o),
(922,-15,cs),
(869,20,o),
(828,58,o),
(752,76,c),
(475,-15,l),
(572,-59,o),
(644,-142,o),
(710,-198,cs),
(771,-247,o),
(827,-280,o),
(900,-280,cs)
);
}
);
width = 1243.935;
}
);
metricLeft = O;
unicode = 81;
},
{
color = 5;
glyphname = R;
kernLeft = H;
kernRight = R;
lastChange = "2023-06-05 08:18:04 +0000";
layers = (
{
anchors = (
{
name = bottom;
pos = (460,0);
},
{
name = top;
pos = (727,1464);
}
);
layerId = "60A08B03-D3FB-4CD5-9797-EA57F0A37C3C";
shapes = (
{
closed = 1;
nodes = (
(945,654,o),
(1074,835,o),
(1074,1048,cs),
(1074,1261,o),
(935,1372,o),
(683,1372,cs),
(591,1372,o),
(457,1369,o),
(360,1366,c),
(346,1354,l),
(83,0,l),
(103,-4,o),
(134,-6,o),
(159,-6,cs),
(185,-6,o),
(213,-4,o),
(234,0,c),
(476,1245,l),
(529,1244,o),
(597,1244,o),
(669,1244,cs),
(863,1244,o),
(918,1154,o),
(918,1041,cs),
(918,841,o),
(786,707,o),
(551,707,cs),
(474,707,o),
(385,708,o),
(308,707,c),
(283,578,l),
(480,576,ls),
(639,574,o),
(677,505,o),
(700,385,cs),
(750,116,ls),
(761,55,o),
(772,-14,o),
(846,-14,cs),
(891,-14,o),
(935,10,o),
(957,40,c),
(909,83,o),
(902,137,o),
(892,190,cs),
(849,418,ls),
(830,523,o),
(790,579,o),
(725,615,c)
);
}
);
width = 1092.45;
},
{
anchors = (
{
name = bottom;
pos = (520,0);
},
{
name = top;
pos = (757,1464);
}
);
layerId = "6BF21B58-DCB1-4E7D-A305-B9EC5092F295";
shapes = (
{
closed = 1;
nodes = (
(1002,627,o),
(1169,784,o),
(1169,1021,cs),
(1169,1256,o),
(1005,1377,o),
(743,1377,cs),
(574,1377,o),
(439,1374,o),
(322,1370,c),
(306,1356,l),
(43,0,l),
(91,-9,o),
(160,-11,o),
(197,-11,cs),
(238,-11,o),
(301,-9,o),
(354,0,c),
(575,1138,l),
(621,1136,o),
(655,1136,o),
(696,1136,cs),
(807,1136,o),
(847,1081,o),
(847,997,cs),
(847,848,o),
(764,755,o),
(622,755,cs),
(555,755,o),
(469,755,o),
(359,755,c),
(313,506,l),
(506,505,ls),
(617,505,o),
(648,459,o),
(666,347,cs),
(699,148,ls),
(715,48,o),
(745,-22,o),
(862,-22,cs),
(952,-22,o),
(1043,19,o),
(1077,68,c),
(1036,110,o),
(1019,148,o),
(1000,253,cs),
(979,370,ls),
(957,495,o),
(917,555,o),
(844,594,c)
);
}
);
width = 1169.88;
},
{
anchors = (
{
name = bottom;
pos = (456,0);
},
{
name = top;
pos = (725,1464);
}
);
layerId = "62135F79-58D5-4DC2-8CB3-F8AE7229E95A";
shapes = (
{
closed = 1;
nodes = (
(941,656,o),
(1067,839,o),
(1067,1050,cs),
(1067,1261,o),
(930,1372,o),
(679,1372,cs),
(592,1372,o),
(458,1369,o),
(363,1366,c),
(349,1354,l),
(86,0,l),
(104,-4,o),
(132,-6,o),
(156,-6,cs),
(181,-6,o),
(206,-4,o),
(225,0,c),
(468,1253,l),
(522,1252,o),
(593,1252,o),
(667,1252,cs),
(867,1252,o),
(923,1159,o),
(923,1044,cs),
(923,841,o),
(788,703,o),
(546,703,cs),
(468,703,o),
(379,704,o),
(304,703,c),
(281,583,l),
(478,581,ls),
(641,579,o),
(679,509,o),
(703,388,cs),
(754,114,ls),
(765,55,o),
(774,-14,o),
(845,-14,cs),
(886,-14,o),
(927,9,o),
(948,38,c),
(900,81,o),
(893,136,o),
(884,185,cs),
(840,422,ls),
(821,525,o),
(781,581,o),
(716,616,c)
);
}
);
width = 1086.665;
},
{
anchors = (
{
name = bottom;
pos = (515,0);
},
{
name = top;
pos = (755,1464);
}
);
layerId = "E595FEC6-42D0-4CBC-9ED1-F9D07DC361C2";
shapes = (
{
closed = 1;
nodes = (
(997,630,o),
(1160,789,o),
(1160,1023,cs),
(1160,1256,o),
(999,1377,o),
(738,1377,cs),
(575,1377,o),
(440,1374,o),
(326,1370,c),
(310,1356,l),
(47,0,l),
(92,-9,o),
(157,-11,o),
(193,-11,cs),
(233,-11,o),
(293,-9,o),
(343,0,c),
(566,1148,l),
(612,1146,o),
(650,1146,o),
(694,1146,cs),
(812,1146,o),
(853,1087,o),
(853,1001,cs),
(853,848,o),
(767,751,o),
(616,751,cs),
(548,751,o),
(462,751,o),
(354,751,c),
(311,512,l),
(503,511,ls),
(620,511,o),
(650,463,o),
(669,351,cs),
(704,146,ls),
(719,48,o),
(747,-21,o),
(861,-21,cs),
(947,-21,o),
(1033,18,o),
(1066,66,c),
(1025,108,o),
(1009,147,o),
(990,247,cs),
(968,374,ls),
(946,497,o),
(906,558,o),
(834,595,c)
);
}
);
width = 1163.027;
}
);
metricLeft = H;
unicode = 82;
},
{
color = 5;
glyphname = S;
kernLeft = S;
kernRight = S;
lastChange = "2023-06-05 08:18:04 +0000";
layers = (
{
anchors = (
{
name = bottom;
pos = (417,0);
},
{
name = top;
pos = (709,1464);
}
);
layerId = "60A08B03-D3FB-4CD5-9797-EA57F0A37C3C";
shapes = (
{
closed = 1;
nodes = (
(95,44,o),
(239,-25,o),
(422,-25,cs),
(723,-25,o),
(909,174,o),
(909,399,cs),
(909,607,o),
(752,689,o),
(644,741,cs),
(566,778,ls),
(478,821,o),
(364,870,o),
(364,1004,cs),
(364,1142,o),
(489,1260,o),
(669,1260,cs),
(768,1260,o),
(872,1224,o),
(945,1163,c),
(989,1190,o),
(1017,1237,o),
(1025,1281,c),
(948,1346,o),
(817,1391,o),
(681,1391,cs),
(405,1391,o),
(209,1204,o),
(209,982,cs),
(209,786,o),
(359,705,o),
(479,646,cs),
(573,601,ls),
(626,575,o),
(751,519,o),
(751,376,cs),
(751,228,o),
(616,109,o),
(432,109,cs),
(304,109,o),
(188,160,o),
(97,249,c),
(57,229,o),
(18,185,o),
(5,139,c)
);
}
);
width = 1014.55;
},
{
anchors = (
{
name = bottom;
pos = (437,0);
},
{
name = top;
pos = (735,1464);
}
);
layerId = "6BF21B58-DCB1-4E7D-A305-B9EC5092F295";
shapes = (
{
closed = 1;
nodes = (
(101,22,o),
(271,-31,o),
(448,-31,cs),
(806,-31,o),
(1000,194,o),
(1000,439,cs),
(1000,679,o),
(801,776,o),
(699,825,cs),
(637,855,ls),
(562,892,o),
(492,920,o),
(492,997,cs),
(492,1075,o),
(564,1142,o),
(685,1142,cs),
(782,1142,o),
(886,1101,o),
(967,1049,c),
(1041,1094,o),
(1098,1194,o),
(1107,1284,c),
(1016,1351,o),
(854,1397,o),
(699,1397,cs),
(369,1397,o),
(170,1180,o),
(170,941,cs),
(170,730,o),
(336,653,o),
(417,613,cs),
(512,566,ls),
(570,537,o),
(671,496,o),
(671,390,cs),
(671,293,o),
(589,224,o),
(459,224,cs),
(335,224,o),
(225,275,o),
(140,354,c),
(70,309,o),
(7,216,o),
(-12,129,c)
);
}
);
width = 1076.32;
},
{
anchors = (
{
name = bottom;
pos = (416,0);
},
{
name = top;
pos = (707,1464);
}
);
layerId = "62135F79-58D5-4DC2-8CB3-F8AE7229E95A";
shapes = (
{
closed = 1;
nodes = (
(95,46,o),
(237,-25,o),
(420,-25,cs),
(717,-25,o),
(902,173,o),
(902,396,cs),
(902,602,o),
(748,683,o),
(640,735,cs),
(561,772,ls),
(472,816,o),
(355,866,o),
(355,1004,cs),
(355,1147,o),
(484,1269,o),
(668,1269,cs),
(767,1269,o),
(871,1233,o),
(943,1172,c),
(985,1197,o),
(1011,1240,o),
(1019,1281,c),
(943,1346,o),
(814,1391,o),
(680,1391,cs),
(408,1391,o),
(212,1206,o),
(212,985,cs),
(212,790,o),
(361,709,o),
(484,649,cs),
(577,604,ls),
(630,578,o),
(757,521,o),
(757,375,cs),
(757,223,o),
(618,100,o),
(430,100,cs),
(302,100,o),
(185,151,o),
(94,241,c),
(56,223,o),
(19,183,o),
(6,140,c)
);
}
);
width = 1009.935;
},
{
anchors = (
{
name = bottom;
pos = (436,0);
},
{
name = top;
pos = (732,1464);
}
);
layerId = "E595FEC6-42D0-4CBC-9ED1-F9D07DC361C2";
shapes = (
{
closed = 1;
nodes = (
(101,25,o),
(269,-31,o),
(445,-31,cs),
(799,-31,o),
(992,193,o),
(992,435,cs),
(992,673,o),
(796,769,o),
(694,818,cs),
(631,848,ls),
(555,886,o),
(481,915,o),
(481,997,cs),
(481,1081,o),
(558,1152,o),
(684,1152,cs),
(781,1152,o),
(885,1112,o),
(964,1059,c),
(1036,1103,o),
(1091,1198,o),
(1100,1284,c),
(1010,1351,o),
(850,1397,o),
(698,1397,cs),
(373,1397,o),
(174,1183,o),
(174,945,cs),
(174,735,o),
(339,658,o),
(422,616,cs),
(517,569,ls),
(575,541,o),
(678,499,o),
(678,389,cs),
(678,287,o),
(591,214,o),
(457,214,cs),
(333,214,o),
(221,265,o),
(137,345,c),
(69,302,o),
(8,214,o),
(-11,130,c)
);
}
);
width = 1070.853;
}
);
unicode = 83;
},
{
color = 5;
glyphname = T;
kernLeft = T;
kernRight = T;
lastChange = "2023-06-05 08:18:04 +0000";
layers = (
{
anchors = (
{
name = bottom;
pos = (348,0);
},
{
name = top;
pos = (630,1464);
}
);
layerId = "60A08B03-D3FB-4CD5-9797-EA57F0A37C3C";
shapes = (
{
closed = 1;
nodes = (
(375,-6,o),
(402,-4,o),
(423,0,c),
(633,1088,ls),
(644,1147,o),
(653,1196,o),
(661,1236,cs),
(674,1300,l),
(525,1300,l),
(513,1236,ls),
(503,1187,o),
(489,1125,o),
(482,1088,cs),
(271,0,l),
(292,-4,o),
(323,-6,o),
(348,-6,cs)
);
},
{
closed = 1;
nodes = (
(418,1234,ls),
(441,1234,o),
(492,1236,o),
(516,1236,cs),
(657,1236,ls),
(680,1236,o),
(732,1234,o),
(757,1234,cs),
(916,1234,ls),
(998,1234,o),
(1020,1283,o),
(1023,1366,c),
(201,1366,l),
(185,1331,o),
(173,1282,o),
(176,1234,c)
);
}
);
width = 879.7;
},
{
anchors = (
{
name = bottom;
pos = (396,0);
},
{
name = top;
pos = (679,1464);
}
);
layerId = "6BF21B58-DCB1-4E7D-A305-B9EC5092F295";
shapes = (
{
closed = 1;
nodes = (
(434,-11,o),
(499,-9,o),
(553,0,c),
(738,954,ls),
(748,1009,o),
(754,1048,o),
(764,1102,cs),
(789,1234,l),
(478,1234,l),
(453,1102,ls),
(443,1047,o),
(433,1007,o),
(423,954,cs),
(238,0,l),
(287,-9,o),
(355,-11,o),
(393,-11,cs)
);
},
{
closed = 1;
nodes = (
(326,1100,ls),
(355,1100,o),
(422,1102,o),
(452,1102,cs),
(766,1102,ls),
(795,1102,o),
(861,1100,o),
(891,1100,cs),
(928,1100,ls),
(1073,1100,o),
(1124,1169,o),
(1141,1366,c),
(192,1366,l),
(155,1280,o),
(136,1170,o),
(140,1100,c)
);
}
);
width = 978.88;
},
{
anchors = (
{
name = bottom;
pos = (344,0);
},
{
name = top;
pos = (626,1464);
}
);
layerId = "62135F79-58D5-4DC2-8CB3-F8AE7229E95A";
shapes = (
{
closed = 1;
nodes = (
(371,-6,o),
(395,-4,o),
(413,0,c),
(625,1098,ls),
(636,1157,o),
(645,1207,o),
(653,1246,cs),
(665,1305,l),
(529,1305,l),
(517,1246,ls),
(507,1197,o),
(493,1134,o),
(486,1098,cs),
(274,0,l),
(292,-4,o),
(321,-6,o),
(344,-6,cs)
);
},
{
closed = 1;
nodes = (
(425,1244,ls),
(447,1244,o),
(497,1246,o),
(521,1246,cs),
(649,1246,ls),
(671,1246,o),
(723,1244,o),
(747,1244,cs),
(915,1244,ls),
(993,1244,o),
(1012,1292,o),
(1014,1366,c),
(202,1366,l),
(187,1335,o),
(176,1290,o),
(179,1244,c)
);
}
);
width = 872.29;
},
{
anchors = (
{
name = bottom;
pos = (392,0);
},
{
name = top;
pos = (674,1464);
}
);
layerId = "E595FEC6-42D0-4CBC-9ED1-F9D07DC361C2";
shapes = (
{
closed = 1;
nodes = (
(429,-11,o),
(491,-9,o),
(542,0,c),
(729,966,ls),
(739,1021,o),
(745,1061,o),
(755,1114,cs),
(779,1240,l),
(482,1240,l),
(458,1114,ls),
(448,1059,o),
(438,1017,o),
(428,966,cs),
(241,0,l),
(287,-9,o),
(353,-11,o),
(389,-11,cs)
);
},
{
closed = 1;
nodes = (
(335,1112,ls),
(362,1112,o),
(428,1114,o),
(458,1114,cs),
(756,1114,ls),
(785,1114,o),
(850,1112,o),
(879,1112,cs),
(927,1112,ls),
(1067,1112,o),
(1115,1179,o),
(1131,1366,c),
(193,1366,l),
(157,1285,o),
(140,1180,o),
(144,1112,c)
);
}
);
width = 970.102;
}
);
unicode = 84;
},
{
color = 5;
glyphname = U;
kernLeft = U;
kernRight = U;
lastChange = "2023-06-05 08:18:04 +0000";
layers = (
{
anchors = (
{
name = bottom;
pos = (519,0);
},
{
name = ogonek;
pos = (698,8);
},
{
name = top;
pos = (803,1464);
},
{
name = topright;
pos = (1233,1366);
}
);
layerId = "60A08B03-D3FB-4CD5-9797-EA57F0A37C3C";
shapes = (
{
closed = 1;
nodes = (
(818,-24,o),
(998,132,o),
(1061,457,cs),
(1237,1366,l),
(1217,1370,o),
(1187,1372,o),
(1162,1372,cs),
(1136,1372,o),
(1107,1370,o),
(1086,1366,c),
(913,474,ls),
(890,349,o),
(820,103,o),
(547,103,cs),
(380,103,o),
(297,192,o),
(297,348,cs),
(297,408,o),
(308,473,o),
(318,521,cs),
(464,1272,ls),
(466,1283,o),
(469,1304,o),
(469,1320,cs),
(469,1358,o),
(443,1372,o),
(400,1372,cs),
(342,1372,l),
(329,1360,l),
(167,526,ls),
(156,470,o),
(144,397,o),
(144,330,cs),
(144,102,o),
(284,-24,o),
(533,-24,cs)
);
}
);
width = 1227.35;
},
{
anchors = (
{
name = bottom;
pos = (546,0);
},
{
name = ogonek;
pos = (780,8);
},
{
name = top;
pos = (830,1464);
},
{
name = topright;
pos = (1347,1366);
}
);
layerId = "6BF21B58-DCB1-4E7D-A305-B9EC5092F295";
shapes = (
{
closed = 1;
nodes = (
(922,-29,o),
(1095,158,o),
(1163,504,cs),
(1330,1366,l),
(1282,1375,o),
(1210,1377,o),
(1172,1377,cs),
(1130,1377,o),
(1070,1375,o),
(1015,1366,c),
(848,504,ls),
(829,404,o),
(791,225,o),
(599,225,cs),
(486,225,o),
(430,286,o),
(430,394,cs),
(430,445,o),
(438,498,o),
(453,573,cs),
(566,1155,ls),
(570,1178,o),
(577,1222,o),
(577,1246,cs),
(577,1329,o),
(528,1379,o),
(425,1379,cs),
(309,1379,l),
(291,1365,l),
(140,584,ls),
(126,515,o),
(114,433,o),
(114,363,cs),
(114,75,o),
(319,-29,o),
(563,-29,cs)
);
}
);
width = 1285.64;
},
{
anchors = (
{
name = bottom;
pos = (517,0);
},
{
name = ogonek;
pos = (692,8);
},
{
name = top;
pos = (801,1464);
},
{
name = topright;
pos = (1224,1366);
}
);
layerId = "62135F79-58D5-4DC2-8CB3-F8AE7229E95A";
shapes = (
{
closed = 1;
nodes = (
(810,-24,o),
(991,130,o),
(1053,453,cs),
(1230,1366,l),
(1212,1370,o),
(1185,1372,o),
(1161,1372,cs),
(1136,1372,o),
(1110,1370,o),
(1091,1366,c),
(918,472,ls),
(894,345,o),
(822,94,o),
(543,94,cs),
(372,94,o),
(287,185,o),
(287,344,cs),
(287,405,o),
(299,471,o),
(308,517,cs),
(456,1281,ls),
(458,1291,o),
(461,1310,o),
(461,1325,cs),
(461,1360,o),
(437,1372,o),
(398,1372,cs),
(345,1372,l),
(332,1360,l),
(169,522,ls),
(158,466,o),
(146,394,o),
(146,327,cs),
(146,104,o),
(281,-24,o),
(531,-24,cs)
);
}
);
width = 1222.995;
},
{
anchors = (
{
name = bottom;
pos = (544,0);
},
{
name = ogonek;
pos = (773,8);
},
{
name = top;
pos = (828,1464);
},
{
name = topright;
pos = (1337,1366);
}
);
layerId = "E595FEC6-42D0-4CBC-9ED1-F9D07DC361C2";
shapes = (
{
closed = 1;
nodes = (
(913,-29,o),
(1087,156,o),
(1154,500,cs),
(1321,1366,l),
(1276,1375,o),
(1207,1377,o),
(1171,1377,cs),
(1130,1377,o),
(1074,1375,o),
(1021,1366,c),
(854,502,ls),
(834,399,o),
(793,214,o),
(594,214,cs),
(476,214,o),
(418,277,o),
(418,390,cs),
(418,441,o),
(427,495,o),
(441,568,cs),
(557,1165,ls),
(561,1187,o),
(567,1229,o),
(567,1252,cs),
(567,1331,o),
(521,1379,o),
(422,1379,cs),
(312,1379,l),
(295,1365,l),
(142,579,ls),
(128,511,o),
(116,429,o),
(116,360,cs),
(116,77,o),
(316,-29,o),
(561,-29,cs)
);
}
);
width = 1280.481;
}
);
metricRight = "=|";
unicode = 85;
},
{
color = 5;
glyphname = V;
kernLeft = V;
kernRight = V;
lastChange = "2023-06-05 08:18:04 +0000";
layers = (
{
anchors = (
{
name = bottom;
pos = (422,0);
},
{
name = top;
pos = (715,1464);
}
);
layerId = "60A08B03-D3FB-4CD5-9797-EA57F0A37C3C";
shapes = (
{
closed = 1;
nodes = (
(462,-8,o),
(501,-6,o),
(532,-2,c),
(1179,1354,l),
(1175,1363,l),
(1158,1368,o),
(1130,1372,o),
(1097,1372,cs),
(1073,1372,o),
(1047,1370,o),
(1030,1366,c),
(463,152,l),
(451,152,o),
(448,155,o),
(448,169,cs),
(444,285,o),
(435,407,o),
(426,519,cs),
(361,1297,ls),
(359,1329,o),
(350,1376,o),
(283,1376,cs),
(259,1376,o),
(227,1370,o),
(204,1361,c),
(314,103,ls),
(320,44,o),
(326,-8,o),
(438,-8,cs)
);
}
);
width = 1044.8;
},
{
anchors = (
{
name = bottom;
pos = (491,0);
},
{
name = top;
pos = (780,1464);
}
);
layerId = "6BF21B58-DCB1-4E7D-A305-B9EC5092F295";
shapes = (
{
closed = 1;
nodes = (
(567,-11,o),
(648,-7,o),
(713,0,c),
(1331,1339,l),
(1322,1357,l),
(1277,1372,o),
(1211,1377,o),
(1146,1377,cs),
(1098,1377,o),
(1058,1375,o),
(1022,1366,c),
(552,265,l),
(532,265,o),
(531,272,o),
(531,289,cs),
(531,416,o),
(532,486,o),
(528,620,cs),
(506,1201,ls),
(503,1302,o),
(481,1383,o),
(347,1383,cs),
(292,1383,o),
(226,1368,o),
(177,1346,c),
(251,192,ls),
(259,65,o),
(278,-11,o),
(486,-11,cs)
);
}
);
width = 1180.52;
},
{
anchors = (
{
name = bottom;
pos = (417,0);
},
{
name = top;
pos = (710,1464);
}
);
layerId = "62135F79-58D5-4DC2-8CB3-F8AE7229E95A";
shapes = (
{
closed = 1;
nodes = (
(454,-8,o),
(490,-6,o),
(519,-2,c),
(1168,1355,l),
(1164,1363,l),
(1149,1368,o),
(1124,1372,o),
(1093,1372,cs),
(1071,1372,o),
(1046,1370,o),
(1030,1366,c),
(456,143,l),
(445,143,o),
(442,146,o),
(442,160,cs),
(438,275,o),
(428,401,o),
(418,511,cs),
(350,1304,ls),
(348,1331,o),
(340,1376,o),
(278,1376,cs),
(256,1376,o),
(227,1370,o),
(206,1362,c),
(319,96,ls),
(324,43,o),
(330,-8,o),
(434,-8,cs)
);
}
);
width = 1034.66;
},
{
anchors = (
{
name = bottom;
pos = (485,0);
},
{
name = top;
pos = (774,1464);
}
);
layerId = "E595FEC6-42D0-4CBC-9ED1-F9D07DC361C2";
shapes = (
{
closed = 1;
nodes = (
(558,-11,o),
(635,-7,o),
(697,0,c),
(1318,1340,l),
(1309,1357,l),
(1267,1372,o),
(1204,1377,o),
(1141,1377,cs),
(1095,1377,o),
(1057,1375,o),
(1023,1366,c),
(544,255,l),
(525,255,o),
(524,262,o),
(524,278,cs),
(524,405,o),
(524,479,o),
(519,611,cs),
(493,1209,ls),
(490,1304,o),
(470,1383,o),
(341,1383,cs),
(289,1383,o),
(226,1368,o),
(180,1347,c),
(257,184,ls),
(264,64,o),
(282,-11,o),
(482,-11,cs)
);
}
);
width = 1168.508;
}
);
unicode = 86;
},
{
color = 5;
glyphname = W;
kernLeft = W;
kernRight = W;
lastChange = "2023-06-05 08:18:04 +0000";
layers = (
{
anchors = (
{
name = bottom;
pos = (655,0);
},
{
name = top;
pos = (938,1464);
}
);
layerId = "60A08B03-D3FB-4CD5-9797-EA57F0A37C3C";
shapes = (
{
closed = 1;
nodes = (
(387,-8,o),
(429,-5,o),
(466,0,c),
(705,636,ls),
(763,792,o),
(843,1009,o),
(908,1189,c),
(921,1189,l),
(914,987,o),
(909,785,o),
(906,618,cs),
(896,90,ls),
(894,18,o),
(923,-11,o),
(998,-9,cs),
(1048,-8,o),
(1086,-4,o),
(1121,1,c),
(1656,1353,l),
(1650,1364,l),
(1629,1370,o),
(1602,1372,o),
(1575,1372,cs),
(1551,1372,o),
(1526,1370,o),
(1506,1366,c),
(1184,538,ls),
(1131,400,o),
(1084,276,o),
(1032,129,c),
(1021,129,o),
(1019,132,o),
(1019,149,cs),
(1042,1336,l),
(1021,1341,o),
(985,1344,o),
(944,1344,cs),
(906,1344,o),
(867,1341,o),
(838,1336,c),
(385,129,l),
(375,129,o),
(372,130,o),
(372,149,cs),
(375,265,o),
(378,398,o),
(379,528,cs),
(389,1303,ls),
(390,1349,o),
(370,1377,o),
(321,1377,cs),
(297,1377,o),
(267,1373,o),
(244,1365,c),
(234,92,ls),
(234,25,o),
(252,-8,o),
(338,-8,cs)
);
}
);
width = 1562.5;
},
{
anchors = (
{
name = bottom;
pos = (769,0);
},
{
name = top;
pos = (1071,1464);
}
);
layerId = "6BF21B58-DCB1-4E7D-A305-B9EC5092F295";
shapes = (
{
closed = 1;
nodes = (
(474,-12,o),
(556,-6,o),
(629,2,c),
(808,541,ls),
(872,735,o),
(916,884,o),
(967,1043,c),
(982,1043,l),
(967,872,o),
(951,685,o),
(942,552,cs),
(915,180,ls),
(902,10,o),
(968,-12,o),
(1094,-12,cs),
(1194,-12,o),
(1275,-6,o),
(1347,2,c),
(1866,1337,l),
(1856,1355,l),
(1817,1370,o),
(1741,1377,o),
(1684,1377,cs),
(1645,1377,o),
(1606,1375,o),
(1560,1366,c),
(1328,712,ls),
(1281,580,o),
(1224,410,o),
(1177,263,c),
(1165,263,o),
(1159,263,o),
(1161,290,cs),
(1237,1340,l),
(1182,1351,o),
(1101,1355,o),
(1036,1355,cs),
(969,1355,o),
(889,1351,o),
(828,1340,c),
(473,265,l),
(459,265,o),
(457,267,o),
(459,294,cs),
(469,434,o),
(479,586,o),
(485,709,cs),
(510,1213,ls),
(513,1273,o),
(516,1383,o),
(365,1383,cs),
(313,1383,o),
(256,1370,o),
(209,1355,c),
(182,180,ls),
(178,19,o),
(243,-12,o),
(383,-12,cs)
);
}
);
width = 1745.2;
},
{
anchors = (
{
name = bottom;
pos = (646,0);
},
{
name = top;
pos = (928,1464);
}
);
layerId = "62135F79-58D5-4DC2-8CB3-F8AE7229E95A";
shapes = (
{
closed = 1;
nodes = (
(381,-8,o),
(420,-5,o),
(454,0,c),
(697,643,ls),
(755,796,o),
(838,1018,o),
(904,1200,c),
(916,1200,l),
(910,996,o),
(906,793,o),
(903,623,cs),
(895,83,ls),
(894,18,o),
(919,-11,o),
(991,-9,cs),
(1037,-8,o),
(1072,-4,o),
(1104,1,c),
(1640,1354,l),
(1635,1364,l),
(1615,1370,o),
(1592,1372,o),
(1567,1372,cs),
(1544,1372,o),
(1520,1370,o),
(1502,1366,c),
(1173,525,ls),
(1120,387,o),
(1074,266,o),
(1021,119,c),
(1010,119,o),
(1009,122,o),
(1008,139,cs),
(1028,1336,l),
(1009,1340,o),
(976,1343,o),
(937,1343,cs),
(901,1343,o),
(865,1340,o),
(839,1336,c),
(378,119,l),
(369,119,o),
(366,120,o),
(366,138,cs),
(368,252,o),
(370,384,o),
(371,515,cs),
(380,1310,ls),
(381,1354,o),
(359,1377,o),
(317,1377,cs),
(296,1377,o),
(268,1373,o),
(247,1366,c),
(238,85,ls),
(238,25,o),
(253,-8,o),
(334,-8,cs)
);
}
);
width = 1548.85;
},
{
anchors = (
{
name = bottom;
pos = (759,0);
},
{
name = top;
pos = (1059,1464);
}
);
layerId = "E595FEC6-42D0-4CBC-9ED1-F9D07DC361C2";
shapes = (
{
closed = 1;
nodes = (
(467,-12,o),
(545,-6,o),
(614,2,c),
(799,550,ls),
(862,740,o),
(910,895,o),
(962,1056,c),
(977,1056,l),
(962,882,o),
(947,694,o),
(938,558,cs),
(914,172,ls),
(901,11,o),
(964,-12,o),
(1086,-12,cs),
(1181,-12,o),
(1259,-6,o),
(1327,2,c),
(1847,1338,l),
(1838,1356,l),
(1801,1370,o),
(1729,1377,o),
(1674,1377,cs),
(1636,1377,o),
(1599,1375,o),
(1555,1366,c),
(1315,697,ls),
(1268,564,o),
(1212,398,o),
(1164,251,c),
(1152,251,o),
(1147,252,o),
(1148,278,cs),
(1220,1340,l),
(1168,1350,o),
(1091,1354,o),
(1027,1354,cs),
(963,1354,o),
(886,1350,o),
(829,1340,c),
(465,253,l),
(452,253,o),
(450,255,o),
(452,281,cs),
(460,419,o),
(470,570,o),
(475,693,cs),
(499,1221,ls),
(502,1279,o),
(503,1383,o),
(361,1383,cs),
(312,1383,o),
(257,1370,o),
(212,1356,c),
(187,172,ls),
(183,19,o),
(244,-12,o),
(379,-12,cs)
);
}
);
width = 1729.03;
}
);
unicode = 87;
},
{
color = 5;
glyphname = X;
kernLeft = X;
kernRight = X;
lastChange = "2023-06-05 08:18:04 +0000";
layers = (
{
anchors = (
{
name = top;
pos = (691,1464);
}
);
layerId = "60A08B03-D3FB-4CD5-9797-EA57F0A37C3C";
shapes = (
{
closed = 1;
nodes = (
(66,-7,o),
(92,-4,o),
(112,0,c),
(568,623,l),
(629,660,l),
(1149,1349,l),
(1146,1358,l),
(1129,1367,o),
(1093,1372,o),
(1058,1372,cs),
(1033,1372,o),
(1008,1369,o),
(989,1365,c),
(571,793,l),
(510,758,l),
(-54,16,l),
(-50,7,l),
(-31,-2,o),
(5,-7,o),
(41,-7,cs)
);
},
{
closed = 1;
nodes = (
(851,-13,o),
(880,-2,o),
(918,23,c),
(416,1315,ls),
(398,1361,o),
(375,1378,o),
(341,1378,cs),
(308,1378,o),
(277,1364,o),
(244,1343,c),
(741,51,ls),
(758,5,o),
(786,-13,o),
(819,-13,cs)
);
}
);
width = 1044.2;
},
{
anchors = (
{
name = top;
pos = (756,1464);
}
);
layerId = "6BF21B58-DCB1-4E7D-A305-B9EC5092F295";
shapes = (
{
closed = 1;
nodes = (
(136,-12,o),
(187,-9,o),
(236,0,c),
(594,504,l),
(746,616,l),
(1275,1337,l),
(1266,1354,l),
(1229,1369,o),
(1159,1377,o),
(1090,1377,cs),
(1054,1377,o),
(1008,1375,o),
(960,1366,c),
(645,913,l),
(488,801,l),
(-83,29,l),
(-74,12,l),
(-34,-4,o),
(34,-12,o),
(100,-12,cs)
);
},
{
closed = 1;
nodes = (
(933,-23,o),
(1009,4,o),
(1067,46,c),
(553,1261,ls),
(527,1323,o),
(494,1385,o),
(396,1385,cs),
(328,1385,o),
(250,1358,o),
(194,1316,c),
(704,101,ls),
(731,40,o),
(762,-23,o),
(865,-23,cs)
);
}
);
width = 1152.08;
},
{
anchors = (
{
name = top;
pos = (686,1464);
}
);
layerId = "62135F79-58D5-4DC2-8CB3-F8AE7229E95A";
shapes = (
{
closed = 1;
nodes = (
(61,-7,o),
(85,-4,o),
(103,0,c),
(566,632,l),
(620,664,l),
(1140,1350,l),
(1137,1358,l),
(1121,1367,o),
(1088,1372,o),
(1056,1372,cs),
(1032,1372,o),
(1008,1369,o),
(991,1365,c),
(566,784,l),
(512,755,l),
(-52,15,l),
(-48,7,l),
(-31,-2,o),
(3,-7,o),
(37,-7,cs)
);
},
{
closed = 1;
nodes = (
(845,-12,o),
(871,-2,o),
(907,21,c),
(406,1319,ls),
(389,1364,o),
(366,1378,o),
(337,1378,cs),
(307,1378,o),
(279,1364,o),
(248,1345,c),
(744,47,ls),
(760,2,o),
(788,-12,o),
(815,-12,cs)
);
}
);
width = 1036.14;
},
{
anchors = (
{
name = top;
pos = (750,1464);
}
);
layerId = "E595FEC6-42D0-4CBC-9ED1-F9D07DC361C2";
shapes = (
{
closed = 1;
nodes = (
(130,-12,o),
(178,-9,o),
(225,0,c),
(591,514,l),
(736,620,l),
(1264,1338,l),
(1255,1354,l),
(1220,1369,o),
(1153,1377,o),
(1088,1377,cs),
(1053,1377,o),
(1008,1375,o),
(962,1366,c),
(639,902,l),
(491,798,l),
(-81,28,l),
(-71,12,l),
(-34,-4,o),
(32,-12,o),
(95,-12,cs)
);
},
{
closed = 1;
nodes = (
(926,-22,o),
(998,4,o),
(1054,43,c),
(541,1266,ls),
(516,1327,o),
(484,1385,o),
(391,1385,cs),
(327,1385,o),
(253,1358,o),
(199,1319,c),
(708,96,ls),
(733,37,o),
(765,-22,o),
(861,-22,cs)
);
}
);
width = 1142.532;
}
);
unicode = 88;
},
{
color = 5;
glyphname = Y;
kernLeft = Y;
kernRight = Y;
lastChange = "2023-06-05 08:18:04 +0000";
layers = (
{
anchors = (
{
name = bottom;
pos = (373,0);
},
{
name = top;
pos = (665,1464);
}
);
layerId = "60A08B03-D3FB-4CD5-9797-EA57F0A37C3C";
shapes = (
{
closed = 1;
nodes = (
(520,409,l),
(1068,1353,l),
(1065,1363,l),
(1048,1368,o),
(1016,1372,o),
(988,1372,cs),
(964,1372,o),
(938,1370,o),
(919,1366,c),
(629,859,ls),
(585,781,o),
(543,705,o),
(502,627,c),
(492,627,l),
(481,704,o),
(468,790,o),
(453,871,cs),
(371,1305,ls),
(363,1349,o),
(349,1380,o),
(297,1380,cs),
(270,1380,o),
(236,1371,o),
(207,1356,c),
(394,409,l)
);
},
{
closed = 1;
nodes = (
(405,-6,o),
(432,-4,o),
(453,0,c),
(559,550,l),
(408,550,l),
(301,0,l),
(322,-4,o),
(353,-6,o),
(378,-6,cs)
);
}
);
width = 942.35;
},
{
anchors = (
{
name = bottom;
pos = (443,0);
},
{
name = top;
pos = (730,1464);
}
);
layerId = "6BF21B58-DCB1-4E7D-A305-B9EC5092F295";
shapes = (
{
closed = 1;
nodes = (
(667,394,l),
(1223,1337,l),
(1212,1355,l),
(1174,1370,o),
(1104,1377,o),
(1048,1377,cs),
(1009,1377,o),
(965,1375,o),
(919,1366,c),
(734,1033,ls),
(688,950,o),
(633,835,o),
(585,731,c),
(573,731,l),
(563,838,o),
(550,948,o),
(533,1055,cs),
(507,1218,ls),
(493,1304,o),
(467,1383,o),
(353,1383,cs),
(296,1383,o),
(227,1364,o),
(174,1338,c),
(372,394,l)
);
},
{
closed = 1;
nodes = (
(483,-11,o),
(546,-9,o),
(601,0,c),
(720,621,l),
(405,621,l),
(286,0,l),
(334,-9,o),
(403,-11,o),
(440,-11,cs)
);
}
);
width = 1070.24;
},
{
anchors = (
{
name = bottom;
pos = (368,0);
},
{
name = top;
pos = (660,1464);
}
);
layerId = "62135F79-58D5-4DC2-8CB3-F8AE7229E95A";
shapes = (
{
closed = 1;
nodes = (
(509,410,l),
(1056,1354,l),
(1054,1363,l),
(1039,1368,o),
(1009,1372,o),
(984,1372,cs),
(960,1372,o),
(936,1370,o),
(919,1366,c),
(621,846,ls),
(577,768,o),
(536,696,o),
(496,619,c),
(486,619,l),
(475,694,o),
(462,778,o),
(447,857,cs),
(361,1312,ls),
(353,1353,o),
(340,1380,o),
(293,1380,cs),
(268,1380,o),
(236,1371,o),
(210,1357,c),
(396,410,l)
);
},
{
closed = 1;
nodes = (
(399,-6,o),
(423,-4,o),
(442,0,c),
(547,545,l),
(408,545,l),
(302,0,l),
(321,-4,o),
(349,-6,o),
(373,-6,cs)
);
}
);
width = 932.795;
},
{
anchors = (
{
name = bottom;
pos = (437,0);
},
{
name = top;
pos = (724,1464);
}
);
layerId = "E595FEC6-42D0-4CBC-9ED1-F9D07DC361C2";
shapes = (
{
closed = 1;
nodes = (
(654,395,l),
(1209,1338,l),
(1199,1356,l),
(1163,1370,o),
(1096,1377,o),
(1043,1377,cs),
(1005,1377,o),
(963,1375,o),
(919,1366,c),
(725,1018,ls),
(679,935,o),
(625,824,o),
(578,722,c),
(566,722,l),
(556,826,o),
(543,934,o),
(526,1039,cs),
(495,1226,ls),
(482,1308,o),
(457,1383,o),
(348,1383,cs),
(293,1383,o),
(228,1364,o),
(177,1339,c),
(375,395,l)
);
},
{
closed = 1;
nodes = (
(475,-11,o),
(536,-9,o),
(588,0,c),
(706,615,l),
(405,615,l),
(287,0,l),
(333,-9,o),
(398,-11,o),
(435,-11,cs)
);
}
);
width = 1058.921;
}
);
unicode = 89;
},
{
color = 5;
glyphname = Z;
kernLeft = Z;
kernRight = Z;
lastChange = "2023-06-05 08:18:04 +0000";
layers = (
{
anchors = (
{
name = bottom;
pos = (412,0);
},
{
name = top;
pos = (702,1464);
}
);
layerId = "60A08B03-D3FB-4CD5-9797-EA57F0A37C3C";
shapes = (
{
closed = 1;
nodes = (
(756,0,ls),
(837,0,o),
(880,23,o),
(880,106,cs),
(880,127,o),
(876,152,o),
(872,169,c),
(825,151,o),
(729,137,o),
(623,137,cs),
(391,137,ls),
(327,137,o),
(241,135,o),
(182,130,c),
(179,136,l),
(256,225,o),
(307,288,o),
(369,364,cs),
(1023,1169,ls),
(1054,1207,o),
(1071,1237,o),
(1071,1273,cs),
(1071,1305,o),
(1062,1332,o),
(1054,1366,c),
(304,1366,l),
(285,1325,o),
(277,1278,o),
(279,1235,c),
(611,1231,ls),
(704,1230,o),
(828,1235,o),
(896,1240,c),
(900,1234,l),
(790,1105,o),
(785,1101,o),
(717,1018,cs),
(62,210,ls),
(28,168,o),
(8,137,o),
(8,95,cs),
(8,72,o),
(15,39,o),
(23,0,c)
);
}
);
width = 1024.15;
},
{
anchors = (
{
name = bottom;
pos = (440,0);
},
{
name = top;
pos = (730,1464);
}
);
layerId = "6BF21B58-DCB1-4E7D-A305-B9EC5092F295";
shapes = (
{
closed = 1;
nodes = (
(755,0,ls),
(917,0,o),
(993,42,o),
(993,204,cs),
(993,240,o),
(988,280,o),
(984,305,c),
(907,284,o),
(795,267,o),
(701,267,cs),
(625,267,ls),
(542,267,o),
(449,267,o),
(381,260,c),
(376,266,l),
(441,324,o),
(508,391,o),
(567,457,cs),
(1060,1015,ls),
(1126,1090,o),
(1144,1145,o),
(1144,1201,cs),
(1144,1245,o),
(1133,1301,o),
(1118,1366,c),
(282,1366,l),
(242,1281,o),
(224,1174,o),
(230,1106,c),
(469,1106,ls),
(569,1105,o),
(670,1106,o),
(773,1118,c),
(778,1112,l),
(713,1049,o),
(642,982,o),
(559,889,cs),
(89,354,ls),
(23,281,o),
(1,228,o),
(1,162,cs),
(1,120,o),
(10,70,o),
(28,0,c)
);
}
);
width = 1096.36;
},
{
anchors = (
{
name = bottom;
pos = (410,0);
},
{
name = top;
pos = (700,1464);
}
);
layerId = "62135F79-58D5-4DC2-8CB3-F8AE7229E95A";
shapes = (
{
closed = 1;
nodes = (
(756,0,ls),
(831,0,o),
(871,22,o),
(871,98,cs),
(871,119,o),
(868,143,o),
(864,159,c),
(819,141,o),
(724,128,o),
(617,128,cs),
(374,128,ls),
(311,128,o),
(225,125,o),
(167,120,c),
(164,126,l),
(242,217,o),
(292,280,o),
(354,357,cs),
(1020,1181,ls),
(1049,1216,o),
(1066,1244,o),
(1066,1278,cs),
(1066,1309,o),
(1057,1334,o),
(1049,1366,c),
(306,1366,l),
(288,1328,o),
(281,1286,o),
(283,1244,c),
(622,1240,ls),
(714,1239,o),
(840,1244,o),
(905,1249,c),
(909,1243,l),
(796,1109,o),
(796,1110,o),
(729,1027,cs),
(60,199,ls),
(28,160,o),
(8,130,o),
(8,90,cs),
(8,68,o),
(15,37,o),
(23,0,c)
);
}
);
width = 1018.755;
},
{
anchors = (
{
name = bottom;
pos = (438,0);
},
{
name = top;
pos = (728,1464);
}
);
layerId = "E595FEC6-42D0-4CBC-9ED1-F9D07DC361C2";
shapes = (
{
closed = 1;
nodes = (
(755,0,ls),
(910,0,o),
(983,41,o),
(983,195,cs),
(983,230,o),
(978,269,o),
(974,293,c),
(900,272,o),
(789,256,o),
(693,256,cs),
(604,256,ls),
(523,256,o),
(430,256,o),
(363,249,c),
(358,255,l),
(425,315,o),
(491,382,o),
(549,448,cs),
(1056,1029,ls),
(1120,1100,o),
(1138,1154,o),
(1138,1207,cs),
(1138,1250,o),
(1127,1303,o),
(1112,1366,c),
(285,1366,l),
(246,1285,o),
(229,1183,o),
(235,1117,c),
(482,1117,ls),
(581,1116,o),
(684,1117,o),
(784,1129,c),
(789,1123,l),
(720,1054,o),
(655,992,o),
(573,900,cs),
(87,341,ls),
(23,271,o),
(1,220,o),
(1,156,cs),
(1,116,o),
(10,68,o),
(28,0,c)
);
}
);
width = 1089.969;
}
);
unicode = 90;
},
{
color = 5;
glyphname = a;
kernLeft = a;
kernRight = u;
lastChange = "2023-06-05 08:18:04 +0000";
layers = (
{
anchors = (
{
name = bottom;
pos = (382,0);
},
{
name = ogonek;
pos = (681,-14);
},
{
name = top;
pos = (604,1084);
}
);
layerId = "60A08B03-D3FB-4CD5-9797-EA57F0A37C3C";
shapes = (
{
closed = 1;
nodes = (
(512,-23,o),
(667,132,o),
(718,324,c),
(703,432,l),
(629,216,o),
(477,106,o),
(372,106,cs),
(276,106,o),
(223,192,o),
(223,348,cs),
(223,576,o),
(337,883,o),
(577,883,cs),
(654,883,o),
(739,850,o),
(790,801,c),
(850,901,l),
(788,969,o),
(687,1004,o),
(591,1004,cs),
(275,1004,o),
(76,674,o),
(76,327,cs),
(76,100,o),
(173,-23,o),
(336,-23,cs)
);
},
{
closed = 1;
nodes = (
(772,0,o),
(801,27,o),
(814,58,c),
(792,84,o),
(783,120,o),
(783,159,cs),
(783,202,o),
(793,258,o),
(801,303,cs),
(933,983,l),
(924,995,l),
(888,995,ls),
(841,995,o),
(823,979,o),
(802,953,cs),
(776,920,l),
(635,191,l),
(634,127,o),
(641,28,o),
(738,-14,c)
);
}
);
width = 1002.3;
},
{
anchors = (
{
name = bottom;
pos = (409,0);
},
{
name = ogonek;
pos = (734,-16);
},
{
name = top;
pos = (621,1084);
}
);
layerId = "6BF21B58-DCB1-4E7D-A305-B9EC5092F295";
shapes = (
{
closed = 1;
nodes = (
(494,-29,o),
(629,158,o),
(660,396,c),
(622,478,l),
(546,274,o),
(461,220,o),
(412,220,cs),
(368,220,o),
(345,261,o),
(345,344,cs),
(345,493,o),
(410,805,o),
(588,805,cs),
(620,805,o),
(663,795,o),
(689,767,c),
(855,928,l),
(793,989,o),
(693,1028,o),
(585,1028,cs),
(237,1028,o),
(38,646,o),
(38,312,cs),
(38,84,o),
(146,-29,o),
(296,-29,cs)
);
},
{
closed = 1;
nodes = (
(830,12,o),
(883,80,o),
(899,139,c),
(868,170,o),
(863,200,o),
(863,229,cs),
(863,263,o),
(872,307,o),
(879,346,cs),
(1005,999,l),
(994,1012,l),
(941,1012,ls),
(849,1012,o),
(813,991,o),
(756,930,cs),
(674,841,l),
(557,240,l),
(558,114,o),
(608,0,o),
(778,-16,c)
);
}
);
width = 1024.92;
},
{
anchors = (
{
name = bottom;
pos = (380,0);
},
{
name = ogonek;
pos = (677,-14);
},
{
name = top;
pos = (603,1084);
}
);
layerId = "62135F79-58D5-4DC2-8CB3-F8AE7229E95A";
shapes = (
{
closed = 1;
nodes = (
(513,-23,o),
(670,130,o),
(722,319,c),
(709,428,l),
(635,212,o),
(478,97,o),
(369,97,cs),
(269,97,o),
(214,187,o),
(214,348,cs),
(214,582,o),
(332,889,o),
(576,889,cs),
(657,889,o),
(744,854,o),
(798,804,c),
(850,899,l),
(788,968,o),
(687,1002,o),
(591,1002,cs),
(278,1002,o),
(79,676,o),
(79,328,cs),
(79,101,o),
(175,-23,o),
(339,-23,cs)
);
},
{
closed = 1;
nodes = (
(768,-1,o),
(795,23,o),
(808,52,c),
(787,78,o),
(777,114,o),
(777,154,cs),
(777,197,o),
(787,254,o),
(795,300,cs),
(928,982,l),
(919,994,l),
(884,994,ls),
(840,994,o),
(824,978,o),
(806,955,cs),
(784,926,l),
(641,187,l),
(639,128,o),
(644,30,o),
(735,-14,c)
);
}
);
width = 1000.61;
},
{
anchors = (
{
name = bottom;
pos = (407,0);
},
{
name = ogonek;
pos = (729,-16);
},
{
name = top;
pos = (620,1084);
}
);
layerId = "E595FEC6-42D0-4CBC-9ED1-F9D07DC361C2";
shapes = (
{
closed = 1;
nodes = (
(495,-29,o),
(633,156,o),
(665,390,c),
(629,474,l),
(553,269,o),
(462,210,o),
(408,210,cs),
(359,210,o),
(334,255,o),
(334,344,cs),
(334,500,o),
(404,813,o),
(587,813,cs),
(623,813,o),
(669,800,o),
(698,770,c),
(855,926,l),
(793,988,o),
(693,1025,o),
(585,1025,cs),
(241,1025,o),
(42,648,o),
(42,313,cs),
(42,85,o),
(148,-29,o),
(300,-29,cs)
);
},
{
closed = 1;
nodes = (
(825,11,o),
(876,75,o),
(892,132,c),
(862,163,o),
(856,193,o),
(856,223,cs),
(856,258,o),
(865,302,o),
(871,342,cs),
(999,998,l),
(988,1011,l),
(936,1011,ls),
(848,1011,o),
(814,990,o),
(760,933,cs),
(683,849,l),
(565,235,l),
(564,115,o),
(611,2,o),
(774,-16,c)
);
}
);
width = 1022.918;
}
);
metricRight = u;
unicode = 97;
},
{
color = 5;
glyphname = b;
kernLeft = h;
kernRight = o;
lastChange = "2023-06-05 08:18:04 +0000";
layers = (
{
anchors = (
{
name = bottom;
pos = (390,0);
},
{
name = top;
pos = (712,1520);
}
);
layerId = "60A08B03-D3FB-4CD5-9797-EA57F0A37C3C";
shapes = (
{
closed = 1;
nodes = (
(712,-20,o),
(924,281,o),
(924,646,cs),
(924,901,o),
(805,997,o),
(668,997,cs),
(497,997,o),
(334,852,o),
(278,627,c),
(299,540,l),
(365,749,o),
(517,868,o),
(631,868,cs),
(711,868,o),
(776,798,o),
(776,626,cs),
(776,345,o),
(626,97,o),
(385,97,cs),
(305,97,o),
(234,122,o),
(179,163,c),
(77,53,l),
(156,9,o),
(260,-20,o),
(368,-20,cs)
);
},
{
closed = 1;
nodes = (
(478,1366,ls),
(481,1384,o),
(484,1401,o),
(484,1413,cs),
(484,1458,o),
(451,1470,o),
(423,1470,cs),
(364,1470,l),
(350,1458,l),
(77,53,l),
(221,49,l)
);
}
);
width = 996.5;
},
{
anchors = (
{
name = bottom;
pos = (413,0);
},
{
name = top;
pos = (750,1520);
}
);
layerId = "6BF21B58-DCB1-4E7D-A305-B9EC5092F295";
shapes = (
{
closed = 1;
nodes = (
(790,-26,o),
(984,341,o),
(984,667,cs),
(984,902,o),
(884,1017,o),
(728,1017,cs),
(530,1017,o),
(398,819,o),
(366,553,c),
(400,510,l),
(476,714,o),
(563,768,o),
(613,768,cs),
(657,768,o),
(678,726,o),
(678,639,cs),
(678,463,o),
(595,194,o),
(413,194,cs),
(349,194,o),
(270,228,o),
(215,275,c),
(28,57,l),
(132,0,o),
(260,-26,o),
(371,-26,cs)
);
},
{
closed = 1;
nodes = (
(556,1212,ls),
(566,1267,o),
(575,1306,o),
(575,1345,cs),
(575,1431,o),
(528,1472,o),
(434,1472,cs),
(319,1472,l),
(302,1458,l),
(29,57,l),
(329,50,l)
);
}
);
width = 1022.6;
},
{
anchors = (
{
name = bottom;
pos = (388,0);
},
{
name = top;
pos = (709,1520);
}
);
layerId = "62135F79-58D5-4DC2-8CB3-F8AE7229E95A";
shapes = (
{
closed = 1;
nodes = (
(706,-20,o),
(919,277,o),
(919,645,cs),
(919,901,o),
(799,996,o),
(664,996,cs),
(494,996,o),
(329,855,o),
(271,632,c),
(291,542,l),
(357,752,o),
(513,876,o),
(632,876,cs),
(715,876,o),
(784,803,o),
(784,625,cs),
(784,336,o),
(628,90,o),
(383,90,cs),
(301,90,o),
(231,114,o),
(176,155,c),
(81,53,l),
(158,9,o),
(260,-20,o),
(368,-20,cs)
);
},
{
closed = 1;
nodes = (
(472,1378,ls),
(475,1393,o),
(477,1408,o),
(477,1418,cs),
(477,1460,o),
(445,1470,o),
(422,1470,cs),
(368,1470,l),
(354,1458,l),
(81,53,l),
(213,49,l)
);
}
);
width = 994.55;
},
{
anchors = (
{
name = bottom;
pos = (410,0);
},
{
name = top;
pos = (746,1520);
}
);
layerId = "E595FEC6-42D0-4CBC-9ED1-F9D07DC361C2";
shapes = (
{
closed = 1;
nodes = (
(782,-26,o),
(979,336,o),
(979,666,cs),
(979,902,o),
(877,1016,o),
(723,1016,cs),
(527,1016,o),
(392,822,o),
(358,559,c),
(391,512,l),
(466,717,o),
(559,777,o),
(614,777,cs),
(662,777,o),
(687,732,o),
(687,638,cs),
(687,453,o),
(597,186,o),
(411,186,cs),
(345,186,o),
(266,218,o),
(211,265,c),
(33,57,l),
(135,1,o),
(260,-26,o),
(371,-26,cs)
);
},
{
closed = 1;
nodes = (
(549,1226,ls),
(559,1277,o),
(567,1315,o),
(567,1351,cs),
(567,1434,o),
(521,1472,o),
(433,1472,cs),
(323,1472,l),
(306,1458,l),
(33,57,l),
(319,50,l)
);
}
);
width = 1020.29;
}
);
metricLeft = n;
metricRight = p;
unicode = 98;
},
{
color = 5;
glyphname = c;
kernLeft = o;
kernRight = c;
lastChange = "2023-06-05 08:18:04 +0000";
layers = (
{
anchors = (
{
name = bottom;
pos = (369,0);
},
{
name = top;
pos = (576,1084);
}
);
layerId = "60A08B03-D3FB-4CD5-9797-EA57F0A37C3C";
shapes = (
{
closed = 1;
nodes = (
(503,-24,o),
(635,35,o),
(718,116,c),
(712,151,o),
(683,191,o),
(657,210,c),
(584,153,o),
(498,104,o),
(404,104,cs),
(272,104,o),
(220,202,o),
(220,355,cs),
(220,586,o),
(339,887,o),
(549,887,cs),
(638,887,o),
(687,827,o),
(687,722,cs),
(687,688,o),
(682,657,o),
(677,638,c),
(695,632,o),
(719,628,o),
(740,628,cs),
(805,628,o),
(835,668,o),
(835,748,cs),
(835,889,o),
(744,1005,o),
(571,1005,cs),
(252,1005,o),
(72,645,o),
(72,338,cs),
(72,111,o),
(170,-24,o),
(371,-24,cs)
);
}
);
width = 848.95;
},
{
anchors = (
{
name = bottom;
pos = (383,0);
},
{
name = top;
pos = (586,1084);
}
);
layerId = "6BF21B58-DCB1-4E7D-A305-B9EC5092F295";
shapes = (
{
closed = 1;
nodes = (
(538,-29,o),
(685,33,o),
(767,119,c),
(760,185,o),
(706,267,o),
(655,294,c),
(600,248,o),
(531,208,o),
(460,208,cs),
(394,208,o),
(344,247,o),
(344,369,cs),
(344,519,o),
(418,796,o),
(535,796,cs),
(578,796,o),
(599,763,o),
(599,704,cs),
(599,653,o),
(588,605,o),
(580,561,c),
(610,550,o),
(658,544,o),
(693,544,cs),
(819,544,o),
(878,627,o),
(878,748,cs),
(878,915,o),
(760,1028,o),
(575,1028,cs),
(222,1028,o),
(42,652,o),
(42,353,cs),
(42,100,o),
(172,-29,o),
(388,-29,cs)
);
}
);
width = 865.48;
},
{
anchors = (
{
name = bottom;
pos = (368,0);
},
{
name = top;
pos = (575,1084);
}
);
layerId = "62135F79-58D5-4DC2-8CB3-F8AE7229E95A";
shapes = (
{
closed = 1;
nodes = (
(500,-24,o),
(631,35,o),
(714,116,c),
(708,148,o),
(681,186,o),
(657,204,c),
(583,146,o),
(495,96,o),
(400,96,cs),
(263,96,o),
(211,198,o),
(211,354,cs),
(211,591,o),
(333,894,o),
(550,894,cs),
(642,894,o),
(694,832,o),
(694,723,cs),
(694,691,o),
(689,661,o),
(684,644,c),
(701,638,o),
(724,634,o),
(744,634,cs),
(804,634,o),
(832,671,o),
(832,748,cs),
(832,887,o),
(743,1003,o),
(571,1003,cs),
(254,1003,o),
(74,645,o),
(74,337,cs),
(74,112,o),
(170,-24,o),
(370,-24,cs)
);
}
);
width = 847.715;
},
{
anchors = (
{
name = bottom;
pos = (382,0);
},
{
name = top;
pos = (585,1084);
}
);
layerId = "E595FEC6-42D0-4CBC-9ED1-F9D07DC361C2";
shapes = (
{
closed = 1;
nodes = (
(535,-29,o),
(680,33,o),
(762,119,c),
(756,182,o),
(703,261,o),
(655,287,c),
(599,240,o),
(528,199,o),
(455,199,cs),
(383,199,o),
(333,243,o),
(333,368,cs),
(333,525,o),
(411,804,o),
(536,804,cs),
(583,804,o),
(607,769,o),
(607,705,cs),
(607,656,o),
(597,610,o),
(588,568,c),
(617,557,o),
(663,551,o),
(697,551,cs),
(818,551,o),
(874,631,o),
(874,748,cs),
(874,912,o),
(759,1025,o),
(575,1025,cs),
(224,1025,o),
(44,652,o),
(44,352,cs),
(44,101,o),
(172,-29,o),
(387,-29,cs)
);
}
);
width = 864.017;
}
);
metricLeft = o;
unicode = 99;
},
{
color = 5;
glyphname = d;
kernLeft = a;
kernRight = d;
lastChange = "2023-06-05 08:18:04 +0000";
layers = (
{
anchors = (
{
name = bottom;
pos = (447,0);
},
{
name = top;
pos = (695,1520);
},
{
name = topright;
pos = (939,981);
}
);
layerId = "60A08B03-D3FB-4CD5-9797-EA57F0A37C3C";
shapes = (
{
closed = 1;
nodes = (
(512,-23,o),
(667,132,o),
(718,324,c),
(703,432,l),
(629,216,o),
(477,106,o),
(372,106,cs),
(276,106,o),
(223,192,o),
(223,348,cs),
(223,576,o),
(337,882,o),
(577,882,cs),
(654,882,o),
(739,849,o),
(790,801,c),
(848,900,l),
(787,969,o),
(687,1004,o),
(591,1004,cs),
(275,1004,o),
(76,674,o),
(76,327,cs),
(76,100,o),
(173,-23,o),
(336,-23,cs)
);
},
{
closed = 1;
nodes = (
(772,0,o),
(801,27,o),
(814,58,c),
(792,84,o),
(783,120,o),
(783,159,cs),
(783,202,o),
(793,258,o),
(801,303,cs),
(1008,1366,ls),
(1012,1384,o),
(1015,1401,o),
(1015,1413,cs),
(1015,1458,o),
(982,1470,o),
(953,1470,cs),
(895,1470,l),
(881,1458,l),
(635,191,l),
(634,127,o),
(641,28,o),
(738,-14,c)
);
}
);
width = 999.25;
},
{
anchors = (
{
name = bottom;
pos = (442,0);
},
{
name = top;
pos = (680,1520);
},
{
name = topright;
pos = (1021,998);
}
);
layerId = "6BF21B58-DCB1-4E7D-A305-B9EC5092F295";
shapes = (
{
closed = 1;
nodes = (
(493,-29,o),
(628,158,o),
(659,396,c),
(621,478,l),
(545,274,o),
(461,220,o),
(411,220,cs),
(367,220,o),
(344,261,o),
(344,344,cs),
(344,490,o),
(409,796,o),
(587,796,cs),
(619,796,o),
(662,786,o),
(688,758,c),
(817,919,l),
(763,980,o),
(678,1019,o),
(584,1019,cs),
(237,1019,o),
(38,641,o),
(38,312,cs),
(38,84,o),
(145,-29,o),
(295,-29,cs)
);
},
{
closed = 1;
nodes = (
(829,12,o),
(882,80,o),
(898,139,c),
(867,170,o),
(862,200,o),
(862,229,cs),
(862,266,o),
(871,307,o),
(878,346,cs),
(1046,1215,ls),
(1057,1270,o),
(1065,1312,o),
(1065,1345,cs),
(1065,1431,o),
(1019,1472,o),
(925,1472,cs),
(810,1472,l),
(793,1458,l),
(556,240,l),
(557,114,o),
(607,0,o),
(777,-16,c)
);
}
);
width = 1021;
},
{
anchors = (
{
name = bottom;
pos = (447,0);
},
{
name = top;
pos = (696,1520);
},
{
name = topright;
pos = (933,980);
}
);
layerId = "62135F79-58D5-4DC2-8CB3-F8AE7229E95A";
shapes = (
{
closed = 1;
nodes = (
(513,-23,o),
(670,130,o),
(722,319,c),
(709,428,l),
(635,212,o),
(478,97,o),
(369,97,cs),
(269,97,o),
(214,187,o),
(214,348,cs),
(214,582,o),
(332,888,o),
(576,888,cs),
(657,888,o),
(745,854,o),
(798,804,c),
(850,899,l),
(789,968,o),
(687,1003,o),
(591,1003,cs),
(278,1003,o),
(79,677,o),
(79,328,cs),
(79,101,o),
(175,-23,o),
(339,-23,cs)
);
},
{
closed = 1;
nodes = (
(768,-1,o),
(795,23,o),
(808,52,c),
(787,78,o),
(777,114,o),
(777,154,cs),
(777,197,o),
(787,254,o),
(795,300,cs),
(1005,1377,ls),
(1008,1393,o),
(1011,1408,o),
(1011,1418,cs),
(1011,1460,o),
(979,1470,o),
(955,1470,cs),
(901,1470,l),
(888,1458,l),
(641,187,l),
(640,128,o),
(644,30,o),
(735,-14,c)
);
}
);
width = 997.625;
},
{
anchors = (
{
name = bottom;
pos = (442,0);
},
{
name = top;
pos = (681,1520);
},
{
name = topright;
pos = (1014,997);
}
);
layerId = "E595FEC6-42D0-4CBC-9ED1-F9D07DC361C2";
shapes = (
{
closed = 1;
nodes = (
(494,-29,o),
(632,156,o),
(664,390,c),
(628,474,l),
(552,269,o),
(462,210,o),
(407,210,cs),
(359,210,o),
(333,255,o),
(333,344,cs),
(333,497,o),
(403,803,o),
(586,803,cs),
(622,803,o),
(669,792,o),
(697,762,c),
(819,918,l),
(766,979,o),
(679,1018,o),
(584,1018,cs),
(241,1018,o),
(42,644,o),
(42,313,cs),
(42,85,o),
(147,-29,o),
(299,-29,cs)
);
},
{
closed = 1;
nodes = (
(824,11,o),
(875,75,o),
(891,132,c),
(861,163,o),
(855,193,o),
(855,223,cs),
(855,260,o),
(864,302,o),
(871,342,cs),
(1042,1228,ls),
(1053,1280,o),
(1060,1320,o),
(1060,1351,cs),
(1060,1434,o),
(1015,1472,o),
(927,1472,cs),
(817,1472,l),
(801,1458,l),
(564,235,l),
(564,115,o),
(610,2,o),
(773,-16,c)
);
}
);
width = 1019.075;
}
);
metricLeft = a;
metricRight = "=a-3";
unicode = 100;
},
{
color = 5;
glyphname = e;
kernLeft = o;
kernRight = e;
lastChange = "2023-06-05 08:18:04 +0000";
layers = (
{
anchors = (
{
name = bottom;
pos = (380,0);
},
{
name = ogonek;
pos = (520,0);
},
{
name = top;
pos = (579,1084);
}
);
layerId = "60A08B03-D3FB-4CD5-9797-EA57F0A37C3C";
shapes = (
{
closed = 1;
nodes = (
(523,-24,o),
(662,31,o),
(735,101,c),
(727,139,o),
(704,175,o),
(677,196,c),
(599,137,o),
(503,103,o),
(415,104,cs),
(282,106,o),
(221,203,o),
(221,354,cs),
(221,357,ls),
(221,652,o),
(395,891,o),
(573,891,cs),
(657,891,o),
(712,836,o),
(712,753,cs),
(712,671,o),
(655,612,o),
(548,570,cs),
(437,527,o),
(286,510,o),
(176,501,c),
(184,385,l),
(343,399,o),
(504,428,o),
(623,474,cs),
(780,535,o),
(859,624,o),
(859,753,cs),
(859,905,o),
(749,1005,o),
(585,1005,cs),
(294,1005,o),
(73,686,o),
(73,348,cs),
(73,97,o),
(200,-24,o),
(394,-24,cs)
);
}
);
width = 882.2;
},
{
anchors = (
{
name = bottom;
pos = (404,0);
},
{
name = ogonek;
pos = (601,0);
},
{
name = top;
pos = (590,1084);
}
);
layerId = "6BF21B58-DCB1-4E7D-A305-B9EC5092F295";
shapes = (
{
closed = 1;
nodes = (
(560,-29,o),
(720,26,o),
(796,93,c),
(787,166,o),
(747,243,o),
(699,278,c),
(637,234,o),
(547,206,o),
(475,206,cs),
(381,206,o),
(342,262,o),
(342,347,cs),
(342,387,ls),
(342,590,o),
(435,806,o),
(553,806,cs),
(597,806,o),
(629,775,o),
(629,724,cs),
(629,667,o),
(589,626,o),
(511,596,cs),
(441,568,o),
(357,556,o),
(265,542,c),
(283,347,l),
(372,355,o),
(531,382,o),
(653,428,cs),
(829,495,o),
(916,595,o),
(916,739,cs),
(916,921,o),
(778,1028,o),
(589,1028,cs),
(251,1028,o),
(44,691,o),
(44,368,cs),
(44,112,o),
(179,-29,o),
(411,-29,cs)
);
}
);
width = 920.48;
},
{
anchors = (
{
name = bottom;
pos = (378,0);
},
{
name = ogonek;
pos = (514,0);
},
{
name = top;
pos = (578,1084);
}
);
layerId = "62135F79-58D5-4DC2-8CB3-F8AE7229E95A";
shapes = (
{
closed = 1;
nodes = (
(520,-24,o),
(658,31,o),
(730,101,c),
(723,137,o),
(701,170,o),
(675,190,c),
(596,130,o),
(499,95,o),
(410,96,cs),
(274,98,o),
(212,199,o),
(212,354,cs),
(212,355,ls),
(212,657,o),
(392,897,o),
(574,897,cs),
(661,897,o),
(718,841,o),
(718,755,cs),
(718,671,o),
(660,611,o),
(551,568,cs),
(437,524,o),
(281,506,o),
(169,498,c),
(176,388,l),
(341,403,o),
(502,432,o),
(621,478,cs),
(776,538,o),
(855,626,o),
(855,754,cs),
(855,904,o),
(747,1003,o),
(585,1003,cs),
(297,1003,o),
(75,686,o),
(75,347,cs),
(75,96,o),
(201,-24,o),
(393,-24,cs)
);
}
);
width = 879.34;
},
{
anchors = (
{
name = bottom;
pos = (401,0);
},
{
name = ogonek;
pos = (594,0);
},
{
name = top;
pos = (589,1084);
}
);
layerId = "E595FEC6-42D0-4CBC-9ED1-F9D07DC361C2";
shapes = (
{
closed = 1;
nodes = (
(556,-29,o),
(715,26,o),
(791,94,c),
(782,164,o),
(743,237,o),
(696,271,c),
(633,226,o),
(543,197,o),
(470,197,cs),
(372,197,o),
(331,257,o),
(331,347,cs),
(331,385,ls),
(331,595,o),
(431,813,o),
(554,813,cs),
(602,813,o),
(636,780,o),
(636,726,cs),
(636,667,o),
(595,625,o),
(515,593,cs),
(441,564,o),
(351,552,o),
(257,538,c),
(274,351,l),
(370,359,o),
(529,386,o),
(651,432,cs),
(824,499,o),
(911,597,o),
(911,740,cs),
(911,920,o),
(776,1025,o),
(589,1025,cs),
(255,1025,o),
(46,691,o),
(46,367,cs),
(46,111,o),
(180,-29,o),
(410,-29,cs)
);
}
);
width = 917.092;
}
);
metricLeft = o;
unicode = 101;
},
{
color = 5;
glyphname = f;
kernLeft = f;
kernRight = f;
lastChange = "2023-06-05 08:18:04 +0000";
layers = (
{
anchors = (
{
name = top;
pos = (620,1530);
}
);
layerId = "60A08B03-D3FB-4CD5-9797-EA57F0A37C3C";
shapes = (
{
closed = 1;
nodes = (
(211,-6,o),
(237,-4,o),
(257,0,c),
(435,913,l),
(438,1089,o),
(451,1197,o),
(486,1267,cs),
(517,1329,o),
(568,1363,o),
(640,1363,cs),
(684,1363,o),
(737,1351,o),
(781,1332,c),
(808,1357,o),
(824,1400,o),
(826,1433,c),
(777,1459,o),
(698,1478,o),
(628,1478,cs),
(512,1478,o),
(416,1426,o),
(361,1322,cs),
(309,1224,o),
(301,1096,o),
(296,945,c),
(112,0,l),
(130,-4,o),
(158,-6,o),
(185,-6,cs)
);
},
{
closed = 1;
nodes = (
(350,873,l),
(683,869,l),
(693,890,o),
(702,929,o),
(702,958,cs),
(702,965,o),
(701,977,o),
(700,983,c),
(368,979,l),
(133,983,l),
(123,962,o),
(115,923,o),
(115,894,cs),
(115,887,o),
(116,875,o),
(116,869,c)
);
}
);
width = 638.45;
},
{
anchors = (
{
name = top;
pos = (665,1521);
}
);
layerId = "6BF21B58-DCB1-4E7D-A305-B9EC5092F295";
shapes = (
{
closed = 1;
nodes = (
(279,-11,o),
(334,-8,o),
(382,0,c),
(548,853,l),
(546,1051,o),
(557,1139,o),
(594,1191,cs),
(620,1228,o),
(659,1245,o),
(700,1245,cs),
(744,1245,o),
(788,1231,o),
(822,1217,c),
(872,1258,o),
(916,1352,o),
(918,1418,c),
(867,1446,o),
(766,1479,o),
(661,1479,cs),
(529,1479,o),
(427,1428,o),
(356,1332,cs),
(273,1222,o),
(259,1092,o),
(259,918,c),
(82,0,l),
(126,-8,o),
(178,-11,o),
(228,-11,cs)
);
},
{
closed = 1;
nodes = (
(362,784,l),
(735,778,l),
(763,833,o),
(780,903,o),
(780,967,cs),
(780,981,o),
(779,993,o),
(778,1000,c),
(403,995,l),
(115,1000,l),
(88,946,o),
(71,875,o),
(71,812,cs),
(71,797,o),
(72,786,o),
(72,778,c)
);
}
);
width = 715.88;
},
{
anchors = (
{
name = top;
pos = (616,1530);
}
);
layerId = "62135F79-58D5-4DC2-8CB3-F8AE7229E95A";
shapes = (
{
closed = 1;
nodes = (
(206,-6,o),
(230,-4,o),
(248,0,c),
(426,917,l),
(430,1092,o),
(443,1201,o),
(478,1272,cs),
(509,1337,o),
(561,1372,o),
(636,1372,cs),
(680,1372,o),
(733,1360,o),
(778,1341,c),
(803,1365,o),
(817,1404,o),
(819,1434,c),
(770,1460,o),
(693,1478,o),
(625,1478,cs),
(511,1478,o),
(415,1426,o),
(361,1321,cs),
(312,1224,o),
(304,1096,o),
(299,947,c),
(114,0,l),
(130,-4,o),
(157,-6,o),
(182,-6,cs)
);
},
{
closed = 1;
nodes = (
(349,880,l),
(679,876,l),
(688,894,o),
(696,931,o),
(696,957,cs),
(696,964,o),
(695,976,o),
(694,982,c),
(365,978,l),
(134,982,l),
(126,963,o),
(118,927,o),
(118,900,cs),
(118,894,o),
(119,882,o),
(120,876,c)
);
}
);
width = 632.665;
},
{
anchors = (
{
name = top;
pos = (661,1522);
}
);
layerId = "E595FEC6-42D0-4CBC-9ED1-F9D07DC361C2";
shapes = (
{
closed = 1;
nodes = (
(273,-11,o),
(326,-8,o),
(371,0,c),
(538,858,l),
(536,1055,o),
(547,1144,o),
(584,1197,cs),
(611,1237,o),
(651,1255,o),
(695,1255,cs),
(739,1255,o),
(783,1242,o),
(818,1227,c),
(866,1267,o),
(907,1356,o),
(909,1419,c),
(859,1447,o),
(760,1479,o),
(658,1479,cs),
(528,1479,o),
(426,1428,o),
(356,1331,cs),
(277,1222,o),
(263,1092,o),
(263,921,c),
(84,0,l),
(126,-8,o),
(177,-11,o),
(225,-11,cs)
);
},
{
closed = 1;
nodes = (
(361,792,l),
(730,786,l),
(757,838,o),
(773,906,o),
(773,966,cs),
(773,980,o),
(772,992,o),
(771,999,c),
(400,994,l),
(116,999,l),
(91,947,o),
(75,879,o),
(75,819,cs),
(75,805,o),
(76,794,o),
(76,786,c)
);
}
);
width = 709.027;
}
);
unicode = 102;
},
{
color = 5;
glyphname = g;
kernLeft = g;
kernRight = g;
lastChange = "2023-06-05 08:18:04 +0000";
layers = (
{
anchors = (
{
name = bottom;
pos = (284,-418);
},
{
name = top;
pos = (589,1084);
}
);
layerId = "60A08B03-D3FB-4CD5-9797-EA57F0A37C3C";
shapes = (
{
closed = 1;
nodes = (
(410,-442,o),
(533,-392,o),
(610,-302,cs),
(709,-186,o),
(737,-25,o),
(757,77,cs),
(879,704,ls),
(897,798,o),
(915,858,o),
(975,914,c),
(969,948,o),
(945,983,o),
(912,995,c),
(789,956,o),
(762,842,o),
(745,752,cs),
(612,62,ls),
(571,-148,o),
(507,-319,o),
(266,-319,cs),
(190,-319,o),
(96,-296,o),
(27,-256,c),
(-1,-280,o),
(-20,-326,o),
(-23,-373,c),
(51,-413,o),
(159,-442,o),
(266,-442,cs)
);
},
{
closed = 1;
nodes = (
(509,-16,o),
(663,139,o),
(713,331,c),
(703,439,l),
(629,223,o),
(477,113,o),
(372,113,cs),
(276,113,o),
(223,196,o),
(223,348,cs),
(223,577,o),
(337,883,o),
(577,883,cs),
(654,883,o),
(739,850,o),
(790,801,c),
(850,901,l),
(788,969,o),
(687,1004,o),
(591,1004,cs),
(275,1004,o),
(76,675,o),
(76,328,cs),
(76,105,o),
(173,-16,o),
(336,-16,cs)
);
}
);
width = 987.45;
},
{
anchors = (
{
name = bottom;
pos = (408,-418);
},
{
name = top;
pos = (721,1084);
}
);
layerId = "6BF21B58-DCB1-4E7D-A305-B9EC5092F295";
shapes = (
{
closed = 1;
nodes = (
(437,-447,o),
(569,-395,o),
(662,-290,cs),
(779,-159,o),
(814,24,o),
(847,193,cs),
(944,695,ls),
(956,757,o),
(970,798,o),
(1039,839,c),
(1037,907,o),
(1006,981,o),
(964,1014,c),
(786,1002,o),
(683,883,o),
(651,714,cs),
(525,57,ls),
(489,-127,o),
(404,-210,o),
(261,-210,cs),
(180,-210,o),
(95,-184,o),
(30,-148,c),
(-29,-195,o),
(-64,-283,o),
(-69,-366,c),
(11,-411,o),
(134,-447,o),
(281,-447,cs)
);
},
{
closed = 1;
nodes = (
(482,-20,o),
(609,167,o),
(639,406,c),
(623,488,l),
(547,283,o),
(462,229,o),
(413,229,cs),
(368,229,o),
(346,270,o),
(346,353,cs),
(346,502,o),
(411,805,o),
(589,805,cs),
(621,805,o),
(664,795,o),
(690,767,c),
(855,928,l),
(793,989,o),
(694,1028,o),
(586,1028,cs),
(238,1028,o),
(39,650,o),
(39,322,cs),
(39,94,o),
(146,-20,o),
(297,-20,cs)
);
}
);
width = 1012.68;
},
{
anchors = (
{
name = bottom;
pos = (275,-418);
},
{
name = top;
pos = (579,1084);
}
);
layerId = "62135F79-58D5-4DC2-8CB3-F8AE7229E95A";
shapes = (
{
closed = 1;
nodes = (
(408,-442,o),
(530,-392,o),
(606,-303,cs),
(704,-188,o),
(731,-29,o),
(750,68,cs),
(874,704,ls),
(893,801,o),
(911,862,o),
(970,919,c),
(964,951,o),
(940,983,o),
(908,994,c),
(789,952,o),
(768,839,o),
(752,755,cs),
(619,62,ls),
(577,-149,o),
(515,-327,o),
(266,-327,cs),
(191,-327,o),
(96,-304,o),
(27,-264,c),
(1,-286,o),
(-17,-329,o),
(-19,-373,c),
(54,-413,o),
(161,-442,o),
(265,-442,cs)
);
},
{
closed = 1;
nodes = (
(511,-16,o),
(667,137,o),
(718,326,c),
(709,435,l),
(635,219,o),
(478,104,o),
(369,104,cs),
(269,104,o),
(214,191,o),
(214,348,cs),
(214,582,o),
(332,889,o),
(576,889,cs),
(657,889,o),
(744,854,o),
(798,804,c),
(850,899,l),
(788,968,o),
(687,1002,o),
(591,1002,cs),
(278,1002,o),
(79,677,o),
(79,328,cs),
(79,106,o),
(175,-16,o),
(339,-16,cs)
);
}
);
width = 985.565;
},
{
anchors = (
{
name = bottom;
pos = (397,-418);
},
{
name = top;
pos = (710,1084);
}
);
layerId = "E595FEC6-42D0-4CBC-9ED1-F9D07DC361C2";
shapes = (
{
closed = 1;
nodes = (
(435,-447,o),
(565,-395,o),
(657,-291,cs),
(773,-161,o),
(807,19,o),
(839,183,cs),
(938,696,ls),
(951,761,o),
(965,803,o),
(1033,845,c),
(1031,911,o),
(1001,981,o),
(959,1013,c),
(786,998,o),
(690,879,o),
(660,718,cs),
(533,57,ls),
(496,-128,o),
(413,-220,o),
(261,-220,cs),
(181,-220,o),
(95,-194,o),
(30,-158,c),
(-27,-202,o),
(-60,-287,o),
(-65,-366,c),
(15,-411,o),
(137,-447,o),
(280,-447,cs)
);
},
{
closed = 1;
nodes = (
(484,-20,o),
(614,165,o),
(645,400,c),
(630,483,l),
(554,278,o),
(463,219,o),
(409,219,cs),
(359,219,o),
(335,264,o),
(335,353,cs),
(335,508,o),
(405,813,o),
(588,813,cs),
(624,813,o),
(670,800,o),
(699,770,c),
(855,926,l),
(793,988,o),
(694,1025,o),
(586,1025,cs),
(242,1025,o),
(43,653,o),
(43,322,cs),
(43,95,o),
(148,-20,o),
(301,-20,cs)
);
}
);
width = 1010.447;
}
);
metricLeft = a;
unicode = 103;
},
{
color = 5;
glyphname = h;
kernLeft = h;
kernRight = n;
lastChange = "2023-06-05 08:18:04 +0000";
layers = (
{
anchors = (
{
name = bottom;
pos = (428,0);
},
{
name = top;
pos = (631,1084);
}
);
layerId = "60A08B03-D3FB-4CD5-9797-EA57F0A37C3C";
shapes = (
{
closed = 1;
nodes = (
(166,-6,o),
(192,-4,o),
(212,0,c),
(477,1366,ls),
(481,1384,o),
(484,1401,o),
(484,1413,cs),
(484,1458,o),
(451,1470,o),
(423,1470,cs),
(364,1470,l),
(350,1458,l),
(67,0,l),
(84,-4,o),
(113,-6,o),
(140,-6,cs)
);
},
{
closed = 1;
nodes = (
(753,-14,o),
(792,3,o),
(811,21,c),
(803,46,o),
(799,74,o),
(799,99,cs),
(799,234,o),
(912,608,o),
(912,772,cs),
(912,901,o),
(837,999,o),
(690,999,cs),
(555,999,o),
(414,914,o),
(337,780,c),
(312,597,l),
(367,735,o),
(514,867,o),
(645,867,cs),
(736,867,o),
(760,804,o),
(760,744,cs),
(760,610,o),
(645,176,o),
(645,59,cs),
(645,21,o),
(659,-14,o),
(716,-14,cs)
);
}
);
width = 1020.15;
},
{
anchors = (
{
name = bottom;
pos = (522,0);
},
{
name = top;
pos = (555,1084);
}
);
layerId = "6BF21B58-DCB1-4E7D-A305-B9EC5092F295";
shapes = (
{
closed = 1;
nodes = (
(216,-11,o),
(278,-9,o),
(318,0,c),
(554,1212,ls),
(564,1267,o),
(573,1312,o),
(573,1345,cs),
(573,1431,o),
(526,1472,o),
(432,1472,cs),
(317,1472,l),
(301,1458,l),
(18,0,l),
(47,-7,o),
(104,-11,o),
(168,-11,cs)
);
},
{
closed = 1;
nodes = (
(783,-16,o),
(859,12,o),
(906,51,c),
(885,77,o),
(877,134,o),
(877,171,cs),
(877,297,o),
(972,596,o),
(972,764,cs),
(972,927,o),
(882,1016,o),
(747,1016,cs),
(613,1016,o),
(496,924,o),
(407,772,c),
(388,496,l),
(427,639,o),
(527,736,o),
(601,736,cs),
(643,736,o),
(658,707,o),
(658,670,cs),
(658,576,o),
(566,247,o),
(566,123,cs),
(566,55,o),
(595,-16,o),
(711,-16,cs)
);
}
);
width = 1040.16;
},
{
anchors = (
{
name = bottom;
pos = (421,0);
},
{
name = top;
pos = (636,1084);
}
);
layerId = "62135F79-58D5-4DC2-8CB3-F8AE7229E95A";
shapes = (
{
closed = 1;
nodes = (
(162,-6,o),
(186,-4,o),
(204,0,c),
(471,1378,ls),
(475,1393,o),
(477,1408,o),
(477,1418,cs),
(477,1460,o),
(446,1470,o),
(422,1470,cs),
(368,1470,l),
(354,1458,l),
(71,0,l),
(87,-4,o),
(113,-6,o),
(138,-6,cs)
);
},
{
closed = 1;
nodes = (
(751,-14,o),
(787,2,o),
(804,19,c),
(797,44,o),
(793,70,o),
(793,94,cs),
(793,229,o),
(907,609,o),
(907,772,cs),
(907,899,o),
(833,998,o),
(686,998,cs),
(551,998,o),
(408,913,o),
(332,780,c),
(307,605,l),
(363,742,o),
(513,877,o),
(648,877,cs),
(743,877,o),
(768,811,o),
(768,749,cs),
(768,613,o),
(651,171,o),
(651,54,cs),
(651,18,o),
(664,-14,o),
(716,-14,cs)
);
}
);
width = 1018.655;
},
{
anchors = (
{
name = bottom;
pos = (513,0);
},
{
name = top;
pos = (561,1084);
}
);
layerId = "E595FEC6-42D0-4CBC-9ED1-F9D07DC361C2";
shapes = (
{
closed = 1;
nodes = (
(211,-11,o),
(271,-9,o),
(308,0,c),
(547,1226,ls),
(557,1277,o),
(565,1320,o),
(565,1351,cs),
(565,1434,o),
(520,1472,o),
(431,1472,cs),
(321,1472,l),
(306,1458,l),
(23,0,l),
(51,-7,o),
(105,-11,o),
(166,-11,cs)
);
},
{
closed = 1;
nodes = (
(781,-16,o),
(853,11,o),
(897,49,c),
(878,75,o),
(869,129,o),
(869,165,cs),
(869,291,o),
(967,597,o),
(967,765,cs),
(967,925,o),
(878,1015,o),
(742,1015,cs),
(608,1015,o),
(489,923,o),
(401,773,c),
(382,505,l),
(422,648,o),
(526,748,o),
(605,748,cs),
(652,748,o),
(667,715,o),
(667,676,cs),
(667,579,o),
(573,241,o),
(573,117,cs),
(573,52,o),
(601,-16,o),
(711,-16,cs)
);
}
);
width = 1038.389;
}
);
metricLeft = n;
metricRight = n;
unicode = 104;
},
{
color = 5;
glyphname = k;
kernLeft = h;
kernRight = k;
lastChange = "2023-06-05 08:18:04 +0000";
layers = (
{
anchors = (
{
name = bottom;
pos = (390,0);
},
{
name = top;
pos = (600,1084);
}
);
layerId = "60A08B03-D3FB-4CD5-9797-EA57F0A37C3C";
shapes = (
{
closed = 1;
nodes = (
(741,-12,o),
(780,9,o),
(801,34,c),
(770,64,o),
(749,117,o),
(729,190,cs),
(680,372,ls),
(640,521,o),
(590,562,o),
(474,562,cs),
(254,562,l),
(231,450,l),
(294,456,ls),
(335,460,o),
(371,462,o),
(397,462,cs),
(497,462,o),
(522,413,o),
(549,314,cs),
(609,93,ls),
(624,36,o),
(631,-12,o),
(698,-12,cs)
);
},
{
closed = 1;
nodes = (
(448,529,ls),
(532,529,o),
(571,557,o),
(613,606,cs),
(933,969,l),
(925,985,l),
(897,987,o),
(852,987,o),
(829,987,cs),
(766,987,o),
(743,953,o),
(711,915,cs),
(452,612,ls),
(438,595,o),
(423,586,o),
(407,586,cs),
(276,578,l),
(264,529,l)
);
},
{
closed = 1;
nodes = (
(166,-6,o),
(192,-4,o),
(212,0,c),
(477,1366,ls),
(481,1384,o),
(484,1401,o),
(484,1413,cs),
(484,1458,o),
(451,1470,o),
(423,1470,cs),
(364,1470,l),
(350,1458,l),
(67,0,l),
(84,-4,o),
(113,-6,o),
(140,-6,cs)
);
}
);
width = 911.95;
},
{
anchors = (
{
name = bottom;
pos = (461,0);
},
{
name = top;
pos = (671,1084);
}
);
layerId = "6BF21B58-DCB1-4E7D-A305-B9EC5092F295";
shapes = (
{
closed = 1;
nodes = (
(787,-17,o),
(872,16,o),
(915,72,c),
(867,113,o),
(863,152,o),
(846,242,cs),
(819,380,ls),
(787,545,o),
(684,576,o),
(574,576,cs),
(262,576,l),
(222,390,l),
(303,400,ls),
(345,405,o),
(376,409,o),
(415,409,cs),
(507,409,o),
(520,381,o),
(534,304,cs),
(564,141,ls),
(578,62,o),
(598,-17,o),
(713,-17,cs)
);
},
{
closed = 1;
nodes = (
(547,529,ls),
(726,529,o),
(783,596,o),
(841,688,cs),
(1036,985,l),
(1027,1002,l),
(938,1005,o),
(890,1006,o),
(873,1006,cs),
(720,1006,o),
(682,941,o),
(652,892,cs),
(533,699,ls),
(516,671,o),
(505,664,o),
(478,664,cs),
(317,661,l),
(290,529,l)
);
},
{
closed = 1;
nodes = (
(216,-11,o),
(278,-9,o),
(318,0,c),
(554,1212,ls),
(564,1267,o),
(573,1312,o),
(573,1345,cs),
(573,1431,o),
(526,1472,o),
(432,1472,cs),
(317,1472,l),
(301,1458,l),
(18,0,l),
(47,-7,o),
(104,-11,o),
(168,-11,cs)
);
}
);
width = 998.08;
},
{
anchors = (
{
name = bottom;
pos = (385,0);
},
{
name = top;
pos = (595,1084);
}
);
layerId = "62135F79-58D5-4DC2-8CB3-F8AE7229E95A";
shapes = (
{
closed = 1;
nodes = (
(737,-12,o),
(773,9,o),
(792,31,c),
(763,60,o),
(740,114,o),
(720,186,cs),
(670,371,ls),
(629,519,o),
(583,561,o),
(466,561,cs),
(253,561,l),
(232,454,l),
(293,460,ls),
(334,464,o),
(371,466,o),
(396,466,cs),
(496,466,o),
(522,415,o),
(550,315,cs),
(613,89,ls),
(628,34,o),
(634,-12,o),
(697,-12,cs)
);
},
{
closed = 1;
nodes = (
(440,529,ls),
(518,529,o),
(555,554,o),
(596,600,cs),
(925,968,l),
(917,984,l),
(894,986,o),
(849,986,o),
(825,986,cs),
(770,986,o),
(748,954,o),
(715,917,cs),
(446,606,ls),
(432,590,o),
(417,580,o),
(402,580,cs),
(273,572,l),
(262,529,l)
);
},
{
closed = 1;
nodes = (
(162,-6,o),
(186,-4,o),
(204,0,c),
(471,1378,ls),
(475,1393,o),
(477,1408,o),
(477,1418,cs),
(477,1460,o),
(446,1470,o),
(422,1470,cs),
(368,1470,l),
(354,1458,l),
(71,0,l),
(87,-4,o),
(113,-6,o),
(138,-6,cs)
);
}
);
width = 905.515;
},
{
anchors = (
{
name = bottom;
pos = (455,0);
},
{
name = top;
pos = (665,1084);
}
);
layerId = "E595FEC6-42D0-4CBC-9ED1-F9D07DC361C2";
shapes = (
{
closed = 1;
nodes = (
(783,-17,o),
(863,16,o),
(905,68,c),
(859,108,o),
(853,149,o),
(836,237,cs),
(807,379,ls),
(774,542,o),
(675,575,o),
(565,575,cs),
(261,575,l),
(223,395,l),
(302,405,ls),
(344,410,o),
(376,414,o),
(414,414,cs),
(506,414,o),
(520,383,o),
(535,305,cs),
(568,137,ls),
(582,59,o),
(601,-17,o),
(712,-17,cs)
);
},
{
closed = 1;
nodes = (
(538,529,ls),
(709,529,o),
(764,592,o),
(821,681,cs),
(1027,984,l),
(1018,1001,l),
(934,1004,o),
(886,1005,o),
(869,1005,cs),
(724,1005,o),
(687,942,o),
(657,895,cs),
(526,692,ls),
(509,665,o),
(498,656,o),
(472,657,cs),
(313,654,l),
(288,529,l)
);
},
{
closed = 1;
nodes = (
(211,-11,o),
(271,-9,o),
(308,0,c),
(547,1226,ls),
(557,1277,o),
(565,1320,o),
(565,1351,cs),
(565,1434,o),
(520,1472,o),
(431,1472,cs),
(321,1472,l),
(306,1458,l),
(23,0,l),
(51,-7,o),
(105,-11,o),
(166,-11,cs)
);
}
);
width = 990.457;
}
);
metricLeft = n;
unicode = 107;
},
{
color = 5;
glyphname = l;
kernLeft = l;
kernRight = l;
lastChange = "2023-06-05 08:18:04 +0000";
layers = (
{
anchors = (
{
name = bottom;
pos = (220,0);
},
{
name = periodcentered;
pos = (586,786);
},
{
name = top;
pos = (441,1563);
},
{
name = topright;
pos = (400,981);
}
);
layerId = "60A08B03-D3FB-4CD5-9797-EA57F0A37C3C";
shapes = (
{
closed = 1;
nodes = (
(295,-6,o),
(346,0,o),
(381,8,c),
(385,21,o),
(387,38,o),
(387,57,cs),
(387,76,o),
(383,103,o),
(377,119,c),
(363,117,o),
(334,115,o),
(312,115,cs),
(269,115,o),
(245,126,o),
(245,172,cs),
(245,194,o),
(251,225,o),
(253,236,cs),
(473,1366,ls),
(477,1385,o),
(480,1400,o),
(480,1413,cs),
(480,1458,o),
(447,1470,o),
(419,1470,cs),
(360,1470,l),
(346,1458,l),
(110,240,ls),
(103,207,o),
(95,165,o),
(95,128,cs),
(95,37,o),
(146,-6,o),
(251,-6,cs)
);
}
);
width = 519.55;
},
{
anchors = (
{
name = bottom;
pos = (258,0);
},
{
name = periodcentered;
pos = (678,786);
},
{
name = top;
pos = (462,1544);
},
{
name = topright;
pos = (516,998);
}
);
layerId = "6BF21B58-DCB1-4E7D-A305-B9EC5092F295";
shapes = (
{
closed = 1;
nodes = (
(355,-9,o),
(417,-3,o),
(490,11,c),
(501,41,o),
(505,90,o),
(505,118,cs),
(505,158,o),
(500,202,o),
(491,232,c),
(477,230,o),
(458,229,o),
(441,229,cs),
(415,229,o),
(372,229,o),
(372,287,cs),
(372,300,o),
(375,324,o),
(380,353,cs),
(548,1218,ls),
(559,1272,o),
(566,1302,o),
(566,1350,cs),
(566,1431,o),
(517,1472,o),
(434,1472,cs),
(310,1472,l),
(293,1458,l),
(83,371,ls),
(73,316,o),
(61,249,o),
(61,203,cs),
(61,59,o),
(141,-9,o),
(285,-9,cs)
);
}
);
width = 598.72;
},
{
anchors = (
{
name = bottom;
pos = (217,0);
},
{
name = periodcentered;
pos = (579,786);
},
{
name = top;
pos = (440,1564);
},
{
name = topright;
pos = (391,980);
}
);
layerId = "62135F79-58D5-4DC2-8CB3-F8AE7229E95A";
shapes = (
{
closed = 1;
nodes = (
(290,-6,o),
(341,0,o),
(373,8,c),
(376,20,o),
(378,34,o),
(378,52,cs),
(378,70,o),
(374,95,o),
(368,111,c),
(354,109,o),
(325,106,o),
(303,106,cs),
(258,106,o),
(236,118,o),
(236,163,cs),
(236,186,o),
(242,217,o),
(244,227,cs),
(468,1377,ls),
(471,1393,o),
(474,1408,o),
(474,1418,cs),
(474,1460,o),
(442,1470,o),
(418,1470,cs),
(364,1470,l),
(350,1458,l),
(112,230,ls),
(105,199,o),
(98,159,o),
(98,123,cs),
(98,35,o),
(146,-6,o),
(248,-6,cs)
);
}
);
width = 513.635;
},
{
anchors = (
{
name = bottom;
pos = (254,0);
},
{
name = periodcentered;
pos = (669,786);
},
{
name = top;
pos = (461,1545);
},
{
name = topright;
pos = (506,997);
}
);
layerId = "E595FEC6-42D0-4CBC-9ED1-F9D07DC361C2";
shapes = (
{
closed = 1;
nodes = (
(350,-9,o),
(411,-3,o),
(480,11,c),
(491,40,o),
(495,85,o),
(495,113,cs),
(495,151,o),
(490,193,o),
(481,222,c),
(467,220,o),
(447,219,o),
(430,219,cs),
(402,219,o),
(361,220,o),
(361,277,cs),
(361,290,o),
(364,315,o),
(369,343,cs),
(542,1231,ls),
(552,1282,o),
(559,1311,o),
(559,1356,cs),
(559,1434,o),
(511,1472,o),
(433,1472,cs),
(315,1472,l),
(298,1458,l),
(86,360,ls),
(75,306,o),
(64,242,o),
(64,197,cs),
(64,56,o),
(141,-9,o),
(282,-9,cs)
);
}
);
width = 591.713;
}
);
unicode = 108;
},
{
color = 5;
glyphname = m;
kernLeft = n;
kernRight = n;
lastChange = "2023-06-05 08:18:04 +0000";
layers = (
{
anchors = (
{
name = bottom;
pos = (635,0);
},
{
name = top;
pos = (840,1084);
}
);
layerId = "60A08B03-D3FB-4CD5-9797-EA57F0A37C3C";
shapes = (
{
closed = 1;
nodes = (
(166,-6,o),
(192,-4,o),
(212,0,c),
(385,892,ls),
(387,904,o),
(389,916,o),
(389,929,cs),
(389,974,o),
(358,987,o),
(329,987,cs),
(270,987,l),
(256,975,l),
(67,0,l),
(84,-4,o),
(112,-6,o),
(140,-6,cs)
);
},
{
closed = 1;
nodes = (
(667,-6,o),
(692,-4,o),
(713,0,c),
(844,675,ls),
(850,705,o),
(853,741,o),
(853,772,cs),
(853,914,o),
(779,999,o),
(656,999,cs),
(519,999,o),
(392,896,o),
(318,748,c),
(293,569,l),
(367,757,o),
(503,867,o),
(605,867,cs),
(681,867,o),
(703,811,o),
(703,744,cs),
(703,694,o),
(692,643,o),
(685,602,cs),
(568,0,l),
(585,-4,o),
(614,-6,o),
(640,-6,cs)
);
},
{
closed = 1;
nodes = (
(1198,-14,o),
(1235,3,o),
(1255,21,c),
(1246,46,o),
(1243,74,o),
(1243,99,cs),
(1244,234,o),
(1355,611,o),
(1355,774,cs),
(1355,915,o),
(1284,999,o),
(1155,999,cs),
(1033,999,o),
(900,924,o),
(812,775,c),
(797,580,l),
(872,767,o),
(1004,867,o),
(1106,867,cs),
(1184,867,o),
(1205,812,o),
(1205,746,cs),
(1205,610,o),
(1090,176,o),
(1090,59,cs),
(1090,21,o),
(1104,-14,o),
(1159,-14,cs)
);
}
);
width = 1463.6;
},
{
anchors = (
{
name = bottom;
pos = (661,0);
},
{
name = top;
pos = (854,1084);
}
);
layerId = "6BF21B58-DCB1-4E7D-A305-B9EC5092F295";
shapes = (
{
closed = 1;
nodes = (
(214,-11,o),
(275,-9,o),
(316,0,c),
(460,740,ls),
(465,764,o),
(476,834,o),
(476,862,cs),
(476,959,o),
(425,1012,o),
(337,1012,cs),
(228,1012,l),
(211,998,l),
(18,0,l),
(47,-7,o),
(102,-11,o),
(166,-11,cs)
);
},
{
closed = 1;
nodes = (
(712,-11,o),
(766,-8,o),
(810,0,c),
(931,625,ls),
(936,653,o),
(945,701,o),
(945,756,cs),
(945,919,o),
(867,1016,o),
(736,1016,cs),
(610,1016,o),
(490,928,o),
(400,772,c),
(381,497,l),
(418,635,o),
(508,736,o),
(578,736,cs),
(615,736,o),
(634,709,o),
(634,665,cs),
(634,646,o),
(631,616,o),
(627,598,cs),
(512,0,l),
(554,-8,o),
(610,-11,o),
(660,-11,cs)
);
},
{
closed = 1;
nodes = (
(1254,-16,o),
(1329,12,o),
(1375,51,c),
(1354,80,o),
(1346,133,o),
(1346,173,cs),
(1346,307,o),
(1444,602,o),
(1441,765,cs),
(1441,910,o),
(1364,1016,o),
(1225,1016,cs),
(1101,1016,o),
(973,932,o),
(889,796,c),
(876,509,l),
(910,628,o),
(1000,736,o),
(1073,736,cs),
(1116,736,o),
(1131,702,o),
(1131,667,cs),
(1131,573,o),
(1039,247,o),
(1039,123,cs),
(1039,56,o),
(1066,-16,o),
(1181,-16,cs)
);
}
);
width = 1508.84;
},
{
anchors = (
{
name = bottom;
pos = (633,0);
},
{
name = top;
pos = (839,1084);
}
);
layerId = "62135F79-58D5-4DC2-8CB3-F8AE7229E95A";
shapes = (
{
closed = 1;
nodes = (
(162,-6,o),
(186,-4,o),
(204,0,c),
(380,903,ls),
(381,914,o),
(383,922,o),
(383,934,cs),
(383,975,o),
(353,985,o),
(328,985,cs),
(273,985,l),
(260,973,l),
(71,0,l),
(87,-4,o),
(113,-6,o),
(138,-6,cs)
);
},
{
closed = 1;
nodes = (
(663,-6,o),
(687,-4,o),
(706,0,c),
(838,679,ls),
(844,709,o),
(846,744,o),
(846,773,cs),
(846,914,o),
(772,998,o),
(650,998,cs),
(512,998,o),
(384,894,o),
(312,746,c),
(286,574,l),
(363,766,o),
(503,877,o),
(607,877,cs),
(686,877,o),
(708,819,o),
(708,750,cs),
(708,698,o),
(697,645,o),
(689,602,cs),
(572,0,l),
(587,-4,o),
(614,-6,o),
(639,-6,cs)
);
},
{
closed = 1;
nodes = (
(1194,-14,o),
(1228,2,o),
(1246,19,c),
(1238,43,o),
(1235,70,o),
(1235,94,cs),
(1236,229,o),
(1348,611,o),
(1349,775,cs),
(1349,915,o),
(1278,998,o),
(1150,998,cs),
(1028,998,o),
(895,923,o),
(806,774,c),
(791,585,l),
(869,777,o),
(1004,877,o),
(1109,877,cs),
(1189,877,o),
(1210,820,o),
(1210,752,cs),
(1210,613,o),
(1094,171,o),
(1094,54,cs),
(1094,18,o),
(1107,-14,o),
(1157,-14,cs)
);
}
);
width = 1460.22;
},
{
anchors = (
{
name = bottom;
pos = (658,0);
},
{
name = top;
pos = (853,1084);
}
);
layerId = "E595FEC6-42D0-4CBC-9ED1-F9D07DC361C2";
shapes = (
{
closed = 1;
nodes = (
(210,-11,o),
(268,-9,o),
(307,0,c),
(454,753,ls),
(457,776,o),
(469,841,o),
(469,868,cs),
(469,960,o),
(419,1009,o),
(336,1009,cs),
(232,1009,l),
(215,995,l),
(23,0,l),
(51,-7,o),
(103,-11,o),
(164,-11,cs)
);
},
{
closed = 1;
nodes = (
(708,-11,o),
(760,-8,o),
(802,0,c),
(924,630,ls),
(929,658,o),
(936,705,o),
(936,757,cs),
(936,919,o),
(859,1015,o),
(729,1015,cs),
(602,1015,o),
(481,926,o),
(393,769,c),
(373,503,l),
(413,646,o),
(508,748,o),
(580,748,cs),
(621,748,o),
(640,718,o),
(640,673,cs),
(640,650,o),
(636,618,o),
(632,598,cs),
(517,0,l),
(556,-8,o),
(610,-11,o),
(659,-11,cs)
);
},
{
closed = 1;
nodes = (
(1249,-16,o),
(1320,11,o),
(1364,49,c),
(1344,77,o),
(1337,128,o),
(1337,167,cs),
(1337,301,o),
(1436,603,o),
(1434,766,cs),
(1434,910,o),
(1357,1015,o),
(1219,1015,cs),
(1095,1015,o),
(967,931,o),
(882,795,c),
(869,515,l),
(906,640,o),
(1000,748,o),
(1076,748,cs),
(1122,748,o),
(1137,712,o),
(1137,675,cs),
(1137,577,o),
(1044,241,o),
(1044,117,cs),
(1044,53,o),
(1070,-16,o),
(1178,-16,cs)
);
}
);
width = 1504.836;
}
);
metricLeft = n;
metricRight = n;
unicode = 109;
},
{
color = 5;
glyphname = n;
kernLeft = n;
kernRight = n;
lastChange = "2023-06-05 08:18:04 +0000";
layers = (
{
anchors = (
{
name = bottom;
pos = (429,0);
},
{
name = top;
pos = (616,1084);
}
);
layerId = "60A08B03-D3FB-4CD5-9797-EA57F0A37C3C";
shapes = (
{
closed = 1;
nodes = (
(753,-14,o),
(792,3,o),
(812,21,c),
(803,46,o),
(800,74,o),
(800,99,cs),
(800,234,o),
(912,608,o),
(912,772,cs),
(912,901,o),
(837,999,o),
(690,999,cs),
(555,999,o),
(414,914,o),
(337,780,c),
(312,597,l),
(368,735,o),
(514,867,o),
(645,867,cs),
(736,867,o),
(760,804,o),
(760,744,cs),
(760,610,o),
(646,176,o),
(646,59,cs),
(646,21,o),
(659,-14,o),
(715,-14,cs)
);
},
{
closed = 1;
nodes = (
(166,-6,o),
(192,-4,o),
(212,0,c),
(385,892,ls),
(388,906,o),
(389,916,o),
(389,929,cs),
(389,974,o),
(357,987,o),
(328,987,cs),
(270,987,l),
(256,975,l),
(67,0,l),
(84,-4,o),
(113,-6,o),
(140,-6,cs)
);
}
);
width = 1020.2;
},
{
anchors = (
{
name = bottom;
pos = (526,0);
},
{
name = top;
pos = (616,1084);
}
);
layerId = "6BF21B58-DCB1-4E7D-A305-B9EC5092F295";
shapes = (
{
closed = 1;
nodes = (
(784,-16,o),
(860,12,o),
(907,51,c),
(886,77,o),
(878,134,o),
(878,171,cs),
(878,297,o),
(973,596,o),
(973,764,cs),
(973,927,o),
(883,1016,o),
(748,1016,cs),
(614,1016,o),
(496,924,o),
(408,772,c),
(389,496,l),
(428,639,o),
(528,736,o),
(602,736,cs),
(644,736,o),
(659,707,o),
(659,670,cs),
(659,576,o),
(567,247,o),
(567,123,cs),
(567,55,o),
(596,-16,o),
(712,-16,cs)
);
},
{
closed = 1;
nodes = (
(216,-11,o),
(280,-9,o),
(319,0,c),
(463,740,ls),
(473,793,o),
(479,834,o),
(479,859,cs),
(479,957,o),
(430,1012,o),
(336,1012,cs),
(228,1012,l),
(211,998,l),
(18,0,l),
(47,-7,o),
(105,-11,o),
(168,-11,cs)
);
}
);
width = 1041.08;
},
{
anchors = (
{
name = bottom;
pos = (422,0);
},
{
name = top;
pos = (616,1084);
}
);
layerId = "62135F79-58D5-4DC2-8CB3-F8AE7229E95A";
shapes = (
{
closed = 1;
nodes = (
(751,-14,o),
(787,2,o),
(805,19,c),
(797,44,o),
(794,70,o),
(794,94,cs),
(794,229,o),
(907,609,o),
(907,772,cs),
(907,899,o),
(833,998,o),
(686,998,cs),
(551,998,o),
(408,913,o),
(332,780,c),
(306,605,l),
(363,742,o),
(513,877,o),
(648,877,cs),
(743,877,o),
(768,811,o),
(768,749,cs),
(768,613,o),
(652,171,o),
(652,54,cs),
(652,18,o),
(664,-14,o),
(715,-14,cs)
);
},
{
closed = 1;
nodes = (
(162,-6,o),
(185,-4,o),
(204,0,c),
(379,903,ls),
(382,914,o),
(382,922,o),
(382,934,cs),
(382,975,o),
(352,985,o),
(327,985,cs),
(273,985,l),
(260,973,l),
(71,0,l),
(87,-4,o),
(113,-6,o),
(138,-6,cs)
);
}
);
width = 1018.64;
},
{
anchors = (
{
name = bottom;
pos = (518,0);
},
{
name = top;
pos = (616,1084);
}
);
layerId = "E595FEC6-42D0-4CBC-9ED1-F9D07DC361C2";
shapes = (
{
closed = 1;
nodes = (
(782,-16,o),
(854,11,o),
(899,49,c),
(879,75,o),
(871,129,o),
(871,165,cs),
(871,291,o),
(968,597,o),
(968,765,cs),
(968,925,o),
(879,1015,o),
(743,1015,cs),
(609,1015,o),
(489,923,o),
(402,773,c),
(382,505,l),
(423,648,o),
(527,748,o),
(606,748,cs),
(653,748,o),
(668,715,o),
(668,676,cs),
(668,579,o),
(575,241,o),
(575,117,cs),
(575,52,o),
(602,-16,o),
(712,-16,cs)
);
},
{
closed = 1;
nodes = (
(211,-11,o),
(272,-9,o),
(309,0,c),
(455,753,ls),
(466,803,o),
(471,841,o),
(471,865,cs),
(471,958,o),
(424,1009,o),
(335,1009,cs),
(232,1009,l),
(215,995,l),
(23,0,l),
(51,-7,o),
(106,-11,o),
(166,-11,cs)
);
}
);
width = 1039.232;
}
);
unicode = 110;
},
{
color = 5;
glyphname = o;
kernLeft = o;
kernRight = o;
lastChange = "2023-06-05 08:18:04 +0000";
layers = (
{
anchors = (
{
name = bottom;
pos = (386,0);
},
{
name = ogonek;
pos = (517,0);
},
{
name = top;
pos = (596,1084);
},
{
name = topright;
pos = (807,961);
}
);
layerId = "60A08B03-D3FB-4CD5-9797-EA57F0A37C3C";
shapes = (
{
closed = 1;
nodes = (
(717,-24,o),
(890,341,o),
(890,635,cs),
(890,889,o),
(751,1005,o),
(568,1005,cs),
(245,1005,o),
(73,639,o),
(73,346,cs),
(73,92,o),
(212,-24,o),
(394,-24,cs)
);
},
{
closed = 1;
nodes = (
(288,91,o),
(221,188,o),
(221,353,cs),
(221,569,o),
(334,890,o),
(553,890,cs),
(675,890,o),
(741,792,o),
(741,629,cs),
(741,413,o),
(628,91,o),
(409,91,cs)
);
}
);
width = 962.7;
},
{
anchors = (
{
name = bottom;
pos = (400,0);
},
{
name = ogonek;
pos = (577,0);
},
{
name = top;
pos = (610,1084);
},
{
name = topright;
pos = (926,969);
}
);
layerId = "6BF21B58-DCB1-4E7D-A305-B9EC5092F295";
shapes = (
{
closed = 1;
nodes = (
(762,-29,o),
(950,325,o),
(950,644,cs),
(950,896,o),
(805,1028,o),
(589,1028,cs),
(230,1028,o),
(42,671,o),
(42,354,cs),
(42,102,o),
(187,-29,o),
(403,-29,cs)
);
},
{
closed = 1;
nodes = (
(380,200,o),
(347,248,o),
(347,344,cs),
(347,468,o),
(410,798,o),
(552,798,cs),
(612,798,o),
(645,751,o),
(645,655,cs),
(645,529,o),
(581,200,o),
(439,200,cs)
);
}
);
width = 992.28;
},
{
anchors = (
{
name = bottom;
pos = (385,0);
},
{
name = ogonek;
pos = (513,0);
},
{
name = top;
pos = (595,1084);
},
{
name = topright;
pos = (798,960);
}
);
layerId = "62135F79-58D5-4DC2-8CB3-F8AE7229E95A";
shapes = (
{
closed = 1;
nodes = (
(713,-24,o),
(885,342,o),
(885,634,cs),
(885,889,o),
(747,1003,o),
(567,1003,cs),
(246,1003,o),
(75,637,o),
(75,346,cs),
(75,91,o),
(214,-24,o),
(393,-24,cs)
);
},
{
closed = 1;
nodes = (
(281,83,o),
(212,183,o),
(212,353,cs),
(212,577,o),
(329,897,o),
(553,897,cs),
(680,897,o),
(748,795,o),
(748,627,cs),
(748,404,o),
(632,83,o),
(407,83,cs)
);
}
);
width = 960.49;
},
{
anchors = (
{
name = bottom;
pos = (399,0);
},
{
name = ogonek;
pos = (572,0);
},
{
name = top;
pos = (609,1084);
},
{
name = topright;
pos = (916,968);
}
);
layerId = "E595FEC6-42D0-4CBC-9ED1-F9D07DC361C2";
shapes = (
{
closed = 1;
nodes = (
(758,-29,o),
(945,326,o),
(945,643,cs),
(945,896,o),
(800,1025,o),
(588,1025,cs),
(231,1025,o),
(44,669,o),
(44,353,cs),
(44,101,o),
(190,-29,o),
(402,-29,cs)
);
},
{
closed = 1;
nodes = (
(371,190,o),
(336,243,o),
(336,345,cs),
(336,477,o),
(404,807,o),
(552,807,cs),
(618,807,o),
(653,755,o),
(653,653,cs),
(653,519,o),
(585,190,o),
(437,190,cs)
);
}
);
width = 989.662;
}
);
metricRight = "=|";
unicode = 111;
},
{
color = 5;
glyphname = p;
kernLeft = p;
kernRight = o;
lastChange = "2023-06-05 08:18:04 +0000";
layers = (
{
anchors = (
{
name = top;
pos = (586,1084);
}
);
layerId = "60A08B03-D3FB-4CD5-9797-EA57F0A37C3C";
shapes = (
{
closed = 1;
nodes = (
(734,-16,o),
(925,318,o),
(925,648,cs),
(925,882,o),
(828,1005,o),
(669,1005,cs),
(491,1005,o),
(334,850,o),
(284,658,c),
(299,550,l),
(373,768,o),
(525,876,o),
(629,876,cs),
(720,876,o),
(777,795,o),
(777,636,cs),
(777,407,o),
(658,106,o),
(423,106,cs),
(345,106,o),
(262,137,o),
(211,184,c),
(153,84,l),
(215,18,o),
(313,-16,o),
(414,-16,cs)
);
},
{
closed = 1;
nodes = (
(51,-430,ls),
(118,-430,o),
(135,-395,o),
(148,-330,cs),
(385,892,ls),
(388,903,o),
(390,917,o),
(390,928,cs),
(390,973,o),
(357,987,o),
(326,987,cs),
(271,987,l),
(256,975,l),
(-14,-418,l),
(-4,-430,l)
);
}
);
width = 996.4;
},
{
anchors = (
{
name = top;
pos = (623,1084);
}
);
layerId = "6BF21B58-DCB1-4E7D-A305-B9EC5092F295";
shapes = (
{
closed = 1;
nodes = (
(777,-21,o),
(985,339,o),
(985,685,cs),
(985,908,o),
(888,1027,o),
(725,1027,cs),
(531,1027,o),
(394,840,o),
(362,601,c),
(400,520,l),
(476,724,o),
(563,778,o),
(611,778,cs),
(657,778,o),
(679,737,o),
(679,653,cs),
(679,503,o),
(609,202,o),
(434,202,cs),
(403,202,o),
(359,212,o),
(334,240,c),
(196,79,l),
(251,13,o),
(337,-21,o),
(440,-21,cs)
);
},
{
closed = 1;
nodes = (
(74,-432,ls),
(192,-432,o),
(244,-380,o),
(267,-263,cs),
(460,730,ls),
(468,769,o),
(472,809,o),
(472,843,cs),
(472,944,o),
(418,1012,o),
(296,1012,cs),
(227,1012,l),
(211,998,l),
(-63,-418,l),
(-52,-432,l)
);
}
);
width = 1020.76;
},
{
anchors = (
{
name = top;
pos = (583,1084);
}
);
layerId = "62135F79-58D5-4DC2-8CB3-F8AE7229E95A";
shapes = (
{
closed = 1;
nodes = (
(731,-16,o),
(920,317,o),
(920,645,cs),
(920,880,o),
(823,1003,o),
(665,1003,cs),
(488,1003,o),
(330,851,o),
(278,662,c),
(291,552,l),
(365,771,o),
(522,884,o),
(630,884,cs),
(725,884,o),
(785,799,o),
(785,635,cs),
(785,400,o),
(662,99,o),
(422,99,cs),
(341,99,o),
(255,132,o),
(202,180,c),
(150,84,l),
(212,18,o),
(311,-16,o),
(412,-16,cs)
);
},
{
closed = 1;
nodes = (
(49,-430,ls),
(113,-430,o),
(127,-396,o),
(139,-335,cs),
(380,904,ls),
(382,913,o),
(384,925,o),
(384,934,cs),
(384,975,o),
(352,985,o),
(328,985,cs),
(274,985,l),
(260,973,l),
(-10,-418,l),
(0,-430,l)
);
}
);
width = 994.58;
},
{
anchors = (
{
name = top;
pos = (619,1084);
}
);
layerId = "E595FEC6-42D0-4CBC-9ED1-F9D07DC361C2";
shapes = (
{
closed = 1;
nodes = (
(774,-21,o),
(980,338,o),
(980,681,cs),
(980,905,o),
(883,1024,o),
(720,1024,cs),
(527,1024,o),
(389,841,o),
(354,606,c),
(391,522,l),
(467,728,o),
(559,787,o),
(612,787,cs),
(663,787,o),
(688,742,o),
(688,652,cs),
(688,495,o),
(614,194,o),
(433,194,cs),
(398,194,o),
(351,206,o),
(323,235,c),
(192,79,l),
(247,13,o),
(334,-21,o),
(437,-21,cs)
);
},
{
closed = 1;
nodes = (
(71,-432,ls),
(186,-432,o),
(234,-381,o),
(257,-269,cs),
(454,745,ls),
(461,781,o),
(465,819,o),
(465,850,cs),
(465,946,o),
(413,1009,o),
(298,1009,cs),
(231,1009,l),
(215,995,l),
(-58,-418,l),
(-48,-432,l)
);
}
);
width = 1018.604;
}
);
metricLeft = n;
metricRight = o;
unicode = 112;
},
{
color = 5;
glyphname = q;
kernLeft = a;
kernRight = q;
lastChange = "2023-06-05 08:18:04 +0000";
layers = (
{
layerId = "60A08B03-D3FB-4CD5-9797-EA57F0A37C3C";
shapes = (
{
closed = 1;
nodes = (
(648,-430,l),
(662,-418,l),
(880,704,ls),
(899,798,o),
(916,860,o),
(976,914,c),
(970,948,o),
(946,983,o),
(913,995,c),
(790,956,o),
(763,842,o),
(745,752,cs),
(535,-326,ls),
(531,-344,o),
(528,-361,o),
(528,-373,cs),
(528,-417,o),
(561,-430,o),
(590,-430,cs)
);
},
{
closed = 1;
nodes = (
(511,-16,o),
(666,139,o),
(708,331,c),
(703,439,l),
(629,223,o),
(477,113,o),
(372,113,cs),
(276,113,o),
(223,196,o),
(223,348,cs),
(223,577,o),
(337,883,o),
(577,883,cs),
(654,883,o),
(739,850,o),
(790,801,c),
(850,901,l),
(788,969,o),
(687,1004,o),
(591,1004,cs),
(275,1004,o),
(76,675,o),
(76,328,cs),
(76,105,o),
(172,-16,o),
(335,-16,cs)
);
}
);
width = 988.5;
},
{
layerId = "6BF21B58-DCB1-4E7D-A305-B9EC5092F295";
shapes = (
{
closed = 1;
nodes = (
(713,-432,l),
(730,-418,l),
(946,695,ls),
(959,764,o),
(976,799,o),
(1041,839,c),
(1039,907,o),
(1008,981,o),
(966,1014,c),
(788,1002,o),
(684,883,o),
(651,714,cs),
(476,-175,ls),
(466,-230,o),
(457,-272,o),
(457,-305,cs),
(457,-391,o),
(504,-432,o),
(598,-432,cs)
);
},
{
closed = 1;
nodes = (
(488,-20,o),
(617,167,o),
(648,406,c),
(623,488,l),
(547,283,o),
(462,229,o),
(413,229,cs),
(368,229,o),
(346,270,o),
(346,353,cs),
(346,502,o),
(411,805,o),
(589,805,cs),
(621,805,o),
(664,795,o),
(690,767,c),
(855,928,l),
(793,989,o),
(694,1028,o),
(586,1028,cs),
(238,1028,o),
(39,650,o),
(39,322,cs),
(39,89,o),
(145,-20,o),
(297,-20,cs)
);
}
);
width = 1014.6;
},
{
layerId = "62135F79-58D5-4DC2-8CB3-F8AE7229E95A";
shapes = (
{
closed = 1;
nodes = (
(643,-430,l),
(657,-418,l),
(875,704,ls),
(894,801,o),
(912,864,o),
(971,919,c),
(965,951,o),
(941,983,o),
(909,994,c),
(790,952,o),
(769,839,o),
(752,755,cs),
(539,-337,ls),
(536,-353,o),
(533,-368,o),
(533,-378,cs),
(533,-419,o),
(565,-430,o),
(589,-430,cs)
);
},
{
closed = 1;
nodes = (
(513,-16,o),
(670,137,o),
(712,326,c),
(709,435,l),
(635,219,o),
(478,104,o),
(369,104,cs),
(269,104,o),
(214,191,o),
(214,348,cs),
(214,582,o),
(332,889,o),
(576,889,cs),
(657,889,o),
(744,854,o),
(798,804,c),
(850,899,l),
(788,968,o),
(687,1002,o),
(591,1002,cs),
(278,1002,o),
(79,677,o),
(79,328,cs),
(79,106,o),
(174,-16,o),
(338,-16,cs)
);
}
);
width = 986.55;
},
{
layerId = "E595FEC6-42D0-4CBC-9ED1-F9D07DC361C2";
shapes = (
{
closed = 1;
nodes = (
(707,-432,l),
(724,-418,l),
(940,696,ls),
(954,767,o),
(971,804,o),
(1035,845,c),
(1033,911,o),
(1003,981,o),
(961,1013,c),
(788,998,o),
(692,879,o),
(660,718,cs),
(481,-188,ls),
(472,-240,o),
(463,-280,o),
(463,-311,cs),
(463,-393,o),
(509,-432,o),
(597,-432,cs)
);
},
{
closed = 1;
nodes = (
(491,-20,o),
(622,165,o),
(653,400,c),
(630,483,l),
(554,278,o),
(463,219,o),
(409,219,cs),
(359,219,o),
(335,264,o),
(335,353,cs),
(335,508,o),
(405,813,o),
(588,813,cs),
(624,813,o),
(670,800,o),
(699,770,c),
(855,926,l),
(793,988,o),
(694,1025,o),
(586,1025,cs),
(242,1025,o),
(43,653,o),
(43,322,cs),
(43,90,o),
(147,-20,o),
(301,-20,cs)
);
}
);
width = 1012.29;
}
);
metricLeft = a;
unicode = 113;
},
{
color = 5;
glyphname = r;
kernLeft = r;
kernRight = r;
lastChange = "2023-06-05 08:18:04 +0000";
layers = (
{
anchors = (
{
name = bottom;
pos = (160,0);
},
{
name = top;
pos = (484,1084);
}
);
layerId = "60A08B03-D3FB-4CD5-9797-EA57F0A37C3C";
shapes = (
{
closed = 1;
nodes = (
(182,-6,o),
(208,-4,o),
(228,0,c),
(372,740,l),
(374,856,o),
(348,955,o),
(261,995,c),
(229,986,o),
(194,950,o),
(181,916,c),
(206,890,o),
(226,842,o),
(226,786,cs),
(226,760,o),
(221,719,o),
(215,689,cs),
(83,0,l),
(101,-4,o),
(125,-6,o),
(155,-6,cs)
);
},
{
closed = 1;
nodes = (
(365,689,o),
(457,849,o),
(628,849,cs),
(647,849,o),
(675,845,o),
(695,842,c),
(726,886,o),
(736,946,o),
(735,985,c),
(712,991,o),
(680,995,o),
(646,995,cs),
(449,995,o),
(341,815,o),
(286,585,c),
(310,527,l)
);
}
);
width = 664.85;
},
{
anchors = (
{
name = bottom;
pos = (194,0);
},
{
name = top;
pos = (530,1084);
}
);
layerId = "6BF21B58-DCB1-4E7D-A305-B9EC5092F295";
shapes = (
{
closed = 1;
nodes = (
(227,-11,o),
(290,-9,o),
(331,0,c),
(466,703,l),
(464,877,o),
(403,988,o),
(240,1014,c),
(189,987,o),
(136,918,o),
(118,860,c),
(145,835,o),
(165,796,o),
(165,739,cs),
(165,702,o),
(157,664,o),
(153,641,cs),
(29,0,l),
(58,-7,o),
(114,-11,o),
(180,-11,cs)
);
},
{
closed = 1;
nodes = (
(468,662,o),
(544,724,o),
(636,724,cs),
(667,724,o),
(710,712,o),
(742,702,c),
(798,782,o),
(824,907,o),
(826,998,c),
(792,1009,o),
(761,1012,o),
(721,1012,cs),
(502,1012,o),
(426,824,o),
(353,558,c),
(406,502,l)
);
}
);
width = 749.24;
},
{
anchors = (
{
name = bottom;
pos = (157,0);
},
{
name = top;
pos = (480,1084);
}
);
layerId = "62135F79-58D5-4DC2-8CB3-F8AE7229E95A";
shapes = (
{
closed = 1;
nodes = (
(178,-6,o),
(202,-4,o),
(220,0,c),
(365,743,l),
(367,855,o),
(344,952,o),
(262,994,c),
(232,986,o),
(198,952,o),
(186,920,c),
(211,894,o),
(230,846,o),
(230,790,cs),
(230,764,o),
(226,723,o),
(220,693,cs),
(87,0,l),
(104,-4,o),
(126,-6,o),
(153,-6,cs)
);
},
{
closed = 1;
nodes = (
(357,691,o),
(451,858,o),
(627,858,cs),
(646,858,o),
(672,855,o),
(691,852,c),
(721,894,o),
(729,949,o),
(728,984,c),
(706,990,o),
(674,994,o),
(641,994,cs),
(445,994,o),
(335,814,o),
(281,587,c),
(303,529,l)
);
}
);
width = 658.545;
},
{
anchors = (
{
name = bottom;
pos = (191,0);
},
{
name = top;
pos = (526,1084);
}
);
layerId = "E595FEC6-42D0-4CBC-9ED1-F9D07DC361C2";
shapes = (
{
closed = 1;
nodes = (
(223,-11,o),
(283,-9,o),
(322,0,c),
(457,707,l),
(456,876,o),
(398,985,o),
(241,1013,c),
(193,987,o),
(141,920,o),
(124,865,c),
(150,840,o),
(170,800,o),
(170,743,cs),
(170,707,o),
(163,669,o),
(158,645,cs),
(34,0,l),
(62,-7,o),
(115,-11,o),
(177,-11,cs)
);
},
{
closed = 1;
nodes = (
(459,664,o),
(537,735,o),
(635,735,cs),
(666,735,o),
(707,724,o),
(738,714,c),
(792,791,o),
(816,911,o),
(818,997,c),
(785,1008,o),
(754,1011,o),
(715,1011,cs),
(497,1011,o),
(419,823,o),
(347,561,c),
(398,505,l)
);
}
);
width = 741.771;
}
);
unicode = 114;
},
{
color = 5;
glyphname = s;
kernLeft = s;
kernRight = s;
lastChange = "2023-06-05 08:18:04 +0000";
layers = (
{
anchors = (
{
name = bottom;
pos = (295,0);
},
{
name = top;
pos = (495,1084);
}
);
layerId = "60A08B03-D3FB-4CD5-9797-EA57F0A37C3C";
shapes = (
{
closed = 1;
nodes = (
(505,-24,o),
(675,97,o),
(675,298,cs),
(675,458,o),
(559,516,o),
(472,556,cs),
(439,571,ls),
(372,601,o),
(292,636,o),
(292,722,cs),
(292,809,o),
(368,885,o),
(493,885,cs),
(570,885,o),
(642,858,o),
(694,823,c),
(730,847,o),
(757,896,o),
(759,935,c),
(701,976,o),
(602,1005,o),
(501,1005,cs),
(281,1005,o),
(144,856,o),
(144,699,cs),
(144,546,o),
(279,484,o),
(337,458,cs),
(390,434,ls),
(456,404,o),
(525,363,o),
(525,276,cs),
(525,170,o),
(432,96,o),
(308,96,cs),
(221,96,o),
(137,131,o),
(74,187,c),
(35,167,o),
(7,114,o),
(0,81,c),
(71,18,o),
(179,-24,o),
(301,-24,cs)
);
}
);
width = 789.7;
},
{
anchors = (
{
name = bottom;
pos = (242,0);
},
{
name = top;
pos = (524,1084);
}
);
layerId = "6BF21B58-DCB1-4E7D-A305-B9EC5092F295";
shapes = (
{
closed = 1;
nodes = (
(556,-29,o),
(748,105,o),
(748,332,cs),
(748,491,o),
(630,562,o),
(554,600,cs),
(490,631,ls),
(448,652,o),
(404,670,o),
(404,718,cs),
(404,762,o),
(445,803,o),
(523,803,cs),
(588,803,o),
(661,776,o),
(719,736,c),
(768,771,o),
(822,872,o),
(831,941,c),
(756,995,o),
(639,1028,o),
(524,1028,cs),
(262,1028,o),
(102,861,o),
(102,673,cs),
(102,512,o),
(220,448,o),
(278,419,cs),
(348,383,ls),
(393,359,o),
(436,336,o),
(436,285,cs),
(436,233,o),
(393,196,o),
(309,196,cs),
(231,196,o),
(142,224,o),
(74,278,c),
(25,231,o),
(-21,141,o),
(-34,77,c),
(44,13,o),
(169,-29,o),
(306,-29,cs)
);
}
);
width = 819.28;
},
{
anchors = (
{
name = bottom;
pos = (299,0);
},
{
name = top;
pos = (493,1084);
}
);
layerId = "62135F79-58D5-4DC2-8CB3-F8AE7229E95A";
shapes = (
{
closed = 1;
nodes = (
(501,-24,o),
(670,97,o),
(670,295,cs),
(670,455,o),
(554,512,o),
(466,552,cs),
(435,566,ls),
(367,597,o),
(284,633,o),
(284,722,cs),
(284,813,o),
(362,891,o),
(491,891,cs),
(569,891,o),
(641,864,o),
(692,830,c),
(727,852,o),
(752,898,o),
(754,935,c),
(697,975,o),
(599,1003,o),
(499,1003,cs),
(282,1003,o),
(147,856,o),
(147,701,cs),
(147,549,o),
(283,487,o),
(341,461,cs),
(393,438,ls),
(461,408,o),
(532,365,o),
(532,275,cs),
(532,165,o),
(435,88,o),
(308,88,cs),
(220,88,o),
(137,124,o),
(74,180,c),
(36,162,o),
(9,112,o),
(3,81,c),
(73,18,o),
(180,-24,o),
(301,-24,cs)
);
}
);
width = 787.49;
},
{
anchors = (
{
name = bottom;
pos = (247,0);
},
{
name = top;
pos = (522,1084);
}
);
layerId = "E595FEC6-42D0-4CBC-9ED1-F9D07DC361C2";
shapes = (
{
closed = 1;
nodes = (
(551,-29,o),
(742,104,o),
(742,329,cs),
(742,488,o),
(624,558,o),
(547,596,cs),
(485,626,ls),
(442,647,o),
(394,667,o),
(394,718,cs),
(394,766,o),
(438,810,o),
(521,810,cs),
(587,810,o),
(660,783,o),
(716,744,c),
(764,777,o),
(816,875,o),
(825,941,c),
(751,994,o),
(635,1025,o),
(521,1025,cs),
(263,1025,o),
(106,861,o),
(106,676,cs),
(106,515,o),
(225,452,o),
(283,423,cs),
(352,388,ls),
(399,363,o),
(444,339,o),
(444,284,cs),
(444,227,o),
(397,187,o),
(309,187,cs),
(230,187,o),
(142,215,o),
(74,270,c),
(26,225,o),
(-19,139,o),
(-31,77,c),
(46,13,o),
(170,-29,o),
(306,-29,cs)
);
}
);
width = 816.662;
}
);
unicode = 115;
},
{
color = 5;
glyphname = t;
kernLeft = t;
kernRight = t;
lastChange = "2023-06-05 08:18:04 +0000";
layers = (
{
anchors = (
{
name = bottom;
pos = (263,0);
},
{
name = top;
pos = (461,1361);
},
{
name = topright;
pos = (425,981);
}
);
layerId = "60A08B03-D3FB-4CD5-9797-EA57F0A37C3C";
shapes = (
{
closed = 1;
nodes = (
(366,-8,o),
(441,2,o),
(492,12,c),
(496,24,o),
(497,36,o),
(497,48,cs),
(497,73,o),
(492,105,o),
(484,123,c),
(449,119,o),
(404,114,o),
(363,114,cs),
(305,114,o),
(283,132,o),
(283,182,cs),
(283,200,o),
(287,236,o),
(294,271,cs),
(490,1278,l),
(480,1291,l),
(424,1291,ls),
(353,1291,o),
(338,1244,o),
(328,1189,cs),
(145,250,ls),
(135,199,o),
(132,163,o),
(132,140,cs),
(132,39,o),
(188,-8,o),
(302,-8,cs)
);
},
{
closed = 1;
nodes = (
(338,873,l),
(653,869,l),
(664,893,o),
(672,930,o),
(672,958,cs),
(672,967,o),
(671,977,o),
(670,983,c),
(356,979,l),
(147,983,l),
(136,958,o),
(129,921,o),
(129,894,cs),
(129,883,o),
(129,874,o),
(130,869,c)
);
}
);
width = 640.05;
},
{
anchors = (
{
name = bottom;
pos = (299,0);
},
{
name = top;
pos = (489,1369);
},
{
name = topright;
pos = (540,998);
}
);
layerId = "6BF21B58-DCB1-4E7D-A305-B9EC5092F295";
shapes = (
{
closed = 1;
nodes = (
(427,-10,o),
(516,-1,o),
(587,17,c),
(596,41,o),
(599,78,o),
(599,105,cs),
(599,148,o),
(591,201,o),
(579,236,c),
(567,233,o),
(535,228,o),
(506,228,cs),
(469,228,o),
(428,235,o),
(428,289,cs),
(428,303,o),
(431,329,o),
(436,356,cs),
(616,1285,l),
(605,1299,l),
(479,1299,ls),
(356,1299,o),
(306,1240,o),
(285,1129,cs),
(131,333,ls),
(125,301,o),
(116,245,o),
(116,210,cs),
(116,55,o),
(196,-10,o),
(361,-10,cs)
);
},
{
closed = 1;
nodes = (
(365,784,l),
(725,778,l),
(753,833,o),
(770,903,o),
(770,967,cs),
(770,982,o),
(769,993,o),
(768,1000,c),
(406,995,l),
(107,1000,l),
(80,946,o),
(63,875,o),
(63,812,cs),
(63,798,o),
(64,786,o),
(64,778,c)
);
}
);
width = 727.92;
},
{
anchors = (
{
name = bottom;
pos = (260,0);
},
{
name = top;
pos = (459,1360);
},
{
name = topright;
pos = (416,980);
}
);
layerId = "62135F79-58D5-4DC2-8CB3-F8AE7229E95A";
shapes = (
{
closed = 1;
nodes = (
(361,-8,o),
(436,2,o),
(485,12,c),
(488,23,o),
(489,33,o),
(489,44,cs),
(489,68,o),
(484,98,o),
(477,115,c),
(440,110,o),
(394,105,o),
(352,105,cs),
(293,105,o),
(272,124,o),
(272,174,cs),
(272,192,o),
(276,229,o),
(283,265,cs),
(481,1278,l),
(471,1290,l),
(420,1290,ls),
(353,1290,o),
(340,1244,o),
(331,1193,cs),
(146,244,ls),
(136,191,o),
(133,157,o),
(133,135,cs),
(133,38,o),
(187,-8,o),
(298,-8,cs)
);
},
{
closed = 1;
nodes = (
(336,880,l),
(648,876,l),
(657,897,o),
(664,932,o),
(664,957,cs),
(664,966,o),
(663,976,o),
(662,982,c),
(352,978,l),
(150,982,l),
(140,959,o),
(134,925,o),
(134,900,cs),
(134,889,o),
(134,881,o),
(135,876,c)
);
}
);
width = 633.485;
},
{
anchors = (
{
name = bottom;
pos = (295,0);
},
{
name = top;
pos = (487,1368);
},
{
name = topright;
pos = (530,997);
}
);
layerId = "E595FEC6-42D0-4CBC-9ED1-F9D07DC361C2";
shapes = (
{
closed = 1;
nodes = (
(422,-10,o),
(510,-1,o),
(578,17,c),
(587,40,o),
(590,74,o),
(590,100,cs),
(590,142,o),
(582,193,o),
(571,226,c),
(557,223,o),
(524,218,o),
(493,218,cs),
(454,218,o),
(415,226,o),
(415,279,cs),
(415,294,o),
(418,320,o),
(423,349,cs),
(605,1285,l),
(594,1298,l),
(474,1298,ls),
(356,1298,o),
(308,1240,o),
(289,1134,cs),
(132,326,ls),
(126,292,o),
(117,238,o),
(117,204,cs),
(117,54,o),
(195,-10,o),
(356,-10,cs)
);
},
{
closed = 1;
nodes = (
(363,792,l),
(719,786,l),
(745,838,o),
(761,905,o),
(761,966,cs),
(761,981,o),
(760,992,o),
(759,999,c),
(401,994,l),
(111,999,l),
(85,947,o),
(69,879,o),
(69,819,cs),
(69,805,o),
(70,794,o),
(70,786,c)
);
}
);
width = 720.143;
}
);
unicode = 116;
},
{
color = 5;
glyphname = u;
kernLeft = u;
kernRight = u;
lastChange = "2023-06-05 08:18:04 +0000";
layers = (
{
anchors = (
{
name = bottom;
pos = (398,0);
},
{
name = ogonek;
pos = (726,-14);
},
{
name = top;
pos = (599,1084);
},
{
name = topright;
pos = (929,976);
}
);
layerId = "60A08B03-D3FB-4CD5-9797-EA57F0A37C3C";
shapes = (
{
closed = 1;
nodes = (
(462,-18,o),
(595,67,o),
(674,201,c),
(695,389,l),
(641,246,o),
(503,114,o),
(374,114,cs),
(294,114,o),
(253,163,o),
(253,248,cs),
(255,395,o),
(368,802,o),
(366,921,cs),
(366,960,o),
(352,995,o),
(295,995,cs),
(258,995,o),
(219,978,o),
(200,960,c),
(208,936,o),
(213,907,o),
(213,882,cs),
(213,745,o),
(102,396,o),
(102,221,cs),
(102,78,o),
(183,-18,o),
(328,-18,cs)
);
},
{
closed = 1;
nodes = (
(778,0,o),
(806,27,o),
(820,58,c),
(798,84,o),
(788,120,o),
(788,159,cs),
(788,202,o),
(798,258,o),
(807,303,cs),
(939,981,l),
(921,985,o),
(896,987,o),
(867,987,cs),
(841,987,o),
(814,985,o),
(794,981,c),
(640,191,l),
(639,127,o),
(647,28,o),
(744,-14,c)
);
}
);
width = 1008.05;
},
{
anchors = (
{
name = bottom;
pos = (390,0);
},
{
name = ogonek;
pos = (778,-16);
},
{
name = top;
pos = (602,1084);
},
{
name = topright;
pos = (1014,998);
}
);
layerId = "6BF21B58-DCB1-4E7D-A305-B9EC5092F295";
shapes = (
{
closed = 1;
nodes = (
(427,-18,o),
(531,73,o),
(617,224,c),
(626,509,l),
(595,352,o),
(501,259,o),
(429,259,cs),
(387,259,o),
(372,288,o),
(372,326,cs),
(372,429,o),
(464,748,o),
(464,875,cs),
(464,943,o),
(436,1014,o),
(320,1014,cs),
(247,1014,o),
(170,986,o),
(124,947,c),
(145,921,o),
(153,864,o),
(153,826,cs),
(153,699,o),
(59,414,o),
(59,244,cs),
(59,80,o),
(154,-18,o),
(291,-18,cs)
);
},
{
closed = 1;
nodes = (
(831,12,o),
(884,80,o),
(901,139,c),
(869,170,o),
(864,200,o),
(864,229,cs),
(864,263,o),
(873,307,o),
(880,346,cs),
(1007,998,l),
(966,1007,o),
(908,1010,o),
(858,1010,cs),
(807,1010,o),
(750,1007,o),
(706,998,c),
(559,242,l),
(559,115,o),
(609,0,o),
(780,-16,c)
);
}
);
width = 1026.32;
},
{
anchors = (
{
name = bottom;
pos = (398,0);
},
{
name = ogonek;
pos = (722,-14);
},
{
name = top;
pos = (599,1084);
},
{
name = topright;
pos = (923,974);
}
);
layerId = "62135F79-58D5-4DC2-8CB3-F8AE7229E95A";
shapes = (
{
closed = 1;
nodes = (
(465,-18,o),
(600,67,o),
(678,199,c),
(700,380,l),
(645,238,o),
(503,103,o),
(370,103,cs),
(287,103,o),
(244,154,o),
(244,242,cs),
(246,392,o),
(361,806,o),
(358,925,cs),
(358,961,o),
(346,994,o),
(293,994,cs),
(259,994,o),
(223,978,o),
(205,961,c),
(213,937,o),
(217,910,o),
(217,886,cs),
(217,749,o),
(105,395,o),
(105,219,cs),
(105,78,o),
(185,-18,o),
(331,-18,cs)
);
},
{
closed = 1;
nodes = (
(774,-1,o),
(800,23,o),
(814,52,c),
(793,78,o),
(783,114,o),
(783,154,cs),
(783,197,o),
(793,254,o),
(802,300,cs),
(934,980,l),
(917,983,o),
(895,985,o),
(868,985,cs),
(844,985,o),
(819,983,o),
(801,980,c),
(646,187,l),
(645,128,o),
(650,30,o),
(741,-14,c)
);
}
);
width = 1006.685;
},
{
anchors = (
{
name = bottom;
pos = (391,0);
},
{
name = ogonek;
pos = (773,-16);
},
{
name = top;
pos = (602,1084);
},
{
name = topright;
pos = (1007,995);
}
);
layerId = "E595FEC6-42D0-4CBC-9ED1-F9D07DC361C2";
shapes = (
{
closed = 1;
nodes = (
(430,-18,o),
(537,73,o),
(622,221,c),
(632,498,l),
(599,342,o),
(501,246,o),
(424,246,cs),
(378,246,o),
(362,277,o),
(362,318,cs),
(362,426,o),
(456,753,o),
(455,879,cs),
(455,944,o),
(429,1013,o),
(317,1013,cs),
(248,1013,o),
(175,985,o),
(130,948,c),
(151,922,o),
(158,868,o),
(158,831,cs),
(158,703,o),
(63,413,o),
(63,241,cs),
(63,80,o),
(156,-18,o),
(295,-18,cs)
);
},
{
closed = 1;
nodes = (
(826,11,o),
(876,75,o),
(894,132,c),
(863,163,o),
(858,193,o),
(858,223,cs),
(858,258,o),
(867,302,o),
(874,342,cs),
(1001,997,l),
(962,1004,o),
(907,1007,o),
(859,1007,cs),
(810,1007,o),
(756,1004,o),
(714,997,c),
(566,237,l),
(566,116,o),
(613,2,o),
(776,-16,c)
);
}
);
width = 1024.703;
}
);
unicode = 117;
},
{
color = 5;
glyphname = v;
kernLeft = v;
kernRight = v;
lastChange = "2023-06-05 08:18:04 +0000";
layers = (
{
anchors = (
{
name = bottom;
pos = (328,0);
},
{
name = top;
pos = (535,1084);
}
);
layerId = "60A08B03-D3FB-4CD5-9797-EA57F0A37C3C";
shapes = (
{
closed = 1;
nodes = (
(360,126,l),
(347,126,o),
(345,127,o),
(345,144,cs),
(339,241,o),
(332,350,o),
(320,466,cs),
(274,928,ls),
(270,979,o),
(243,995,o),
(205,995,cs),
(179,995,o),
(146,986,o),
(122,977,c),
(221,85,ls),
(229,13,o),
(253,-9,o),
(320,-9,cs),
(354,-9,o),
(402,-4,o),
(429,1,c),
(539,214,o),
(764,662,o),
(917,972,c),
(913,978,l),
(895,985,o),
(867,989,o),
(838,989,cs),
(815,989,o),
(798,988,o),
(774,983,c)
);
}
);
width = 857.75;
},
{
anchors = (
{
name = bottom;
pos = (368,0);
},
{
name = top;
pos = (582,1084);
}
);
layerId = "6BF21B58-DCB1-4E7D-A305-B9EC5092F295";
shapes = (
{
closed = 1;
nodes = (
(424,227,l),
(413,227,o),
(405,227,o),
(406,242,cs),
(412,335,o),
(412,442,o),
(410,532,cs),
(403,861,ls),
(402,974,o),
(356,1016,o),
(261,1016,cs),
(204,1016,o),
(150,1001,o),
(103,983,c),
(145,179,ls),
(151,49,o),
(185,-12,o),
(336,-12,cs),
(408,-12,o),
(505,-8,o),
(578,0,c),
(690,247,o),
(875,647,o),
(1016,969,c),
(1008,983,l),
(966,1002,o),
(903,1008,o),
(850,1008,cs),
(807,1008,o),
(765,1004,o),
(726,997,c)
);
}
);
width = 940.4;
},
{
anchors = (
{
name = bottom;
pos = (325,0);
},
{
name = top;
pos = (531,1084);
}
);
layerId = "62135F79-58D5-4DC2-8CB3-F8AE7229E95A";
shapes = (
{
closed = 1;
nodes = (
(355,118,l),
(342,118,o),
(341,119,o),
(340,136,cs),
(334,234,o),
(326,343,o),
(313,461,cs),
(265,933,ls),
(260,979,o),
(234,994,o),
(201,994,cs),
(177,994,o),
(146,985,o),
(123,977,c),
(226,78,ls),
(235,10,o),
(258,-9,o),
(319,-9,cs),
(350,-9,o),
(394,-4,o),
(418,1,c),
(528,211,o),
(756,663,o),
(909,972,c),
(906,978,l),
(890,984,o),
(864,988,o),
(837,988,cs),
(815,988,o),
(801,987,o),
(778,982,c)
);
}
);
width = 851.575;
},
{
anchors = (
{
name = bottom;
pos = (364,0);
},
{
name = top;
pos = (578,1084);
}
);
layerId = "E595FEC6-42D0-4CBC-9ED1-F9D07DC361C2";
shapes = (
{
closed = 1;
nodes = (
(418,218,l),
(407,218,o),
(400,218,o),
(401,233,cs),
(406,326,o),
(405,433,o),
(402,526,cs),
(392,867,ls),
(391,974,o),
(346,1015,o),
(256,1015,cs),
(201,1015,o),
(150,1000,o),
(104,983,c),
(151,170,ls),
(159,45,o),
(191,-12,o),
(335,-12,cs),
(403,-12,o),
(496,-8,o),
(565,0,c),
(677,244,o),
(865,648,o),
(1007,969,c),
(999,983,l),
(960,1001,o),
(899,1007,o),
(849,1007,cs),
(808,1007,o),
(768,1003,o),
(730,996,c)
);
}
);
width = 933.085;
}
);
unicode = 118;
},
{
color = 5;
glyphname = w;
kernLeft = w;
kernRight = w;
lastChange = "2023-06-05 08:18:04 +0000";
layers = (
{
anchors = (
{
name = bottom;
pos = (564,0);
},
{
name = top;
pos = (774,1084);
}
);
layerId = "60A08B03-D3FB-4CD5-9797-EA57F0A37C3C";
shapes = (
{
closed = 1;
nodes = (
(298,-8,o),
(339,-5,o),
(376,0,c),
(539,399,ls),
(580,502,o),
(649,682,o),
(712,840,c),
(720,840,l),
(720,684,o),
(721,502,o),
(722,389,cs),
(724,92,ls),
(725,18,o),
(752,-8,o),
(819,-8,cs),
(853,-8,o),
(894,-4,o),
(931,1,c),
(1344,972,l),
(1341,978,l),
(1323,985,o),
(1297,989,o),
(1273,989,cs),
(1250,989,o),
(1217,987,o),
(1202,983,c),
(992,472,ls),
(952,374,o),
(909,266,o),
(851,111,c),
(840,111,o),
(838,115,o),
(838,129,cs),
(828,980,l),
(810,985,o),
(766,987,o),
(742,987,cs),
(723,987,o),
(674,985,o),
(653,980,c),
(301,111,l),
(292,111,o),
(287,112,o),
(288,127,cs),
(292,227,o),
(293,337,o),
(292,472,cs),
(286,929,ls),
(285,977,o),
(258,995,o),
(220,995,cs),
(194,995,o),
(169,990,o),
(145,981,c),
(168,92,ls),
(170,26,o),
(188,-8,o),
(263,-8,cs)
);
}
);
width = 1306.95;
},
{
anchors = (
{
name = bottom;
pos = (624,0);
},
{
name = top;
pos = (834,1084);
}
);
layerId = "6BF21B58-DCB1-4E7D-A305-B9EC5092F295";
shapes = (
{
closed = 1;
nodes = (
(359,-12,o),
(466,-7,o),
(522,0,c),
(636,349,ls),
(672,458,o),
(719,609,o),
(756,730,c),
(768,730,l),
(758,608,o),
(744,453,o),
(737,344,cs),
(726,164,ls),
(720,67,o),
(727,-12,o),
(885,-12,cs),
(945,-12,o),
(1052,-7,o),
(1108,0,c),
(1504,967,l),
(1498,983,l),
(1454,1002,o),
(1388,1008,o),
(1337,1008,cs),
(1293,1008,o),
(1257,1004,o),
(1219,997,c),
(1065,568,ls),
(1029,466,o),
(995,367,o),
(952,231,c),
(939,231,o),
(937,235,o),
(938,247,cs),
(986,987,l),
(942,999,o),
(841,1003,o),
(802,1003,cs),
(766,1003,o),
(682,999,o),
(633,987,c),
(384,231,l),
(372,231,o),
(369,235,o),
(370,248,cs),
(377,335,o),
(385,445,o),
(390,569,cs),
(399,857,ls),
(402,959,o),
(372,1016,o),
(261,1016,cs),
(208,1016,o),
(158,1004,o),
(113,986,c),
(129,164,ls),
(131,70,o),
(140,-12,o),
(301,-12,cs)
);
}
);
width = 1445.28;
},
{
anchors = (
{
name = bottom;
pos = (560,0);
},
{
name = top;
pos = (770,1084);
}
);
layerId = "62135F79-58D5-4DC2-8CB3-F8AE7229E95A";
shapes = (
{
closed = 1;
nodes = (
(293,-8,o),
(330,-5,o),
(365,0,c),
(532,403,ls),
(573,505,o),
(644,687,o),
(708,848,c),
(716,848,l),
(717,689,o),
(719,506,o),
(721,393,cs),
(724,87,ls),
(725,14,o),
(754,-8,o),
(814,-8,cs),
(846,-8,o),
(882,-4,o),
(918,1,c),
(1332,972,l),
(1329,978,l),
(1313,984,o),
(1290,988,o),
(1268,988,cs),
(1247,988,o),
(1214,986,o),
(1201,982,c),
(987,465,ls),
(946,367,o),
(903,258,o),
(843,102,c),
(832,102,o),
(830,106,o),
(830,120,cs),
(816,980,l),
(800,984,o),
(761,986,o),
(738,986,cs),
(720,986,o),
(673,984,o),
(654,980,c),
(295,102,l),
(286,102,o),
(281,103,o),
(282,118,cs),
(286,219,o),
(286,329,o),
(284,465,cs),
(277,934,ls),
(276,978,o),
(249,994,o),
(217,994,cs),
(193,994,o),
(170,989,o),
(147,981,c),
(171,87,ls),
(173,22,o),
(192,-8,o),
(260,-8,cs)
);
}
);
width = 1296.615;
},
{
anchors = (
{
name = bottom;
pos = (619,0);
},
{
name = top;
pos = (829,1084);
}
);
layerId = "E595FEC6-42D0-4CBC-9ED1-F9D07DC361C2";
shapes = (
{
closed = 1;
nodes = (
(354,-12,o),
(455,-7,o),
(509,0,c),
(628,354,ls),
(663,462,o),
(713,615,o),
(752,740,c),
(764,740,l),
(754,614,o),
(741,458,o),
(736,348,cs),
(726,158,ls),
(720,62,o),
(730,-12,o),
(879,-12,cs),
(936,-12,o),
(1038,-7,o),
(1092,0,c),
(1490,967,l),
(1484,983,l),
(1443,1001,o),
(1380,1007,o),
(1331,1007,cs),
(1289,1007,o),
(1253,1003,o),
(1218,996,c),
(1059,560,ls),
(1022,457,o),
(988,358,o),
(943,220,c),
(930,220,o),
(928,224,o),
(929,237,cs),
(972,987,l),
(931,998,o),
(835,1002,o),
(797,1002,cs),
(763,1002,o),
(681,998,o),
(634,987,c),
(377,220,l),
(365,220,o),
(362,224,o),
(363,237,cs),
(370,325,o),
(376,435,o),
(381,561,cs),
(389,863,ls),
(392,960,o),
(362,1015,o),
(257,1015,cs),
(207,1015,o),
(159,1003,o),
(115,986,c),
(133,158,ls),
(135,66,o),
(144,-12,o),
(297,-12,cs)
);
}
);
width = 1433.037;
}
);
unicode = 119;
},
{
color = 5;
glyphname = x;
kernLeft = x;
kernRight = x;
lastChange = "2023-06-05 08:18:04 +0000";
layers = (
{
anchors = (
{
name = top;
pos = (483,1084);
}
);
layerId = "60A08B03-D3FB-4CD5-9797-EA57F0A37C3C";
shapes = (
{
closed = 1;
nodes = (
(55,-10,o),
(80,-7,o),
(96,-2,c),
(421,430,l),
(479,473,l),
(858,964,l),
(855,977,l),
(839,984,o),
(813,989,o),
(780,989,cs),
(756,989,o),
(730,986,o),
(714,981,c),
(424,594,l),
(369,555,l),
(-49,17,l),
(-45,4,l),
(-31,-4,o),
(-1,-10,o),
(30,-10,cs)
);
},
{
closed = 1;
nodes = (
(647,-17,o),
(680,-4,o),
(709,16,c),
(322,944,ls),
(306,983,o),
(284,996,o),
(249,996,cs),
(221,996,o),
(188,983,o),
(160,964,c),
(546,36,ls),
(563,-4,o),
(585,-17,o),
(619,-17,cs)
);
}
);
width = 837.55;
},
{
anchors = (
{
name = top;
pos = (583,1084);
}
);
layerId = "6BF21B58-DCB1-4E7D-A305-B9EC5092F295";
shapes = (
{
closed = 1;
nodes = (
(131,-12,o),
(172,-10,o),
(207,0,c),
(463,349,l),
(593,450,l),
(992,968,l),
(989,989,l),
(945,1002,o),
(895,1010,o),
(840,1010,cs),
(796,1010,o),
(750,1006,o),
(716,998,c),
(487,686,l),
(361,591,l),
(-76,31,l),
(-69,11,l),
(-27,-6,o),
(26,-12,o),
(84,-12,cs)
);
},
{
closed = 1;
nodes = (
(707,-18,o),
(772,1,o),
(840,45,c),
(452,920,ls),
(421,988,o),
(382,1018,o),
(309,1018,cs),
(257,1018,o),
(192,998,o),
(126,955,c),
(509,80,ls),
(540,11,o),
(582,-18,o),
(657,-18,cs)
);
}
);
width = 934.12;
},
{
anchors = (
{
name = top;
pos = (475,1084);
}
);
layerId = "62135F79-58D5-4DC2-8CB3-F8AE7229E95A";
shapes = (
{
closed = 1;
nodes = (
(50,-10,o),
(73,-7,o),
(88,-2,c),
(418,436,l),
(470,475,l),
(848,964,l),
(845,976,l),
(831,983,o),
(807,988,o),
(776,988,cs),
(753,988,o),
(729,985,o),
(714,980,c),
(419,587,l),
(369,552,l),
(-47,16,l),
(-43,4,l),
(-31,-4,o),
(-3,-10,o),
(26,-10,cs)
);
},
{
closed = 1;
nodes = (
(643,-17,o),
(673,-4,o),
(699,14,c),
(313,946,ls),
(297,983,o),
(276,994,o),
(245,994,cs),
(218,994,o),
(188,982,o),
(163,964,c),
(549,32,ls),
(565,-5,o),
(585,-17,o),
(616,-17,cs)
);
}
);
width = 830.335;
},
{
anchors = (
{
name = top;
pos = (574,1084);
}
);
layerId = "E595FEC6-42D0-4CBC-9ED1-F9D07DC361C2";
shapes = (
{
closed = 1;
nodes = (
(125,-12,o),
(163,-10,o),
(197,0,c),
(459,356,l),
(583,453,l),
(980,968,l),
(977,988,l),
(935,1001,o),
(888,1009,o),
(835,1009,cs),
(792,1009,o),
(749,1005,o),
(716,997,c),
(481,677,l),
(362,587,l),
(-73,30,l),
(-66,11,l),
(-27,-6,o),
(24,-12,o),
(79,-12,cs)
);
},
{
closed = 1;
nodes = (
(702,-18,o),
(763,1,o),
(829,43,c),
(441,923,ls),
(411,988,o),
(373,1015,o),
(304,1015,cs),
(253,1015,o),
(192,997,o),
(129,956,c),
(513,76,ls),
(543,10,o),
(582,-18,o),
(653,-18,cs)
);
}
);
width = 925.573;
}
);
unicode = 120;
},
{
color = 5;
glyphname = y;
kernLeft = y;
kernRight = y;
lastChange = "2023-06-05 08:18:04 +0000";
layers = (
{
anchors = (
{
name = bottom;
pos = (557,-125);
},
{
name = top;
pos = (554,1084);
}
);
layerId = "60A08B03-D3FB-4CD5-9797-EA57F0A37C3C";
shapes = (
{
closed = 1;
nodes = (
(251,-436,o),
(358,-257,o),
(481,5,cs),
(933,972,l),
(930,978,l),
(910,985,o),
(880,989,o),
(844,989,cs),
(826,989,o),
(806,988,o),
(782,983,c),
(384,112,l),
(376,112,o),
(368,112,o),
(367,131,cs),
(365,182,o),
(357,312,o),
(345,424,cs),
(290,926,ls),
(285,971,o),
(264,995,o),
(221,995,cs),
(198,995,o),
(166,988,o),
(138,977,c),
(233,93,ls),
(239,38,o),
(249,4,o),
(329,-8,c),
(315,-37,ls),
(282,-111,o),
(188,-315,o),
(13,-315,cs),
(-22,-315,o),
(-59,-305,o),
(-86,-293,c),
(-108,-314,o),
(-129,-364,o),
(-130,-405,c),
(-94,-425,o),
(-37,-436,o),
(16,-436,cs)
);
}
);
width = 884.85;
},
{
anchors = (
{
name = bottom;
pos = (754,-25);
},
{
name = top;
pos = (600,1084);
}
);
layerId = "6BF21B58-DCB1-4E7D-A305-B9EC5092F295";
shapes = (
{
closed = 1;
nodes = (
(381,-437,o),
(509,-273,o),
(629,7,cs),
(1042,969,l),
(1034,983,l),
(986,1003,o),
(917,1008,o),
(865,1008,cs),
(821,1008,o),
(775,1004,o),
(740,997,c),
(437,215,l),
(425,215,o),
(422,217,o),
(423,230,cs),
(427,296,o),
(428,449,o),
(426,497,cs),
(416,861,ls),
(415,948,o),
(392,1016,o),
(281,1016,cs),
(221,1016,o),
(163,1002,o),
(116,983,c),
(158,162,ls),
(163,49,o),
(194,-3,o),
(338,-13,c),
(323,-43,ls),
(288,-114,o),
(228,-202,o),
(93,-202,cs),
(49,-202,o),
(-2,-190,o),
(-43,-168,c),
(-93,-219,o),
(-125,-321,o),
(-125,-389,c),
(-71,-417,o),
(25,-437,o),
(109,-437,cs)
);
}
);
width = 969.24;
},
{
anchors = (
{
name = bottom;
pos = (542,-133);
},
{
name = top;
pos = (550,1084);
}
);
layerId = "62135F79-58D5-4DC2-8CB3-F8AE7229E95A";
shapes = (
{
closed = 1;
nodes = (
(241,-436,o),
(347,-256,o),
(470,5,cs),
(925,972,l),
(922,978,l),
(905,984,o),
(877,988,o),
(843,988,cs),
(826,988,o),
(808,987,o),
(785,982,c),
(380,104,l),
(372,104,o),
(364,104,o),
(363,123,cs),
(360,173,o),
(352,302,o),
(339,419,cs),
(281,931,ls),
(276,973,o),
(255,994,o),
(217,994,cs),
(196,994,o),
(166,987,o),
(140,977,c),
(238,88,ls),
(244,37,o),
(253,4,o),
(328,-8,c),
(315,-37,ls),
(282,-111,o),
(185,-323,o),
(7,-323,cs),
(-27,-323,o),
(-63,-314,o),
(-89,-302,c),
(-109,-321,o),
(-129,-367,o),
(-130,-406,c),
(-96,-425,o),
(-42,-436,o),
(9,-436,cs)
);
}
);
width = 878.545;
},
{
anchors = (
{
name = bottom;
pos = (736,-34);
},
{
name = top;
pos = (596,1084);
}
);
layerId = "E595FEC6-42D0-4CBC-9ED1-F9D07DC361C2";
shapes = (
{
closed = 1;
nodes = (
(370,-437,o),
(496,-272,o),
(616,7,cs),
(1032,969,l),
(1025,983,l),
(980,1002,o),
(913,1007,o),
(864,1007,cs),
(821,1007,o),
(777,1003,o),
(744,996,c),
(432,206,l),
(420,206,o),
(417,208,o),
(418,221,cs),
(422,286,o),
(422,437,o),
(419,491,cs),
(405,867,ls),
(404,951,o),
(381,1015,o),
(276,1015,cs),
(218,1015,o),
(163,1001,o),
(119,983,c),
(164,156,ls),
(169,48,o),
(199,-3,o),
(337,-13,c),
(322,-43,ls),
(288,-114,o),
(224,-212,o),
(86,-212,cs),
(43,-212,o),
(-7,-200,o),
(-47,-179,c),
(-94,-227,o),
(-125,-324,o),
(-125,-390,c),
(-74,-418,o),
(20,-437,o),
(100,-437,cs)
);
}
);
width = 961.771;
}
);
unicode = 121;
},
{
color = 5;
glyphname = z;
kernLeft = z;
kernRight = z;
lastChange = "2023-06-05 08:18:04 +0000";
layers = (
{
anchors = (
{
name = bottom;
pos = (322,0);
},
{
name = top;
pos = (532,1084);
}
);
layerId = "60A08B03-D3FB-4CD5-9797-EA57F0A37C3C";
shapes = (
{
closed = 1;
nodes = (
(583,0,ls),
(649,0,o),
(689,21,o),
(689,89,cs),
(689,107,o),
(687,132,o),
(683,148,c),
(642,133,o),
(559,122,o),
(469,122,cs),
(362,122,ls),
(319,122,o),
(242,120,o),
(180,116,c),
(175,122,l),
(234,183,o),
(301,253,o),
(364,325,cs),
(806,827,ls),
(834,859,o),
(846,877,o),
(846,907,cs),
(846,929,o),
(839,955,o),
(832,981,c),
(203,981,l),
(192,956,o),
(184,915,o),
(184,888,cs),
(184,878,o),
(185,869,o),
(186,861,c),
(415,861,ls),
(491,861,o),
(621,865,o),
(665,871,c),
(670,865,l),
(605,799,o),
(548,741,o),
(485,669,cs),
(35,156,ls),
(14,133,o),
(-4,108,o),
(-4,70,cs),
(-4,52,o),
(0,32,o),
(7,0,c)
);
}
);
width = 849.35;
},
{
anchors = (
{
name = bottom;
pos = (339,0);
},
{
name = top;
pos = (549,1084);
}
);
layerId = "6BF21B58-DCB1-4E7D-A305-B9EC5092F295";
shapes = (
{
closed = 1;
nodes = (
(578,0,ls),
(687,0,o),
(756,45,o),
(756,178,cs),
(756,215,o),
(752,246,o),
(746,267,c),
(698,246,o),
(627,234,o),
(553,234,cs),
(519,234,ls),
(456,234,o),
(401,229,o),
(348,222,c),
(344,232,l),
(422,299,o),
(475,354,o),
(528,410,cs),
(799,697,ls),
(853,754,o),
(872,798,o),
(872,853,cs),
(872,893,o),
(862,939,o),
(848,998,c),
(185,998,l),
(156,941,o),
(138,866,o),
(138,802,cs),
(138,787,o),
(139,774,o),
(140,767,c),
(273,767,ls),
(351,767,o),
(448,773,o),
(521,782,c),
(526,773,l),
(449,713,o),
(393,652,o),
(330,586,cs),
(62,302,ls),
(11,247,o),
(-10,204,o),
(-10,146,cs),
(-10,106,o),
(-1,61,o),
(13,0,c)
);
}
);
width = 872.84;
},
{
anchors = (
{
name = bottom;
pos = (321,0);
},
{
name = top;
pos = (531,1084);
}
);
layerId = "62135F79-58D5-4DC2-8CB3-F8AE7229E95A";
shapes = (
{
closed = 1;
nodes = (
(583,0,ls),
(646,0,o),
(684,19,o),
(684,82,cs),
(684,99,o),
(682,123,o),
(678,139,c),
(638,124,o),
(554,114,o),
(463,114,cs),
(350,114,ls),
(309,114,o),
(230,112,o),
(167,108,c),
(162,114,l),
(220,174,o),
(288,245,o),
(352,319,cs),
(806,836,ls),
(833,867,o),
(844,883,o),
(844,911,cs),
(844,932,o),
(837,956,o),
(831,980,c),
(204,980,l),
(195,957,o),
(188,919,o),
(188,894,cs),
(188,885,o),
(189,876,o),
(190,868,c),
(426,868,ls),
(501,868,o),
(634,872,o),
(676,878,c),
(681,872,l),
(617,805,o),
(560,748,o),
(497,675,cs),
(33,145,ls),
(14,124,o),
(-4,101,o),
(-4,65,cs),
(-4,48,o),
(0,30,o),
(7,0,c)
);
}
);
width = 847.595;
},
{
anchors = (
{
name = bottom;
pos = (338,0);
},
{
name = top;
pos = (548,1084);
}
);
layerId = "E595FEC6-42D0-4CBC-9ED1-F9D07DC361C2";
shapes = (
{
closed = 1;
nodes = (
(578,0,ls),
(683,0,o),
(750,42,o),
(750,170,cs),
(750,205,o),
(746,236,o),
(740,257,c),
(693,236,o),
(621,224,o),
(546,224,cs),
(505,224,ls),
(444,224,o),
(387,219,o),
(333,212,c),
(329,222,l),
(406,289,o),
(460,345,o),
(513,403,cs),
(799,708,ls),
(852,763,o),
(870,806,o),
(870,858,cs),
(870,897,o),
(859,940,o),
(847,997,c),
(186,997,l),
(160,942,o),
(142,871,o),
(142,809,cs),
(142,795,o),
(143,783,o),
(144,776,c),
(286,776,ls),
(363,776,o),
(463,782,o),
(534,790,c),
(539,782,l),
(463,720,o),
(407,660,o),
(344,593,cs),
(60,289,ls),
(11,237,o),
(-10,196,o),
(-10,140,cs),
(-10,101,o),
(-1,59,o),
(13,0,c)
);
}
);
width = 870.761;
}
);
unicode = 122;
},
{
color = 3;
glyphname = quotesingle;
kernLeft = quotesingle;
kernRight = quotesingle;
lastChange = "2023-06-05 08:18:04 +0000";
layers = (
{
layerId = "60A08B03-D3FB-4CD5-9797-EA57F0A37C3C";
shapes = (
{
closed = 1;
nodes = (
(306,979,o),
(324,981,o),
(335,986,c),
(410,1221,o),
(454,1341,o),
(464,1392,cs),
(468,1416,o),
(470,1448,o),
(469,1477,c),
(453,1486,o),
(423,1494,o),
(392,1494,cs),
(358,1494,o),
(329,1486,o),
(305,1477,c),
(294,1451,o),
(282,1417,o),
(278,1387,cs),
(272,1341,o),
(268,1221,o),
(251,986,c),
(262,981,o),
(278,979,o),
(293,979,cs)
);
}
);
width = 391.95;
},
{
layerId = "6BF21B58-DCB1-4E7D-A305-B9EC5092F295";
shapes = (
{
closed = 1;
nodes = (
(346,966,o),
(379,970,o),
(396,977,c),
(486,1225,o),
(547,1382,o),
(559,1441,cs),
(567,1479,o),
(570,1521,o),
(568,1559,c),
(538,1577,o),
(489,1589,o),
(442,1589,cs),
(394,1589,o),
(345,1578,o),
(305,1559,c),
(289,1523,o),
(271,1471,o),
(265,1425,cs),
(259,1377,o),
(254,1225,o),
(241,977,c),
(257,970,o),
(287,966,o),
(315,966,cs)
);
}
);
width = 460.68;
},
{
layerId = "62135F79-58D5-4DC2-8CB3-F8AE7229E95A";
shapes = (
{
closed = 1;
nodes = (
(303,980,o),
(320,982,o),
(330,986,c),
(405,1221,o),
(447,1338,o),
(457,1388,cs),
(460,1411,o),
(462,1443,o),
(461,1471,c),
(447,1479,o),
(418,1487,o),
(388,1487,cs),
(355,1487,o),
(328,1479,o),
(305,1471,c),
(294,1446,o),
(283,1413,o),
(279,1384,cs),
(273,1338,o),
(269,1221,o),
(252,986,c),
(262,982,o),
(277,980,o),
(291,980,cs)
);
}
);
width = 386.815;
},
{
layerId = "E595FEC6-42D0-4CBC-9ED1-F9D07DC361C2";
shapes = (
{
closed = 1;
nodes = (
(342,967,o),
(374,971,o),
(391,978,c),
(480,1225,o),
(538,1378,o),
(551,1436,cs),
(558,1473,o),
(561,1515,o),
(559,1552,c),
(531,1569,o),
(483,1581,o),
(437,1581,cs),
(390,1581,o),
(344,1569,o),
(305,1552,c),
(289,1517,o),
(272,1466,o),
(266,1421,cs),
(260,1373,o),
(255,1225,o),
(242,978,c),
(257,971,o),
(286,967,o),
(312,967,cs)
);
}
);
width = 454.597;
}
);
metricRight = "=|";
unicode = 39;
},
{
glyphname = numbersign;
lastChange = "2023-06-05 08:18:04 +0000";
layers = (
{
layerId = "60A08B03-D3FB-4CD5-9797-EA57F0A37C3C";
shapes = (
{
closed = 1;
nodes = (
(616,-8,o),
(641,-5,o),
(658,0,c),
(1144,1264,l),
(1129,1269,o),
(1103,1272,o),
(1079,1272,cs),
(1049,1272,o),
(1024,1269,o),
(1007,1264,c),
(521,0,l),
(536,-5,o),
(562,-8,o),
(586,-8,cs)
);
},
{
closed = 1;
nodes = (
(1030,311,l),
(1047,351,o),
(1056,394,o),
(1054,442,c),
(42,442,l),
(25,401,o),
(16,358,o),
(18,311,c)
);
},
{
closed = 1;
nodes = (
(204,-8,o),
(230,-5,o),
(247,0,c),
(733,1264,l),
(718,1269,o),
(692,1272,o),
(667,1272,cs),
(638,1272,o),
(612,1269,o),
(595,1264,c),
(109,0,l),
(124,-5,o),
(151,-8,o),
(175,-8,cs)
);
},
{
closed = 1;
nodes = (
(1211,822,l),
(1228,863,o),
(1238,905,o),
(1236,953,c),
(223,953,l),
(207,913,o),
(197,870,o),
(199,822,c)
);
}
);
width = 1198.65;
},
{
layerId = "6BF21B58-DCB1-4E7D-A305-B9EC5092F295";
shapes = (
{
closed = 1;
nodes = (
(763,-16,o),
(817,-11,o),
(852,0,c),
(1338,1261,l),
(1308,1272,o),
(1258,1277,o),
(1212,1277,cs),
(1161,1277,o),
(1107,1273,o),
(1072,1261,c),
(586,0,l),
(617,-10,o),
(666,-16,o),
(712,-16,cs)
);
},
{
closed = 1;
nodes = (
(1204,241,l),
(1236,305,o),
(1256,413,o),
(1250,486,c),
(43,486,l),
(11,422,o),
(-9,314,o),
(-3,241,c)
);
},
{
closed = 1;
nodes = (
(275,-16,o),
(329,-11,o),
(364,0,c),
(850,1261,l),
(820,1272,o),
(770,1277,o),
(724,1277,cs),
(673,1277,o),
(619,1273,o),
(584,1261,c),
(98,0,l),
(129,-10,o),
(178,-16,o),
(224,-16,cs)
);
},
{
closed = 1;
nodes = (
(1392,775,l),
(1424,839,o),
(1444,947,o),
(1438,1020,c),
(231,1020,l),
(200,956,o),
(180,848,o),
(185,775,c)
);
}
);
width = 1383.96;
},
{
layerId = "62135F79-58D5-4DC2-8CB3-F8AE7229E95A";
shapes = (
{
closed = 1;
nodes = (
(605,-8,o),
(628,-5,o),
(644,0,c),
(1130,1264,l),
(1116,1269,o),
(1091,1272,o),
(1069,1272,cs),
(1041,1272,o),
(1018,1269,o),
(1002,1264,c),
(516.009,0,l),
(530,-5,o),
(554,-8,o),
(577,-8,cs)
);
},
{
closed = 1;
nodes = (
(1017,316,l),
(1033,355,o),
(1041,393,o),
(1039,438,c),
(42,438,l),
(26,400,o),
(18,362,o),
(19,316,c)
);
},
{
closed = 1;
nodes = (
(199,-8,o),
(222,-5,o),
(238,0,c),
(724,1264,l),
(710,1269,o),
(686,1272,o),
(663,1272,cs),
(635,1272,o),
(612,1269,o),
(596,1264,c),
(110.009,0,l),
(124,-5,o),
(149,-8,o),
(171,-8,cs)
);
},
{
closed = 1;
nodes = (
(1198,826,l),
(1213,865,o),
(1223,902,o),
(1221,948,c),
(223,948,l),
(207,910,o),
(198,872,o),
(200,826,c)
);
}
);
width = 1184.805;
},
{
layerId = "E595FEC6-42D0-4CBC-9ED1-F9D07DC361C2";
shapes = (
{
closed = 1;
nodes = (
(750,-15,o),
(801,-11,o),
(835,0,c),
(1321,1261,l),
(1292,1272,o),
(1244,1277,o),
(1200,1277,cs),
(1151,1277,o),
(1100,1273,o),
(1066,1261,c),
(580,0,l),
(610,-10,o),
(657,-15,o),
(701,-15,cs)
);
},
{
closed = 1;
nodes = (
(1189,247,l),
(1220,309,o),
(1238,412,o),
(1232,482,c),
(43,482,l),
(12,421,o),
(-6,318,o),
(-2,247,c)
);
},
{
closed = 1;
nodes = (
(269,-15,o),
(320,-11,o),
(354,0,c),
(840,1261,l),
(811,1272,o),
(763,1277,o),
(719,1277,cs),
(670,1277,o),
(619,1273,o),
(585,1261,c),
(99,0,l),
(129,-10,o),
(176,-15,o),
(219,-15,cs)
);
},
{
closed = 1;
nodes = (
(1376,779,l),
(1406,842,o),
(1426,943,o),
(1421,1014,c),
(230,1014,l),
(200,953,o),
(181,851,o),
(186,779,c)
);
}
);
width = 1367.559;
}
);
metricRight = "=|";
unicode = 35;
},
{
color = 3;
glyphname = ampersand;
lastChange = "2023-06-05 08:18:04 +0000";
layers = (
{
layerId = "60A08B03-D3FB-4CD5-9797-EA57F0A37C3C";
shapes = (
{
closed = 1;
nodes = (
(636,793,ls),
(507,793,o),
(418,861,o),
(418,992,cs),
(418,1137,o),
(528,1262,o),
(716,1262,cs),
(805,1262,o),
(905,1235,o),
(983,1195,c),
(1018,1229,o),
(1038,1276,o),
(1045,1316,c),
(955,1361,o),
(835,1390,o),
(722,1390,cs),
(426,1390,o),
(260,1186,o),
(260,994,cs),
(260,835,o),
(374,729,o),
(484,725,c),
(484,750,l),
(227,726,o),
(70,517,o),
(70,302,cs),
(70,102,o),
(207,-24,o),
(407,-24,cs),
(513,-24,o),
(620,12,o),
(706,81,c),
(704,0,l),
(722,-4,o),
(745,-7,o),
(775,-7,cs),
(804,-7,o),
(827,-4,o),
(847,0,c),
(856,88,o),
(871,200,o),
(890,296,c),
(974,728,l),
(833,728,l),
(820,685,o),
(804,614,o),
(788,534,cs),
(727,220,l),
(652,152,o),
(542,103,o),
(439,103,cs),
(319,103,o),
(230,170,o),
(230,317,cs),
(230,495,o),
(360,662,o),
(615,662,cs),
(1032,662,ls),
(1073,662,o),
(1160,665,o),
(1160,758,cs),
(1160,785,o),
(1153,808,o),
(1147,819,c),
(1109,801,o),
(1049,793,o),
(987,793,cs)
);
}
);
width = 1148.1;
},
{
layerId = "6BF21B58-DCB1-4E7D-A305-B9EC5092F295";
shapes = (
{
closed = 1;
nodes = (
(709,849,ls),
(642,849,o),
(550,864,o),
(550,971,cs),
(550,1074,o),
(620,1148,o),
(757,1148,cs),
(835,1148,o),
(931,1125,o),
(1015,1089,c),
(1084,1151,o),
(1112,1237,o),
(1116,1318,c),
(1019,1360,o),
(878,1395,o),
(736,1395,cs),
(421,1395,o),
(232,1223,o),
(232,996,cs),
(232,817,o),
(350,727,o),
(479,727,c),
(484,758,l),
(204,756,o),
(40,533,o),
(40,302,cs),
(40,100,o),
(165,-29,o),
(370,-29,cs),
(497,-29,o),
(607,20,o),
(678,89,c),
(680,-4,l),
(717,-13,o),
(769,-19,o),
(824,-19,cs),
(879,-19,o),
(931,-13,o),
(969,0,c),
(969,109,o),
(983,244,o),
(1006,364,cs),
(1075,720,l),
(784,720,l),
(762,665,o),
(734,536,o),
(720,463,cs),
(689,299,l),
(642,248,o),
(565,210,o),
(491,210,cs),
(414,210,o),
(361,250,o),
(361,347,cs),
(361,477,o),
(449,585,o),
(610,585,cs),
(1091,585,ls),
(1219,585,o),
(1283,647,o),
(1283,772,cs),
(1283,812,o),
(1276,851,o),
(1264,879,c),
(1221,858,o),
(1148,849,o),
(1058,849,cs)
);
}
);
width = 1236.84;
},
{
layerId = "62135F79-58D5-4DC2-8CB3-F8AE7229E95A";
shapes = (
{
closed = 1;
nodes = (
(631,789,ls),
(497,789,o),
(408,861,o),
(408,993,cs),
(408,1142,o),
(521,1270,o),
(713,1270,cs),
(803,1270,o),
(903,1243,o),
(981,1203,c),
(1013,1235,o),
(1033,1279,o),
(1040,1316,c),
(950,1361,o),
(832,1390,o),
(721,1390,cs),
(426,1390,o),
(262,1183,o),
(262,994,cs),
(262,836,o),
(376,729,o),
(484,725,c),
(484,750,l),
(229,724,o),
(72,516,o),
(72,302,cs),
(72,102,o),
(210,-24,o),
(410,-24,cs),
(514,-24,o),
(621,11,o),
(708,81,c),
(706,0,l),
(722,-4,o),
(743,-6,o),
(771,-6,cs),
(799,-6,o),
(819,-4,o),
(838,0,c),
(847,87,o),
(863,196,o),
(881,291,c),
(966,728,l),
(837,728,l),
(824,686,o),
(809,620,o),
(793,539,cs),
(730,214,l),
(653,145,o),
(540,95,o),
(435,95,cs),
(312,95,o),
(220,164,o),
(220,315,cs),
(220,496,o),
(353,668,o),
(615,668,cs),
(1028,668,ls),
(1062,668,o),
(1151,666,o),
(1151,757,cs),
(1151,783,o),
(1144,805,o),
(1138,815,c),
(1101,797,o),
(1041,789,o),
(982,789,cs)
);
}
);
width = 1141.47;
},
{
layerId = "E595FEC6-42D0-4CBC-9ED1-F9D07DC361C2";
shapes = (
{
closed = 1;
nodes = (
(703,844,ls),
(630,844,o),
(539,864,o),
(539,972,cs),
(539,1080,o),
(611,1158,o),
(753,1158,cs),
(833,1158,o),
(929,1135,o),
(1013,1099,c),
(1078,1159,o),
(1106,1241,o),
(1110,1318,c),
(1013,1360,o),
(875,1395,o),
(735,1395,cs),
(421,1395,o),
(234,1219,o),
(234,996,cs),
(234,818,o),
(353,727,o),
(479,727,c),
(484,757,l),
(207,754,o),
(42,532,o),
(42,302,cs),
(42,100,o),
(169,-29,o),
(374,-29,cs),
(498,-29,o),
(608,19,o),
(680,88,c),
(683,-4,l),
(717,-12,o),
(766,-18,o),
(819,-18,cs),
(873,-18,o),
(922,-12,o),
(958,0,c),
(959,108,o),
(973,240,o),
(996,358,c),
(1066,721,l),
(789,721,l),
(767,666,o),
(740,544,o),
(726,469,cs),
(693,292,l),
(643,240,o),
(562,200,o),
(486,200,cs),
(406,200,o),
(350,243,o),
(350,345,cs),
(350,478,o),
(441,592,o),
(610,592,cs),
(1086,592,ls),
(1206,592,o),
(1272,648,o),
(1272,771,cs),
(1272,810,o),
(1265,848,o),
(1254,874,c),
(1211,853,o),
(1139,844,o),
(1052,844,cs)
);
}
);
width = 1228.986;
}
);
unicode = 38;
},
{
color = 3;
glyphname = asterisk;
lastChange = "2023-06-05 08:18:04 +0000";
layers = (
{
layerId = "60A08B03-D3FB-4CD5-9797-EA57F0A37C3C";
shapes = (
{
closed = 1;
nodes = (
(575,1360,ls),
(554,1268,o),
(559,1167,o),
(562,1090,c),
(571,1074,o),
(581,1068,o),
(592,1068,cs),
(602,1068,o),
(616,1076,o),
(631,1090,c),
(660,1167,o),
(706,1265,o),
(722,1357,cs),
(740,1459,l),
(708,1475,o),
(640,1477,o),
(598,1462,c)
);
},
{
closed = 1;
nodes = (
(302,1093,ls),
(382,1060,o),
(481,1053,o),
(555,1043,c),
(575,1047,o),
(585,1057,o),
(592,1068,cs),
(598,1078,o),
(597,1092,o),
(590,1108,c),
(525,1146,o),
(448,1204,o),
(364,1232,cs),
(271,1264,l),
(242,1235,o),
(214,1176,o),
(209,1130,c)
);
},
{
closed = 1;
nodes = (
(428,786,ls),
(498,861,o),
(554,958,o),
(599,1031,c),
(605,1049,o),
(599,1062,o),
(592,1068,cs),
(585,1074,o),
(571,1076,o),
(550,1070,c),
(475,1012,o),
(388,953,o),
(321,877,cs),
(254,800,l),
(270,763,o),
(321,721,o),
(359,711,c)
);
},
{
closed = 1;
nodes = (
(785,869,ls),
(745,947,o),
(685,1009,o),
(630,1070,c),
(613,1078,o),
(602,1074,o),
(592,1068,cs),
(582,1062,o),
(575,1052,o),
(571,1032,c),
(592,959,o),
(614,865,o),
(656,790,cs),
(704,706,l),
(749,715,o),
(807,749,o),
(831,781,c)
);
},
{
closed = 1;
nodes = (
(878,1229,ls),
(784,1206,o),
(686,1149,o),
(611,1108,c),
(596,1094,o),
(590,1078,o),
(592,1068,cs),
(594,1057,o),
(602,1047,o),
(622,1041,c),
(699,1050,o),
(804,1059,o),
(897,1086,cs),
(1000,1116,l),
(1011,1161,o),
(999,1229,o),
(981,1255,c)
);
}
);
width = 963.1;
},
{
layerId = "6BF21B58-DCB1-4E7D-A305-B9EC5092F295";
shapes = (
{
closed = 1;
nodes = (
(556,1331,ls),
(543,1241,o),
(566,1142,o),
(576,1052,c),
(585,1037,o),
(601,1030,o),
(619,1030,cs),
(636,1030,o),
(654,1038,o),
(669,1052,c),
(714,1142,o),
(772,1233,o),
(793,1323,cs),
(824,1454,l),
(769,1476,o),
(662,1483,o),
(574,1460,c)
);
},
{
closed = 1;
nodes = (
(297,1017,ls),
(379,994,o),
(481,993,o),
(575,993,c),
(594,998,o),
(609,1012,o),
(619,1030,cs),
(627,1047,o),
(629,1065,o),
(622,1081,c),
(555,1135,o),
(475,1200,o),
(397,1233,cs),
(287,1280,l),
(235,1226,o),
(190,1132,o),
(179,1049,c)
);
},
{
closed = 1;
nodes = (
(482,715,ls),
(545,791,o),
(587,889,o),
(635,980,c),
(636,998,o),
(631,1018,o),
(619,1030,cs),
(605,1041,o),
(582,1043,o),
(564,1039,c),
(478,983,o),
(379,931,o),
(308,861,cs),
(214,769,l),
(243,704,o),
(320,635,o),
(398,614,c)
);
},
{
closed = 1;
nodes = (
(856,840,ls),
(811,910,o),
(738,980,o),
(672,1036,c),
(654,1040,o),
(636,1041,o),
(619,1030,cs),
(600,1018,o),
(592,1003,o),
(587,984,c),
(600,896,o),
(611,795,o),
(646,719,cs),
(696,610,l),
(775,626,o),
(869,682,o),
(918,741,c)
);
},
{
closed = 1;
nodes = (
(908,1231,ls),
(817,1202,o),
(724,1137,o),
(637,1081,c),
(625,1065,o),
(616,1047,o),
(619,1030,cs),
(621,1012,o),
(631,993,o),
(647,987,c),
(739,988,o),
(850,985,o),
(940,1005,cs),
(1067,1034,l),
(1082,1119,o),
(1068,1215,o),
(1038,1271,c)
);
}
);
width = 1034.44;
},
{
layerId = "62135F79-58D5-4DC2-8CB3-F8AE7229E95A";
shapes = (
{
closed = 1;
nodes = (
(576,1362,ls),
(555,1270,o),
(559,1169,o),
(561,1093,c),
(570,1077,o),
(580,1071,o),
(590,1071,cs),
(599,1071,o),
(613,1079,o),
(628,1093,c),
(656,1169,o),
(701,1267,o),
(717,1360,cs),
(734,1459,l),
(703,1475,o),
(638,1477,o),
(600,1462,c)
);
},
{
closed = 1;
nodes = (
(302,1098,ls),
(382,1065,o),
(481,1057,o),
(554,1047,c),
(574,1051,o),
(583,1061,o),
(590,1071,cs),
(596,1080,o),
(595,1094,o),
(588,1110,c),
(523,1147,o),
(446,1204,o),
(361,1232,cs),
(270,1263,l),
(242,1235,o),
(216,1179,o),
(211,1136,c)
);
},
{
closed = 1;
nodes = (
(424,791,ls),
(494,866,o),
(551,963,o),
(596,1035,c),
(603,1053,o),
(597,1065,o),
(590,1071,cs),
(584,1077,o),
(570,1079,o),
(549,1072,c),
(475,1014,o),
(388,955,o),
(322,878,cs),
(257,802,l),
(272,767,o),
(321,727,o),
(356,718,c)
);
},
{
closed = 1;
nodes = (
(780,871,ls),
(740,950,o),
(681,1011,o),
(627,1073,c),
(610,1081,o),
(599,1077,o),
(590,1071,cs),
(581,1065,o),
(574,1056,o),
(570,1036,c),
(592,964,o),
(614,870,o),
(657,795,cs),
(704,713,l),
(747,722,o),
(802,754,o),
(825,784,c)
);
},
{
closed = 1;
nodes = (
(876,1229,ls),
(781,1206,o),
(683,1150,o),
(609,1110,c),
(594,1096,o),
(588,1080,o),
(590,1071,cs),
(592,1061,o),
(600,1051,o),
(620,1045,c),
(696,1055,o),
(800,1064,o),
(894,1092,cs),
(995,1122,l),
(1006,1164,o),
(994,1230,o),
(977,1254,c)
);
}
);
width = 957.77;
},
{
layerId = "E595FEC6-42D0-4CBC-9ED1-F9D07DC361C2";
shapes = (
{
closed = 1;
nodes = (
(557,1333,ls),
(544,1243,o),
(566,1145,o),
(575,1056,c),
(584,1041,o),
(600,1034,o),
(617,1034,cs),
(633,1034,o),
(650,1042,o),
(665,1056,c),
(709,1145,o),
(766,1235,o),
(787,1326,cs),
(817,1454,l),
(764,1476,o),
(659,1483,o),
(577,1460,c)
);
},
{
closed = 1;
nodes = (
(297,1023,ls),
(379,1000,o),
(481,998,o),
(574,998,c),
(593,1003,o),
(606,1016,o),
(617,1034,cs),
(625,1049,o),
(627,1067,o),
(620,1083,c),
(553,1136,o),
(473,1200,o),
(394,1233,cs),
(286,1279,l),
(235,1227,o),
(193,1136,o),
(181,1056,c)
);
},
{
closed = 1;
nodes = (
(477,721,ls),
(541,797,o),
(584,895,o),
(631,985,c),
(634,1003,o),
(629,1022,o),
(617,1034,cs),
(604,1044,o),
(581,1046,o),
(563,1041,c),
(478,985,o),
(380,934,o),
(309,862,cs),
(218,771,l),
(245,709,o),
(320,642,o),
(394,622,c)
);
},
{
closed = 1;
nodes = (
(850,842,ls),
(805,914,o),
(733,982,o),
(668,1039,c),
(650,1044,o),
(633,1044,o),
(617,1034,cs),
(599,1022,o),
(591,1008,o),
(586,988,c),
(599,902,o),
(611,801,o),
(647,725,cs),
(697,618,l),
(772,634,o),
(864,688,o),
(911,745,c)
);
},
{
closed = 1;
nodes = (
(906,1231,ls),
(814,1202,o),
(720,1138,o),
(635,1083,c),
(623,1067,o),
(614,1049,o),
(617,1034,cs),
(619,1016,o),
(629,998,o),
(644,992,c),
(735,993,o),
(846,991,o),
(936,1012,cs),
(1061,1041,l),
(1076,1123,o),
(1062,1216,o),
(1033,1270,c)
);
}
);
width = 1028.126;
}
);
metricRight = "=|";
unicode = 42;
},
{
color = 3;
glyphname = comma;
kernLeft = comma;
kernRight = comma;
lastChange = "2023-06-05 08:18:04 +0000";
layers = (
{
layerId = "60A08B03-D3FB-4CD5-9797-EA57F0A37C3C";
shapes = (
{
closed = 1;
nodes = (
(179,-219,o),
(296,-56,o),
(296,124,cs),
(296,142,o),
(294,165,o),
(291,180,c),
(266,195,o),
(229,203,o),
(188,203,cs),
(148,203,o),
(105,195,o),
(82,181,c),
(61,150,o),
(46,99,o),
(46,50,cs),
(46,31,o),
(48,17,o),
(51,8,c),
(69,-3,o),
(98,-11,o),
(125,-17,c),
(106,-100,o),
(34,-171,o),
(-52,-217,c),
(-53,-248,o),
(-35,-283,o),
(-6,-298,c)
);
}
);
width = 498.2;
},
{
layerId = "6BF21B58-DCB1-4E7D-A305-B9EC5092F295";
shapes = (
{
closed = 1;
nodes = (
(252,-263,o),
(407,-61,o),
(407,184,cs),
(407,227,o),
(402,253,o),
(400,258,c),
(361,281,o),
(302,294,o),
(248,294,cs),
(190,294,o),
(127,281,o),
(87,259,c),
(56,210,o),
(36,133,o),
(36,66,cs),
(36,46,o),
(38,27,o),
(42,14,c),
(64,0,o),
(99,-12,o),
(131,-19,c),
(106,-102,o),
(27,-173,o),
(-87,-219,c),
(-91,-273,o),
(-64,-334,o),
(-14,-361,c)
);
}
);
width = 588.68;
},
{
layerId = "62135F79-58D5-4DC2-8CB3-F8AE7229E95A";
shapes = (
{
closed = 1;
nodes = (
(174,-216,o),
(288,-56,o),
(288,119,cs),
(288,136,o),
(286,158,o),
(283,174,c),
(259,189,o),
(224,196,o),
(184,196,cs),
(145,196,o),
(103,189,o),
(82,175,c),
(61,145,o),
(47,96,o),
(47,49,cs),
(47,30,o),
(49,16,o),
(52,8,c),
(69,-3,o),
(98,-11,o),
(125,-17,c),
(106,-100,o),
(34,-171,o),
(-49,-217,c),
(-50,-246,o),
(-33,-279,o),
(-6,-293,c)
);
}
);
width = 491.44;
},
{
layerId = "E595FEC6-42D0-4CBC-9ED1-F9D07DC361C2";
shapes = (
{
closed = 1;
nodes = (
(246,-259,o),
(397,-61,o),
(397,179,cs),
(397,220,o),
(392,245,o),
(390,251,c),
(353,274,o),
(296,286,o),
(243,286,cs),
(186,286,o),
(124,274,o),
(87,251,c),
(56,205,o),
(37,130,o),
(37,65,cs),
(37,45,o),
(39,26,o),
(43,14,c),
(64,0,o),
(99,-12,o),
(131,-19,c),
(106,-102,o),
(27,-173,o),
(-84,-219,c),
(-87,-270,o),
(-62,-329,o),
(-13,-355,c)
);
}
);
width = 580.672;
}
);
unicode = 44;
},
{
color = 3;
glyphname = period;
kernLeft = comma;
kernRight = comma;
lastChange = "2023-06-05 08:18:04 +0000";
layers = (
{
layerId = "60A08B03-D3FB-4CD5-9797-EA57F0A37C3C";
shapes = (
{
closed = 1;
nodes = (
(109,195,o),
(152,203,o),
(192,203,cs),
(234,203,o),
(272,194,o),
(290,180,c),
(293,172,o),
(295,156,o),
(295,139,cs),
(295,92,o),
(282,41,o),
(259,7,c),
(236,-6,o),
(193,-14,o),
(153,-14,cs),
(111,-14,o),
(73,-5,o),
(55,8,c),
(52,17,o),
(50,33,o),
(50,50,cs),
(50,97,o),
(64,148,o),
(86,181,c)
);
}
);
width = 499.25;
},
{
layerId = "6BF21B58-DCB1-4E7D-A305-B9EC5092F295";
shapes = (
{
closed = 1;
nodes = (
(128,282,o),
(194,294,o),
(249,294,cs),
(303,294,o),
(362,281,o),
(395,258,c),
(400,243,o),
(401,220,o),
(401,206,cs),
(401,142,o),
(382,64,o),
(350,13,c),
(309,-10,o),
(243,-21,o),
(189,-21,cs),
(135,-21,o),
(76,-9,o),
(42,14,c),
(37,30,o),
(36,52,o),
(36,66,cs),
(36,130,o),
(56,208,o),
(88,259,c)
);
}
);
width = 573.2;
},
{
layerId = "62135F79-58D5-4DC2-8CB3-F8AE7229E95A";
shapes = (
{
closed = 1;
nodes = (
(108,189,o),
(149,196,o),
(188,196,cs),
(229,196,o),
(265,188,o),
(282,174,c),
(285,167,o),
(287,151,o),
(287,134,cs),
(287,88,o),
(274,39,o),
(252,7,c),
(231,-6,o),
(189,-14,o),
(150,-14,cs),
(109,-14,o),
(73,-5,o),
(56,8,c),
(53,16,o),
(51,32,o),
(51,49,cs),
(51,94,o),
(64,143,o),
(86,175,c)
);
}
);
width = 493.725;
},
{
layerId = "E595FEC6-42D0-4CBC-9ED1-F9D07DC361C2";
shapes = (
{
closed = 1;
nodes = (
(127,275,o),
(190,286,o),
(244,286,cs),
(297,286,o),
(354,274,o),
(386,250,c),
(390,237,o),
(391,214,o),
(391,200,cs),
(391,137,o),
(373,61,o),
(342,13,c),
(303,-10,o),
(238,-21,o),
(185,-21,cs),
(132,-21,o),
(76,-9,o),
(43,14,c),
(38,29,o),
(37,51,o),
(37,65,cs),
(37,127,o),
(57,203,o),
(88,251,c)
);
}
);
width = 566.655;
}
);
unicode = 46;
},
{
color = 3;
glyphname = question;
lastChange = "2023-06-05 08:18:04 +0000";
layers = (
{
layerId = "60A08B03-D3FB-4CD5-9797-EA57F0A37C3C";
shapes = (
{
closed = 1;
nodes = (
(303,364,o),
(323,366,o),
(343,373,c),
(401,600,l),
(479,638,ls),
(622,708,o),
(831,846,o),
(831,1085,cs),
(831,1281,o),
(683,1387,o),
(493,1389,cs),
(381,1389,o),
(264,1355,o),
(188,1304,c),
(191,1258,o),
(210,1214,o),
(242,1189,c),
(308,1227,o),
(394,1254,o),
(467,1254,cs),
(590,1254,o),
(672,1182,o),
(672,1068,cs),
(672,876,o),
(446,766,o),
(353,722,cs),
(284,689,l),
(269,671,l),
(224,373,l),
(240,367,o),
(262,364,o),
(283,364,cs)
);
},
{
closed = 1;
nodes = (
(330,38,o),
(343,86,o),
(343,127,cs),
(343,143,o),
(341,160,o),
(338,167,c),
(319,180,o),
(287,188,o),
(248,188,cs),
(212,188,o),
(172,181,o),
(151,168,c),
(131,135,o),
(119,88,o),
(119,46,cs),
(119,30,o),
(120,13,o),
(124,6,c),
(142,-7,o),
(175,-15,o),
(213,-15,cs),
(249,-15,o),
(289,-8,o),
(310,5,c)
);
}
);
width = 775.95;
},
{
layerId = "6BF21B58-DCB1-4E7D-A305-B9EC5092F295";
shapes = (
{
closed = 1;
nodes = (
(377,404,o),
(418,408,o),
(457,420,c),
(507,572,l),
(597,611,ls),
(789,696,o),
(942,838,o),
(942,1049,cs),
(942,1284,o),
(753,1397,o),
(538,1397,cs),
(399,1397,o),
(263,1350,o),
(181,1291,c),
(177,1213,o),
(212,1113,o),
(267,1061,c),
(322,1102,o),
(402,1132,o),
(473,1132,cs),
(559,1132,o),
(613,1089,o),
(613,1009,cs),
(613,889,o),
(485,832,o),
(419,804,cs),
(292,749,l),
(263,719,l),
(224,420,l),
(254,410,o),
(295,404,o),
(340,404,cs)
);
},
{
closed = 1;
nodes = (
(441,52,o),
(459,129,o),
(459,187,cs),
(459,202,o),
(458,224,o),
(453,239,c),
(422,261,o),
(365,272,o),
(314,272,cs),
(261,272,o),
(197,262,o),
(158,240,c),
(128,192,o),
(110,115,o),
(110,56,cs),
(110,42,o),
(111,19,o),
(116,4,c),
(147,-17,o),
(204,-29,o),
(255,-29,cs),
(308,-29,o),
(372,-18,o),
(411,3,c)
);
}
);
width = 879.48;
},
{
layerId = "62135F79-58D5-4DC2-8CB3-F8AE7229E95A";
shapes = (
{
closed = 1;
nodes = (
(298,361,o),
(316,363,o),
(334,369,c),
(393,602,l),
(470,640,ls),
(609,709,o),
(823,846,o),
(823,1088,cs),
(823,1281,o),
(678,1386,o),
(489,1388,cs),
(380,1389,o),
(264,1355,o),
(188,1305,c),
(192,1262,o),
(210,1222,o),
(240,1198,c),
(307,1236,o),
(393,1263,o),
(467,1263,cs),
(592,1263,o),
(676,1189,o),
(676,1072,cs),
(676,875,o),
(443,761,o),
(348,716,cs),
(284,685,l),
(269,667,l),
(224,369,l),
(239,364,o),
(259,361,o),
(279,361,cs)
);
},
{
closed = 1;
nodes = (
(322,37,o),
(334,83,o),
(334,123,cs),
(334,139,o),
(332,155,o),
(329,162,c),
(311,174,o),
(281,182,o),
(243,182,cs),
(208,182,o),
(170,175,o),
(151,163,c),
(131,131,o),
(119,86,o),
(119,45,cs),
(119,29,o),
(121,13,o),
(124,6,c),
(142,-6,o),
(173,-14,o),
(210,-14,cs),
(245,-14,o),
(283,-7,o),
(302,5,c)
);
}
);
width = 768.215;
},
{
layerId = "E595FEC6-42D0-4CBC-9ED1-F9D07DC361C2";
shapes = (
{
closed = 1;
nodes = (
(371,400,o),
(409,404,o),
(447,416,c),
(497,574,l),
(587,613,ls),
(774,697,o),
(932,839,o),
(932,1053,cs),
(932,1284,o),
(747,1396,o),
(534,1396,cs),
(398,1396,o),
(263,1350,o),
(181,1292,c),
(178,1217,o),
(212,1122,o),
(264,1072,c),
(321,1113,o),
(401,1143,o),
(473,1143,cs),
(561,1143,o),
(618,1098,o),
(618,1014,cs),
(618,888,o),
(481,826,o),
(413,797,cs),
(291,744,l),
(263,715,l),
(224,416,l),
(253,407,o),
(292,400,o),
(335,400,cs)
);
},
{
closed = 1;
nodes = (
(431,51,o),
(449,126,o),
(449,182,cs),
(449,197,o),
(448,218,o),
(443,233,c),
(413,254,o),
(358,265,o),
(308,265,cs),
(256,265,o),
(194,255,o),
(158,234,c),
(128,187,o),
(111,113,o),
(111,55,cs),
(111,41,o),
(112,19,o),
(117,4,c),
(147,-16,o),
(202,-28,o),
(251,-28,cs),
(303,-28,o),
(365,-17,o),
(402,3,c)
);
}
);
width = 870.317;
}
);
unicode = 63;
},
{
color = 3;
glyphname = exclam;
lastChange = "2023-06-05 08:18:04 +0000";
layers = (
{
layerId = "60A08B03-D3FB-4CD5-9797-EA57F0A37C3C";
shapes = (
{
closed = 1;
nodes = (
(324,38,o),
(336,86,o),
(336,128,cs),
(336,144,o),
(334,160,o),
(331,167,c),
(312,180,o),
(280,188,o),
(241,188,cs),
(205,188,o),
(166,181,o),
(145,168,c),
(124,136,o),
(112,88,o),
(112,46,cs),
(112,30,o),
(114,14,o),
(117,6,c),
(136,-6,o),
(168,-14,o),
(207,-14,cs),
(243,-14,o),
(282,-7,o),
(303,5,c)
);
},
{
closed = 1;
nodes = (
(303,364,o),
(321,367,o),
(338,373,c),
(403,645,o),
(469,907,o),
(521,1180,cs),
(557,1366,l),
(533,1372,o),
(502,1374,o),
(473,1374,cs),
(443,1374,o),
(411,1372,o),
(387,1366,c),
(351,1181,ls),
(297,907,o),
(259,644,o),
(219,373,c),
(235,366,o),
(256,364,o),
(277,364,cs)
);
}
);
width = 604.1;
},
{
layerId = "6BF21B58-DCB1-4E7D-A305-B9EC5092F295";
shapes = (
{
closed = 1;
nodes = (
(422,57,o),
(440,135,o),
(440,193,cs),
(440,207,o),
(439,230,o),
(434,245,c),
(403,266,o),
(346,278,o),
(295,278,cs),
(243,278,o),
(178,267,o),
(140,246,c),
(109,197,o),
(91,120,o),
(91,62,cs),
(91,47,o),
(92,25,o),
(97,10,c),
(129,-11,o),
(185,-23,o),
(236,-23,cs),
(289,-23,o),
(353,-12,o),
(392,9,c)
);
},
{
closed = 1;
nodes = (
(352,404,o),
(395,406,o),
(440,418,c),
(510,676,o),
(595,930,o),
(645,1187,cs),
(679,1366,l),
(625,1380,o),
(554,1383,o),
(511,1383,cs),
(469,1383,o),
(391,1380,o),
(334,1366,c),
(300,1191,ls),
(248,931,o),
(231,660,o),
(204,418,c),
(241,406,o),
(294,404,o),
(320,404,cs)
);
}
);
width = 675.44;
},
{
layerId = "62135F79-58D5-4DC2-8CB3-F8AE7229E95A";
shapes = (
{
closed = 1;
nodes = (
(316,37,o),
(328,82,o),
(328,123,cs),
(328,139,o),
(326,155,o),
(323,161,c),
(305,174,o),
(275,181,o),
(237,181,cs),
(202,181,o),
(165,175,o),
(145,162,c),
(125,131,o),
(113,86,o),
(113,45,cs),
(113,29,o),
(116,13,o),
(118,6,c),
(136,-6,o),
(167,-14,o),
(205,-14,cs),
(239,-14,o),
(277,-7,o),
(296,5,c)
);
},
{
closed = 1;
nodes = (
(299,361,o),
(316,364,o),
(330,369,c),
(395,643,o),
(460,905,o),
(512,1180,cs),
(548,1366,l),
(526,1371,o),
(498,1373,o),
(470,1373,cs),
(441,1373,o),
(412,1371,o),
(391,1366,c),
(355,1180,ls),
(301,905,o),
(261,643,o),
(220,369,c),
(235,363,o),
(253,361,o),
(274,361,cs)
);
}
);
width = 598.77;
},
{
layerId = "E595FEC6-42D0-4CBC-9ED1-F9D07DC361C2";
shapes = (
{
closed = 1;
nodes = (
(413,56,o),
(431,130,o),
(431,187,cs),
(431,201,o),
(430,224,o),
(425,237,c),
(395,259,o),
(340,270,o),
(290,270,cs),
(239,270,o),
(177,260,o),
(140,238,c),
(110,192,o),
(92,118,o),
(92,61,cs),
(92,46,o),
(95,24,o),
(98,10,c),
(129,-11,o),
(184,-22,o),
(234,-22,cs),
(285,-22,o),
(347,-12,o),
(384,9,c)
);
},
{
closed = 1;
nodes = (
(347,400,o),
(389,402,o),
(431,414,c),
(500,674,o),
(584,927,o),
(634,1187,cs),
(668,1366,l),
(616,1379,o),
(549,1382,o),
(507,1382,cs),
(467,1382,o),
(392,1379,o),
(339,1366,c),
(305,1190,ls),
(253,928,o),
(233,659,o),
(205,414,c),
(241,402,o),
(290,400,o),
(317,400,cs)
);
}
);
width = 669.126;
}
);
metricRight = "=|";
unicode = 33;
},
